{
.appVersion = "895";
DisplayStrings = (
"/softsign-cy.loclBGR",
"/ka-cy"
);
classes = (
{
code = "L' Lacute Lcaron Lcommaaccent Ldot Lslash\012\012";
disabled = 1;
name = _KERN_L_1ST;
},
{
code = "Z' Zacute Zcaron Zdotaccent Zdotbelow uni01C4 uni01F1";
disabled = 1;
name = _KERN_Z_1ST;
},
{
code = "uni0438' uni0432 uni0433 uni0439 uni043A uni043C uni043D uni043F uni0440 uni0446 uni0448 uni0449 uni044B uni044C uni044E uni0453 uni045A uni045C uni045D uni045F uni0491";
disabled = 1;
name = _KERN_uni0438_2ND;
},
{
code = "uni041E' uni042D uni042E";
disabled = 1;
name = _KERN_uni041E_1ST;
},
{
code = "a' aacute abreve acircumflex adieresis agrave amacron aogonek aring aringacute atilde";
disabled = 1;
name = _KERN_a_1ST;
},
{
code = "uni0415' uni0401";
disabled = 1;
name = _KERN_uni0415_1ST;
},
{
code = "A.sc B.sc C.sc D.sc E.sc F.sc G.sc H.sc I.sc J.sc K.sc L.sc M.sc N.sc O.sc P.sc Q.sc R.sc S.sc T.sc U.sc V.sc W.sc X.sc Y.sc Z.sc";
name = smcp2;
},
{
code = "A' Aacute Abreve Acircumflex Adieresis Agrave Amacron Aogonek Aring Aringacute Atilde";
disabled = 1;
name = _KERN_A;
},
{
code = "h' hbar hcircumflex hdotbelow";
disabled = 1;
name = _KERN_h_1ST;
},
{
code = "n' eng m nacute napostrophe ncaron ncommaaccent ndotaccent ntilde p r racute rcaron rcommaaccent rdotbelow";
disabled = 1;
name = _KERN_n_2ND;
},
{
code = "o' oacute obreve ocircumflex odieresis odotbelow ograve ohungarumlaut omacron oslash oslashacute otilde schwa";
disabled = 1;
name = _KERN_o_1ST;
},
{
code = "u' u.alt uacute ubreve ucircumflex udieresis udotbelow ugrave uhungarumlaut umacron uogonek uring utilde";
disabled = 1;
name = _KERN_u_2ND;
},
{
code = "I' Eng H Hbar Hcircumflex Hdotbelow Iacute Ibreve Icircumflex Idieresis Idotaccent Idotbelow Igrave Imacron Iogonek Itilde M N Nacute Ncaron Ncommaaccent Ndotaccent Ntilde";
disabled = 1;
name = _KERN_I_1ST;
},
{

glyphs = (
{
glyphname = exclam;
lastChange = "2016-07-18 14:58:42 +0000";
layers = (
{
layerId = "9C43DE69-513E-4B89-A1B3-70D9BFAB8C3B";
paths = (
{
closed = 1;
nodes = (
"124 200 LINE",
"124 717 LINE",
"104 717 LINE",
"104 200 LINE"
);
},
{
closed = 1;
nodes = (
"124 0 LINE",
"124 84 LINE",
"104 84 LINE",
"104 0 LINE"
);
}
);
width = 228;
},
{
layerId = "5FCC83B7-30FF-48D6-91DC-2705669CF772";
paths = (
{
closed = 1;
nodes = (
"276 300 LINE",
"276 717 LINE",
"86 717 LINE",
"86 300 LINE"
);
},
{
closed = 1;
nodes = (
"276 0 LINE",
"276 184 LINE",
"86 184 LINE",
"86 0 LINE"
);
}
);
width = 362;
}
);
unicode = 0021;
userData = {
org.robofab.fontlab.mark = 0;
};
},
{
glyphname = quotedbl;
lastChange = "2016-07-18 14:58:42 +0000";
layers = (
{
layerId = "9C43DE69-513E-4B89-A1B3-70D9BFAB8C3B";
paths = (
{
closed = 1;
nodes = (
"143 570 LINE",
"143 710 LINE",
"123 710 LINE",
"123 570 LINE"
);
},
{
closed = 1;
nodes = (
"93 570 LINE",
"93 710 LINE",
"73 710 LINE",
"73 570 LINE"
);
}
);
width = 216;
},
{
layerId = "5FCC83B7-30FF-48D6-91DC-2705669CF772";
paths = (
{
closed = 1;
nodes = (
"423 496 LINE",
"423 730 LINE",
"263 730 LINE",
"263 496 LINE"
);
},
{
closed = 1;
nodes = (
"213 496 LINE",
"213 730 LINE",
"53 730 LINE",
"53 496 LINE"
);
}
);
width = 476;
}
);
unicode = 0022;
userData = {
org.robofab.fontlab.mark = 0;
};
},
{
glyphname = numbersign;
lastChange = "2016-07-18 16:20:58 +0000";
layers = (
{
layerId = "9C43DE69-513E-4B89-A1B3-70D9BFAB8C3B";
paths = (
{
closed = 1;
nodes = (
"118 0 LINE",
"171 221 LINE",
"411 221 LINE",
"357 0 LINE",
"378 0 LINE",
"431 221 LINE",
"572 221 LINE",
"572 241 LINE",
"436 241 LINE",
"494 481 LINE",
"612 481 LINE",
"612 501 LINE",
"499 501 LINE",
"551 710 LINE",
"530 710 LINE",
"479 501 LINE",
"239 501 LINE",
"291 710 LINE",
"270 710 LINE",
"219 501 LINE",
"78 501 LINE",
"78 481 LINE",
"214 481 LINE",
"156 241 LINE",
"38 241 LINE",
"38 221 LINE",
"151 221 LINE",
"97 0 LINE"
);
},
{
closed = 1;
nodes = (
"234 481 LINE",
"474 481 LINE",
"416 241 LINE",
"176 241 LINE"
);
}
);
width = 650;
},
{
layerId = "5FCC83B7-30FF-48D6-91DC-2705669CF772";
paths = (
{
closed = 1;
nodes = (
"257 0 LINE",
"298 170 LINE",
"358 170 LINE",
"316 0 LINE",
"467 0 LINE",
"508 170 LINE",
"670 170 LINE",
"670 310 LINE",
"542 310 LINE",
"562 397 LINE",
"721 397 LINE",
"721 527 LINE",
"594 527 LINE",
"640 710 LINE",
"489 710 LINE",
"444 527 LINE",
"384 527 LINE",
"430 710 LINE",
"279 710 LINE",
"234 527 LINE",
"87 527 LINE",
"87 397 LINE",
"202 397 LINE",
"182 310 LINE",
"36 310 LINE",
"36 170 LINE",
"148 170 LINE",
"106 0 LINE"
);
},
{
closed = 1;
nodes = (
"352 397 LINE",
"412 397 LINE",
"392 310 LINE",
"332 310 LINE"
);
}
);
width = 757;
}
);
unicode = 0023;
userData = {
org.robofab.fontlab.mark = 0;
};
},
{
glyphname = dollar;
lastChange = "2016-07-18 16:20:58 +0000";
layers = (
{
components = (
{
name = S;
transform = "{1, 0, 0, 1, 7, 0}";
}
);
layerId = "9C43DE69-513E-4B89-A1B3-70D9BFAB8C3B";
paths = (
{
closed = 1;
nodes = (
"320 708 LINE",
"300 706 LINE",
"300 5 LINE",
"320 4 LINE"
);
},
{
closed = 1;
nodes = (
"320 -93 LINE",
"320 0 LINE",
"300 1 LINE",
"300 -93 LINE"
);
},
{
closed = 1;
nodes = (
"320 704 LINE",
"320 815 LINE",
"300 815 LINE",
"300 702 LINE"
);
}
);
width = 613;
},
{
components = (
{
name = S;
transform = "{1, 0, 0, 1, 19, 0}";
}
);
layerId = "5FCC83B7-30FF-48D6-91DC-2705669CF772";
paths = (
{
closed = 1;
nodes = (
"357 603 LINE",
"305 589 LINE",
"305 117 LINE",
"357 115 LINE"
);
},
{
closed = 1;
nodes = (
"371 -129 LINE",
"371 95 LINE",
"291 95 LINE",
"291 -129 LINE"
);
},
{
closed = 1;
nodes = (
"371 623 LINE",
"371 815 LINE",
"291 815 LINE",
"291 609 LINE"
);
}
);
width = 649;
}
);
unicode = 0024;
userData = {
org.robofab.fontlab.mark = 0;
};
},
{
glyphname = percent;
lastChange = "2016-07-18 16:20:58 +0000";
layers = (
{
components = (
{
name = fraction;
transform = "{1, 0, 0, 1, 275, 0}";
}
);
layerId = "9C43DE69-513E-4B89-A1B3-70D9BFAB8C3B";
paths = (
{
closed = 1;
nodes = (
"262 444 OFFCURVE",
"324 506 OFFCURVE",
"324 582 CURVE SMOOTH",
"324 658 OFFCURVE",
"262 720 OFFCURVE",
"186 720 CURVE SMOOTH",
"110 720 OFFCURVE",
"48 658 OFFCURVE",
"48 582 CURVE SMOOTH",
"48 506 OFFCURVE",
"110 444 OFFCURVE",
"186 444 CURVE SMOOTH"
);
},
{
closed = 1;
nodes = (
"561 -10 OFFCURVE",
"623 51 OFFCURVE",
"623 128 CURVE SMOOTH",
"623 204 OFFCURVE",
"561 266 OFFCURVE",
"485 266 CURVE SMOOTH",
"409 266 OFFCURVE",
"347 204 OFFCURVE",
"347 128 CURVE SMOOTH",
"347 51 OFFCURVE",
"409 -10 OFFCURVE",
"485 -10 CURVE SMOOTH"
);
},
{
closed = 1;
nodes = (
"420 10 OFFCURVE",
"367 62 OFFCURVE",
"367 128 CURVE SMOOTH",
"367 190 OFFCURVE",
"419 246 OFFCURVE",
"485 246 CURVE SMOOTH",
"547 246 OFFCURVE",
"603 193 OFFCURVE",
"603 128 CURVE SMOOTH",
"603 65 OFFCURVE",
"551 10 OFFCURVE",
"485 10 CURVE SMOOTH"
);
},
{
closed = 1;
nodes = (
"122 464 OFFCURVE",
"68 516 OFFCURVE",
"68 582 CURVE SMOOTH",
"68 644 OFFCURVE",
"120 700 OFFCURVE",
"186 700 CURVE SMOOTH",
"248 700 OFFCURVE",
"304 648 OFFCURVE",
"304 582 CURVE SMOOTH",
"304 520 OFFCURVE",
"252 464 OFFCURVE",
"186 464 CURVE SMOOTH"
);
}
);
width = 670;
},
{
components = (
{
name = fraction;
transform = "{1, 0, 0, 1, 306, 0}";
}
);
layerId = "5FCC83B7-30FF-48D6-91DC-2705669CF772";
paths = (
{
closed = 1;
nodes = (
"740 -10 OFFCURVE",
"818 60 OFFCURVE",
"818 148 CURVE SMOOTH",
"818 236 OFFCURVE",
"740 306 OFFCURVE",
"640 306 CURVE SMOOTH",
"540 306 OFFCURVE",
"462 236 OFFCURVE",
"462 148 CURVE SMOOTH",
"462 60 OFFCURVE",
"540 -10 OFFCURVE",
"640 -10 CURVE SMOOTH"
);
},
{
closed = 1;
nodes = (
"311 404 OFFCURVE",
"389 474 OFFCURVE",
"389 562 CURVE SMOOTH",
"389 650 OFFCURVE",
"311 720 OFFCURVE",
"211 720 CURVE SMOOTH",
"111 720 OFFCURVE",
"33 650 OFFCURVE",
"33 562 CURVE SMOOTH",
"33 474 OFFCURVE",
"111 404 OFFCURVE",
"211 404 CURVE SMOOTH"
);
},
{
closed = 1;
nodes = (
"185 494 OFFCURVE",
"163 525 OFFCURVE",
"163 562 CURVE SMOOTH",
"163 599 OFFCURVE",
"185 630 OFFCURVE",
"211 630 CURVE SMOOTH",
"237 630 OFFCURVE",
"259 599 OFFCURVE",
"259 562 CURVE SMOOTH",
"259 525 OFFCURVE",
"237 494 OFFCURVE",
"211 494 CURVE SMOOTH"
);
},
{
closed = 1;
nodes = (
"614 80 OFFCURVE",
"592 111 OFFCURVE",
"592 148 CURVE SMOOTH",
"592 185 OFFCURVE",
"614 216 OFFCURVE",
"640 216 CURVE SMOOTH",
"666 216 OFFCURVE",
"688 185 OFFCURVE",
"688 148 CURVE SMOOTH",
"688 111 OFFCURVE",
"666 80 OFFCURVE",
"640 80 CURVE SMOOTH"
);
}
);
width = 851;
}
);
unicode = 0025;
userData = {
org.robofab.fontlab.mark = 0;
};
},
{
glyphname = ampersand;
lastChange = "2016-07-18 16:20:58 +0000";
layers = (
{
layerId = "9C43DE69-513E-4B89-A1B3-70D9BFAB8C3B";
paths = (
{
closed = 1;
nodes = (
"450 -10 OFFCURVE",
"562 164 OFFCURVE",
"562 333 CURVE",
"542 333 LINE",
"542 170 OFFCURVE",
"437 8 OFFCURVE",
"273 8 CURVE SMOOTH",
"181 8 OFFCURVE",
"73 59 OFFCURVE",
"73 168 CURVE SMOOTH",
"73 263 OFFCURVE",
"154 323 OFFCURVE",
"243 384 CURVE SMOOTH",
"335 447 OFFCURVE",
"426 507 OFFCURVE",
"426 591 CURVE SMOOTH",
"426 660 OFFCURVE",
"364 719 OFFCURVE",
"277 719 CURVE SMOOTH",
"183 719 OFFCURVE",
"110 650 OFFCURVE",
"110 574 CURVE SMOOTH",
"110 525 OFFCURVE",
"141 478 OFFCURVE",
"229 386 CURVE SMOOTH",
"598 0 LINE",
"625 0 LINE",
"240 400 LINE SMOOTH",
"148 496 OFFCURVE",
"130 537 OFFCURVE",
"130 573 CURVE SMOOTH",
"130 642 OFFCURVE",
"194 699 OFFCURVE",
"276 699 CURVE SMOOTH",
"351 699 OFFCURVE",
"406 652 OFFCURVE",
"406 589 CURVE SMOOTH",
"406 518 OFFCURVE",
"339 470 OFFCURVE",
"233 398 CURVE SMOOTH",
"135 331 OFFCURVE",
"53 272 OFFCURVE",
"53 170 CURVE SMOOTH",
"53 53 OFFCURVE",
"162 -10 OFFCURVE",
"270 -10 CURVE SMOOTH"
);
}
);
width = 635;
},
{
layerId = "5FCC83B7-30FF-48D6-91DC-2705669CF772";
paths = (
{
closed = 1;
nodes = (
"463 -10 OFFCURVE",
"658 124 OFFCURVE",
"660 416 CURVE",
"507 416 LINE",
"507 232 OFFCURVE",
"394 138 OFFCURVE",
"305 138 CURVE SMOOTH",
"240 138 OFFCURVE",
"217 188 OFFCURVE",
"217 216 CURVE SMOOTH",
"217 255 OFFCURVE",
"263 283 OFFCURVE",
"328 321 CURVE SMOOTH",
"423 377 OFFCURVE",
"494 449 OFFCURVE",
"494 548 CURVE SMOOTH",
"494 670 OFFCURVE",
"388 719 OFFCURVE",
"285 719 CURVE SMOOTH",
"166 719 OFFCURVE",
"77 652 OFFCURVE",
"77 536 CURVE SMOOTH",
"77 470 OFFCURVE",
"106 428 OFFCURVE",
"190 338 CURVE SMOOTH",
"506 0 LINE",
"755 0 LINE",
"340 438 LINE SMOOTH",
"271 511 OFFCURVE",
"249 517 OFFCURVE",
"249 544 CURVE SMOOTH",
"249 565 OFFCURVE",
"262 581 OFFCURVE",
"285 581 CURVE SMOOTH",
"306 581 OFFCURVE",
"320 568 OFFCURVE",
"320 546 CURVE SMOOTH",
"320 511 OFFCURVE",
"288 500 OFFCURVE",
"203 447 CURVE SMOOTH",
"128 400 OFFCURVE",
"35 331 OFFCURVE",
"35 216 CURVE SMOOTH",
"35 106 OFFCURVE",
"120 -10 OFFCURVE",
"285 -10 CURVE SMOOTH"
);
}
);
width = 749;
}
);
unicode = 0026;
userData = {
org.robofab.fontlab.mark = 0;
};
},
{
glyphname = quotesingle;
lastChange = "2016-07-18 14:58:42 +0000";
layers = (
{
layerId = "9C43DE69-513E-4B89-A1B3-70D9BFAB8C3B";
paths = (
{
closed = 1;
nodes = (
"93 569 LINE",
"93 710 LINE",
"73 710 LINE",
"73 569 LINE"
);
}
);
width = 166;
},
{
layerId = "5FCC83B7-30FF-48D6-91DC-2705669CF772";
paths = (
{
closed = 1;
nodes = (
"213 496 LINE",
"213 730 LINE",
"53 730 LINE",
"53 496 LINE"
);
}
);
width = 266;
}
);
unicode = 0027;
userData = {
org.robofab.fontlab.mark = 0;
};
},
{
glyphname = parenleft;
lastChange = "2016-07-18 16:20:58 +0000";
layers = (
{
layerId = "9C43DE69-513E-4B89-A1B3-70D9BFAB8C3B";
paths = (
{
closed = 1;
nodes = (
"199 -14 LINE",
"116 104 OFFCURVE",
"69 240 OFFCURVE",
"69 342 CURVE SMOOTH",
"69 463 OFFCURVE",
"135 620 OFFCURVE",
"199 714 CURVE",
"183 726 LINE",
"110 604 OFFCURVE",
"50 481 OFFCURVE",
"50 345 CURVE SMOOTH",
"50 225 OFFCURVE",
"97 100 OFFCURVE",
"183 -26 CURVE"
);
}
);
width = 234;
},
{
layerId = "5FCC83B7-30FF-48D6-91DC-2705669CF772";
paths = (
{
closed = 1;
nodes = (
"321 1 LINE",
"254 127 OFFCURVE",
"202 236 OFFCURVE",
"202 345 CURVE SMOOTH",
"202 490 OFFCURVE",
"295 664 OFFCURVE",
"326 714 CURVE",
"181 772 LINE",
"93 622 OFFCURVE",
"25 483 OFFCURVE",
"25 348 CURVE SMOOTH",
"25 205 OFFCURVE",
"101 57 OFFCURVE",
"183 -66 CURVE"
);
}
);
width = 342;
}
);
unicode = 0028;
userData = {
org.robofab.fontlab.mark = 0;
};
},
{
glyphname = parenright;
lastChange = "2016-07-18 16:20:58 +0000";
layers = (
{
layerId = "9C43DE69-513E-4B89-A1B3-70D9BFAB8C3B";
paths = (
{
closed = 1;
nodes = (
"137 100 OFFCURVE",
"184 225 OFFCURVE",
"184 345 CURVE SMOOTH",
"184 481 OFFCURVE",
"124 604 OFFCURVE",
"51 726 CURVE",
"35 714 LINE",
"99 620 OFFCURVE",
"165 463 OFFCURVE",
"165 342 CURVE SMOOTH",
"165 240 OFFCURVE",
"118 104 OFFCURVE",
"35 -14 CURVE",
"51 -26 LINE"
);
}
);
width = 233;
},
{
layerId = "5FCC83B7-30FF-48D6-91DC-2705669CF772";
paths = (
{
closed = 1;
nodes = (
"240 57 OFFCURVE",
"316 205 OFFCURVE",
"316 348 CURVE SMOOTH",
"316 483 OFFCURVE",
"248 622 OFFCURVE",
"160 772 CURVE",
"15 714 LINE",
"46 664 OFFCURVE",
"139 490 OFFCURVE",
"139 345 CURVE SMOOTH",
"139 236 OFFCURVE",
"87 127 OFFCURVE",
"20 1 CURVE",
"158 -66 LINE"
);
}
);
width = 341;
}
);
unicode = 0029;
userData = {
org.robofab.fontlab.mark = 0;
};
},
{
glyphname = asterisk;
lastChange = "2016-07-18 16:20:58 +0000";
layers = (
{
layerId = "9C43DE69-513E-4B89-A1B3-70D9BFAB8C3B";
paths = (
{
closed = 1;
nodes = (
"151 609 LINE",
"192 552 LINE",
"209 564 LINE",
"167 621 LINE",
"234 643 LINE",
"228 662 LINE",
"161 640 LINE",
"161 710 LINE",
"141 710 LINE",
"141 640 LINE",
"74 662 LINE",
"68 643 LINE",
"135 621 LINE",
"94 564 LINE",
"110 552 LINE"
);
}
);
width = 302;
},
{
layerId = "5FCC83B7-30FF-48D6-91DC-2705669CF772";
paths = (
{
closed = 1;
nodes = (
"182 537 LINE",
"230 454 LINE",
"299 499 LINE",
"250 577 LINE",
"322 598 LINE",
"298 675 LINE",
"223 639 LINE",
"230 721 LINE",
"134 721 LINE",
"141 639 LINE",
"66 675 LINE",
"42 598 LINE",
"114 577 LINE",
"65 499 LINE",
"134 454 LINE"
);
}
);
width = 364;
}
);
unicode = 002A;
userData = {
org.robofab.fontlab.mark = 0;
};
},
{
glyphname = plus;
lastChange = "2016-07-18 16:20:58 +0000";
layers = (
{
layerId = "9C43DE69-513E-4B89-A1B3-70D9BFAB8C3B";
paths = (
{
closed = 1;
nodes = (
"216 195 LINE",
"216 345 LINE",
"356 345 LINE",
"356 365 LINE",
"216 365 LINE",
"216 515 LINE",
"196 515 LINE",
"196 365 LINE",
"56 365 LINE",
"56 345 LINE",
"196 345 LINE",
"196 195 LINE"
);
}
);
width = 412;
},
{
layerId = "5FCC83B7-30FF-48D6-91DC-2705669CF772";
paths = (
{
closed = 1;
nodes = (
"299 185 LINE",
"299 280 LINE",
"384 280 LINE",
"384 430 LINE",
"299 430 LINE",
"299 525 LINE",
"129 525 LINE",
"129 430 LINE",
"44 430 LINE",
"44 280 LINE",
"129 280 LINE",
"129 185 LINE"
);
}
);
width = 428;
}
);
unicode = 002B;
userData = {
org.robofab.fontlab.mark = 0;
};
},
{
glyphname = comma;
lastChange = "2016-07-18 14:58:42 +0000";
layers = (
{
layerId = "9C43DE69-513E-4B89-A1B3-70D9BFAB8C3B";
paths = (
{
closed = 1;
nodes = (
"130 -81 LINE",
"143 -10 LINE",
"143 64 LINE",
"117 64 LINE",
"117 -10 LINE",
"126 -10 LINE",
"116 -81 LINE"
);
}
);
width = 260;
},
{
layerId = "5FCC83B7-30FF-48D6-91DC-2705669CF772";
paths = (
{
closed = 1;
nodes = (
"153 -157 LINE",
"207 0 LINE",
"207 184 LINE",
"50 184 LINE",
"50 0 LINE",
"107 0 LINE",
"71 -157 LINE"
);
}
);
width = 257;
}
);
unicode = 002C;
userData = {
org.robofab.fontlab.mark = 0;
};
},
{
glyphname = hyphen;
lastChange = "2016-07-18 14:58:42 +0000";
layers = (
{
layerId = "9C43DE69-513E-4B89-A1B3-70D9BFAB8C3B";
paths = (
{
closed = 1;
nodes = (
"352 261 LINE",
"352 281 LINE",
"69 281 LINE",
"69 261 LINE"
);
}
);
width = 421;
},
{
layerId = "5FCC83B7-30FF-48D6-91DC-2705669CF772";
paths = (
{
closed = 1;
nodes = (
"363 191 LINE",
"363 361 LINE",
"50 361 LINE",
"50 191 LINE"
);
}
);
width = 413;
}
);
unicode = 002D;
userData = {
org.robofab.fontlab.mark = 0;
};
},
{
glyphname = period;
lastChange = "2016-07-18 14:58:42 +0000";
layers = (
{
layerId = "9C43DE69-513E-4B89-A1B3-70D9BFAB8C3B";
paths = (
{
closed = 1;
nodes = (
"89 0 LINE",
"89 64 LINE",
"69 64 LINE",
"69 0 LINE"
);
}
);
width = 158;
},
{
layerId = "5FCC83B7-30FF-48D6-91DC-2705669CF772";
paths = (
{
closed = 1;
nodes = (
"204 0 LINE",
"204 184 LINE",
"50 184 LINE",
"50 0 LINE"
);
}
);
width = 254;
}
);
unicode = 002E;
userData = {
org.robofab.fontlab.mark = 0;
};
},
{
glyphname = slash;
lastChange = "2016-07-18 16:20:58 +0000";
layers = (
{
layerId = "9C43DE69-513E-4B89-A1B3-70D9BFAB8C3B";
paths = (
{
closed = 1;
nodes = (
"52 0 LINE",
"508 710 LINE",
"482 710 LINE",
"27 0 LINE"
);
}
);
width = 536;
},
{
layerId = "5FCC83B7-30FF-48D6-91DC-2705669CF772";
paths = (
{
closed = 1;
nodes = (
"235 0 LINE",
"751 710 LINE",
"541 710 LINE",
"26 0 LINE"
);
}
);
width = 777;
}
);
unicode = 002F;
userData = {
org.robofab.fontlab.mark = 0;
};
},
{
glyphname = zero;
lastChange = "2016-07-18 16:20:58 +0000";
layers = (
{
layerId = "9C43DE69-513E-4B89-A1B3-70D9BFAB8C3B";
paths = (
{
closed = 1;
nodes = (
"446 -10 OFFCURVE",
"549 117 OFFCURVE",
"549 293 CURVE SMOOTH",
"549 469 OFFCURVE",
"446 597 OFFCURVE",
"304 597 CURVE SMOOTH",
"162 597 OFFCURVE",
"59 469 OFFCURVE",
"59 293 CURVE SMOOTH",
"59 117 OFFCURVE",
"162 -10 OFFCURVE",
"304 -10 CURVE SMOOTH"
);
},
{
closed = 1;
nodes = (
"171 10 OFFCURVE",
"79 125 OFFCURVE",
"79 293 CURVE SMOOTH",
"79 461 OFFCURVE",
"171 577 OFFCURVE",
"304 577 CURVE SMOOTH",
"437 577 OFFCURVE",
"529 461 OFFCURVE",
"529 293 CURVE SMOOTH",
"529 125 OFFCURVE",
"437 10 OFFCURVE",
"304 10 CURVE SMOOTH"
);
}
);
width = 608;
},
{
layerId = "5FCC83B7-30FF-48D6-91DC-2705669CF772";
paths = (
{
closed = 1;
nodes = (
"458 -10 OFFCURVE",
"572 117 OFFCURVE",
"572 293 CURVE SMOOTH",
"572 469 OFFCURVE",
"458 597 OFFCURVE",
"307 597 CURVE SMOOTH",
"156 597 OFFCURVE",
"42 469 OFFCURVE",
"42 293 CURVE SMOOTH",
"42 117 OFFCURVE",
"156 -10 OFFCURVE",
"307 -10 CURVE SMOOTH"
);
},
{
closed = 1;
nodes = (
"262 164 OFFCURVE",
"232 216 OFFCURVE",
"232 293 CURVE SMOOTH",
"232 370 OFFCURVE",
"262 423 OFFCURVE",
"307 423 CURVE SMOOTH",
"349 423 OFFCURVE",
"380 370 OFFCURVE",
"380 293 CURVE SMOOTH",
"380 216 OFFCURVE",
"349 164 OFFCURVE",
"307 164 CURVE SMOOTH"
);
}
);
width = 614;
}
);
unicode = 0030;
userData = {
org.robofab.fontlab.mark = 0;
};
},
{
glyphname = one;
lastChange = "2016-07-18 16:20:58 +0000";
layers = (
{
layerId = "9C43DE69-513E-4B89-A1B3-70D9BFAB8C3B";
paths = (
{
closed = 1;
nodes = (
"357 0 LINE",
"357 20 LINE",
"230 20 LINE",
"230 571 LINE",
"210 571 LINE",
"208 567 OFFCURVE",
"117 476 OFFCURVE",
"45 476 CURVE",
"45 452 LINE",
"99 452 OFFCURVE",
"188 507 OFFCURVE",
"210 538 CURVE",
"210 20 LINE",
"68 20 LINE",
"68 0 LINE"
);
}
);
width = 375;
},
{
layerId = "5FCC83B7-30FF-48D6-91DC-2705669CF772";
paths = (
{
closed = 1;
nodes = (
"523 0 LINE",
"523 170 LINE",
"396 170 LINE",
"396 571 LINE",
"202 571 LINE",
"186 539 OFFCURVE",
"79 476 OFFCURVE",
"41 476 CURVE",
"41 302 LINE",
"92 302 OFFCURVE",
"178 338 OFFCURVE",
"202 369 CURVE",
"202 170 LINE",
"60 170 LINE",
"60 0 LINE"
);
}
);
width = 547;
}
);
unicode = 0031;
userData = {
org.robofab.fontlab.mark = 0;
};
},
{
glyphname = two;
lastChange = "2016-07-18 14:58:42 +0000";
layers = (
{
layerId = "9C43DE69-513E-4B89-A1B3-70D9BFAB8C3B";
paths = (
{
closed = 1;
nodes = (
"437 0 LINE",
"437 20 LINE",
"66 20 LINE",
"66 56 OFFCURVE",
"87 184 OFFCURVE",
"225 244 CURVE SMOOTH",
"301 277 OFFCURVE",
"426 312 OFFCURVE",
"426 433 CURVE SMOOTH",
"426 505 OFFCURVE",
"364 581 OFFCURVE",
"244 581 CURVE SMOOTH",
"127 581 OFFCURVE",
"57 487 OFFCURVE",
"57 486 CURVE",
"73 474 LINE",
"83 487 OFFCURVE",
"144 561 OFFCURVE",
"244 561 CURVE SMOOTH",
"354 561 OFFCURVE",
"406 494 OFFCURVE",
"406 433 CURVE SMOOTH",
"406 328 OFFCURVE",
"292 294 OFFCURVE",
"218 263 CURVE SMOOTH",
"57 196 OFFCURVE",
"47 49 OFFCURVE",
"47 0 CURVE"
);
}
);
width = 486;
},
{
layerId = "5FCC83B7-30FF-48D6-91DC-2705669CF772";
paths = (
{
closed = 1;
nodes = (
"558 0 LINE",
"558 170 LINE",
"338 170 LINE",
"374 195 OFFCURVE",
"412 215 OFFCURVE",
"445 237 CURVE SMOOTH",
"502 275 OFFCURVE",
"547 318 OFFCURVE",
"547 401 CURVE SMOOTH",
"547 514 OFFCURVE",
"465 581 OFFCURVE",
"313 581 CURVE SMOOTH",
"199 581 OFFCURVE",
"88 543 OFFCURVE",
"36 486 CURVE",
"156 345 LINE",
"199 395 OFFCURVE",
"236 417 OFFCURVE",
"280 417 CURVE SMOOTH",
"317 417 OFFCURVE",
"340 401 OFFCURVE",
"340 368 CURVE SMOOTH",
"340 344 OFFCURVE",
"327 336 OFFCURVE",
"182 258 CURVE SMOOTH",
"71 198 OFFCURVE",
"31 133 OFFCURVE",
"31 0 CURVE"
);
}
);
width = 599;
}
);
unicode = 0032;
userData = {
org.robofab.fontlab.mark = 0;
};
},
{
glyphname = three;
lastChange = "2016-07-18 16:20:58 +0000";
layers = (
{
layerId = "9C43DE69-513E-4B89-A1B3-70D9BFAB8C3B";
paths = (
{
closed = 1;
nodes = (
"378 -147 OFFCURVE",
"466 -68 OFFCURVE",
"466 48 CURVE SMOOTH",
"466 147 OFFCURVE",
"403 223 OFFCURVE",
"308 236 CURVE",
"397 247 OFFCURVE",
"454 310 OFFCURVE",
"454 395 CURVE SMOOTH",
"454 499 OFFCURVE",
"368 576 OFFCURVE",
"254 576 CURVE SMOOTH",
"162 576 OFFCURVE",
"84 526 OFFCURVE",
"57 450 CURVE",
"75 443 LINE",
"101 511 OFFCURVE",
"170 556 OFFCURVE",
"254 556 CURVE SMOOTH",
"357 556 OFFCURVE",
"434 489 OFFCURVE",
"434 390 CURVE SMOOTH",
"434 300 OFFCURVE",
"369 247 OFFCURVE",
"252 247 CURVE SMOOTH",
"229 247 LINE",
"229 227 LINE",
"251 227 LINE SMOOTH",
"372 227 OFFCURVE",
"446 159 OFFCURVE",
"446 51 CURVE SMOOTH",
"446 -57 OFFCURVE",
"371 -127 OFFCURVE",
"256 -127 CURVE SMOOTH",
"163 -127 OFFCURVE",
"88 -81 OFFCURVE",
"65 -12 CURVE",
"46 -19 LINE",
"74 -97 OFFCURVE",
"155 -147 OFFCURVE",
"254 -147 CURVE SMOOTH"
);
}
);
width = 521;
},
{
layerId = "5FCC83B7-30FF-48D6-91DC-2705669CF772";
paths = (
{
closed = 1;
nodes = (
"439 -147 OFFCURVE",
"548 -69 OFFCURVE",
"548 57 CURVE SMOOTH",
"548 149 OFFCURVE",
"490 223 OFFCURVE",
"408 237 CURVE",
"482 251 OFFCURVE",
"537 321 OFFCURVE",
"537 400 CURVE SMOOTH",
"537 506 OFFCURVE",
"438 576 OFFCURVE",
"290 576 CURVE SMOOTH",
"182 576 OFFCURVE",
"76 539 OFFCURVE",
"29 486 CURVE",
"149 345 LINE",
"180 391 OFFCURVE",
"222 415 OFFCURVE",
"268 415 CURVE SMOOTH",
"309 415 OFFCURVE",
"333 396 OFFCURVE",
"333 364 CURVE SMOOTH",
"333 322 OFFCURVE",
"291 295 OFFCURVE",
"227 295 CURVE SMOOTH",
"192 295 LINE",
"192 163 LINE",
"223 163 LINE SMOOTH",
"313 163 OFFCURVE",
"351 142 OFFCURVE",
"351 92 CURVE SMOOTH",
"351 47 OFFCURVE",
"321 27 OFFCURVE",
"253 27 CURVE SMOOTH",
"197 27 OFFCURVE",
"155 41 OFFCURVE",
"117 71 CURVE",
"20 -67 LINE",
"83 -121 OFFCURVE",
"161 -147 OFFCURVE",
"263 -147 CURVE SMOOTH"
);
}
);
width = 581;
}
);
unicode = 0033;
userData = {
org.robofab.fontlab.mark = 0;
};
},
{
glyphname = four;
lastChange = "2016-07-18 14:58:42 +0000";
layers = (
{
layerId = "9C43DE69-513E-4B89-A1B3-70D9BFAB8C3B";
paths = (
{
closed = 1;
nodes = (
"404 -127 LINE",
"404 72 LINE",
"492 72 LINE",
"492 92 LINE",
"404 92 LINE",
"404 571 LINE",
"390 571 LINE",
"19 89 LINE",
"19 72 LINE",
"384 72 LINE",
"384 -127 LINE"
);
},
{
closed = 1;
nodes = (
"384 534 LINE",
"384 92 LINE",
"47 92 LINE"
);
}
);
width = 518;
},
{
layerId = "5FCC83B7-30FF-48D6-91DC-2705669CF772";
paths = (
{
closed = 1;
nodes = (
"462 -127 LINE",
"462 -3 LINE",
"550 -3 LINE",
"550 167 LINE",
"462 167 LINE",
"462 571 LINE",
"332 571 LINE",
"15 167 LINE",
"15 -3 LINE",
"272 -3 LINE",
"272 -127 LINE"
);
},
{
closed = 1;
nodes = (
"294 287 LINE",
"294 167 LINE",
"202 167 LINE"
);
}
);
width = 586;
}
);
unicode = 0034;
userData = {
org.robofab.fontlab.mark = 0;
};
},
{
glyphname = five;
lastChange = "2016-07-18 16:20:58 +0000";
layers = (
{
layerId = "9C43DE69-513E-4B89-A1B3-70D9BFAB8C3B";
paths = (
{
closed = 1;
nodes = (
"388 -149 OFFCURVE",
"498 -57 OFFCURVE",
"498 82 CURVE SMOOTH",
"498 214 OFFCURVE",
"394 306 OFFCURVE",
"268 306 CURVE SMOOTH",
"198 306 OFFCURVE",
"130 278 OFFCURVE",
"82 226 CURVE",
"147 551 LINE",
"467 551 LINE",
"467 571 LINE",
"130 571 LINE",
"130 571 OFFCURVE",
"62 236 OFFCURVE",
"52 188 CURVE",
"76 188 LINE",
"120 251 OFFCURVE",
"193 286 OFFCURVE",
"268 286 CURVE SMOOTH",
"385 286 OFFCURVE",
"478 201 OFFCURVE",
"478 82 CURVE SMOOTH",
"478 -42 OFFCURVE",
"382 -129 OFFCURVE",
"263 -129 CURVE SMOOTH",
"174 -129 OFFCURVE",
"97 -78 OFFCURVE",
"61 -3 CURVE",
"39 -3 LINE",
"78 -90 OFFCURVE",
"163 -149 OFFCURVE",
"263 -149 CURVE SMOOTH"
);
}
);
width = 537;
},
{
layerId = "5FCC83B7-30FF-48D6-91DC-2705669CF772";
paths = (
{
closed = 1;
nodes = (
"424 -149 OFFCURVE",
"536 -49 OFFCURVE",
"536 95 CURVE SMOOTH",
"536 231 OFFCURVE",
"438 326 OFFCURVE",
"300 326 CURVE SMOOTH",
"268 326 OFFCURVE",
"254 321 OFFCURVE",
"254 321 CURVE",
"265 398 LINE",
"484 398 LINE",
"484 571 LINE",
"128 571 LINE",
"44 129 LINE",
"207 129 LINE",
"219 150 OFFCURVE",
"244 164 OFFCURVE",
"272 164 CURVE SMOOTH",
"313 164 OFFCURVE",
"341 135 OFFCURVE",
"341 91 CURVE SMOOTH",
"341 46 OFFCURVE",
"311 17 OFFCURVE",
"262 17 CURVE SMOOTH",
"217 17 OFFCURVE",
"166 42 OFFCURVE",
"128 83 CURVE",
"24 -37 LINE",
"69 -108 OFFCURVE",
"157 -149 OFFCURVE",
"261 -149 CURVE SMOOTH"
);
}
);
width = 562;
}
);
unicode = 0035;
userData = {
org.robofab.fontlab.mark = 0;
};
},
{
glyphname = six;
lastChange = "2016-07-18 16:20:58 +0000";
layers = (
{
layerId = "9C43DE69-513E-4B89-A1B3-70D9BFAB8C3B";
paths = (
{
closed = 1;
nodes = (
"443 -10 OFFCURVE",
"552 98 OFFCURVE",
"552 232 CURVE SMOOTH",
"552 366 OFFCURVE",
"444 475 OFFCURVE",
"310 475 CURVE SMOOTH",
"204 475 OFFCURVE",
"109 407 OFFCURVE",
"78 308 CURVE",
"78 554 OFFCURVE",
"171 695 OFFCURVE",
"309 695 CURVE SMOOTH",
"395 695 OFFCURVE",
"470 641 OFFCURVE",
"495 561 CURVE",
"514 568 LINE",
"485 658 OFFCURVE",
"405 715 OFFCURVE",
"308 715 CURVE SMOOTH",
"160 715 OFFCURVE",
"56 577 OFFCURVE",
"56 266 CURVE SMOOTH",
"56 95 OFFCURVE",
"165 -10 OFFCURVE",
"306 -10 CURVE SMOOTH"
);
},
{
closed = 1;
nodes = (
"185 10 OFFCURVE",
"82 111 OFFCURVE",
"82 232 CURVE SMOOTH",
"82 353 OFFCURVE",
"184 455 OFFCURVE",
"307 455 CURVE SMOOTH",
"429 455 OFFCURVE",
"532 353 OFFCURVE",
"532 231 CURVE SMOOTH",
"532 110 OFFCURVE",
"431 10 OFFCURVE",
"308 10 CURVE SMOOTH"
);
}
);
width = 595;
},
{
layerId = "5FCC83B7-30FF-48D6-91DC-2705669CF772";
paths = (
{
closed = 1;
nodes = (
"458 -10 OFFCURVE",
"572 100 OFFCURVE",
"572 240 CURVE SMOOTH",
"572 373 OFFCURVE",
"465 473 OFFCURVE",
"322 473 CURVE SMOOTH",
"275 473 OFFCURVE",
"240 462 OFFCURVE",
"214 439 CURVE",
"217 510 OFFCURVE",
"257 552 OFFCURVE",
"322 552 CURVE SMOOTH",
"367 552 OFFCURVE",
"411 533 OFFCURVE",
"446 498 CURVE",
"551 620 LINE",
"488 683 OFFCURVE",
"411 716 OFFCURVE",
"325 716 CURVE SMOOTH",
"147 716 OFFCURVE",
"39 574 OFFCURVE",
"39 340 CURVE SMOOTH",
"39 119 OFFCURVE",
"136 -10 OFFCURVE",
"306 -10 CURVE SMOOTH"
);
},
{
closed = 1;
nodes = (
"261 149 OFFCURVE",
"221 191 OFFCURVE",
"221 240 CURVE SMOOTH",
"221 287 OFFCURVE",
"259 324 OFFCURVE",
"306 324 CURVE SMOOTH",
"353 324 OFFCURVE",
"391 287 OFFCURVE",
"391 240 CURVE SMOOTH",
"391 191 OFFCURVE",
"351 149 OFFCURVE",
"306 149 CURVE SMOOTH"
);
}
);
width = 609;
}
);
unicode = 0036;
userData = {
org.robofab.fontlab.mark = 0;
};
},
{
glyphname = seven;
lastChange = "2016-07-18 16:20:58 +0000";
layers = (
{
layerId = "9C43DE69-513E-4B89-A1B3-70D9BFAB8C3B";
paths = (
{
closed = 1;
nodes = (
"146 -127 LINE",
"510 583 LINE",
"50 583 LINE",
"50 563 LINE",
"477 563 LINE",
"123 -127 LINE"
);
}
);
width = 535;
},
{
layerId = "5FCC83B7-30FF-48D6-91DC-2705669CF772";
paths = (
{
closed = 1;
nodes = (
"253 -126 LINE",
"600 584 LINE",
"30 584 LINE",
"30 411 LINE",
"301 411 LINE",
"38 -126 LINE"
);
}
);
width = 593;
}
);
unicode = 0037;
userData = {
org.robofab.fontlab.mark = 0;
};
},
{
glyphname = eight;
lastChange = "2016-07-18 16:20:58 +0000";
layers = (
{
layerId = "9C43DE69-513E-4B89-A1B3-70D9BFAB8C3B";
paths = (
{
closed = 1;
nodes = (
"415 -7 OFFCURVE",
"528 69 OFFCURVE",
"528 188 CURVE SMOOTH",
"528 283 OFFCURVE",
"456 354 OFFCURVE",
"363 381 CURVE",
"437 407 OFFCURVE",
"502 461 OFFCURVE",
"502 541 CURVE SMOOTH",
"502 650 OFFCURVE",
"395 710 OFFCURVE",
"291 710 CURVE SMOOTH",
"187 710 OFFCURVE",
"79 650 OFFCURVE",
"79 541 CURVE SMOOTH",
"79 461 OFFCURVE",
"143 407 OFFCURVE",
"217 381 CURVE",
"136 359 OFFCURVE",
"53 289 OFFCURVE",
"53 190 CURVE SMOOTH",
"53 87 OFFCURVE",
"144 -7 OFFCURVE",
"287 -7 CURVE SMOOTH"
);
},
{
closed = 1;
nodes = (
"192 10 OFFCURVE",
"73 75 OFFCURVE",
"73 189 CURVE SMOOTH",
"73 299 OFFCURVE",
"185 371 OFFCURVE",
"289 371 CURVE SMOOTH",
"389 371 OFFCURVE",
"508 305 OFFCURVE",
"508 191 CURVE SMOOTH",
"508 80 OFFCURVE",
"395 10 OFFCURVE",
"292 10 CURVE SMOOTH"
);
},
{
closed = 1;
nodes = (
"203 391 OFFCURVE",
"99 444 OFFCURVE",
"99 539 CURVE SMOOTH",
"99 634 OFFCURVE",
"192 690 OFFCURVE",
"289 690 CURVE SMOOTH",
"386 690 OFFCURVE",
"482 636 OFFCURVE",
"482 541 CURVE SMOOTH",
"482 446 OFFCURVE",
"378 391 OFFCURVE",
"290 391 CURVE SMOOTH"
);
}
);
width = 581;
},
{
layerId = "5FCC83B7-30FF-48D6-91DC-2705669CF772";
paths = (
{
closed = 1;
nodes = (
"453 -10 OFFCURVE",
"573 82 OFFCURVE",
"573 221 CURVE SMOOTH",
"573 296 OFFCURVE",
"527 349 OFFCURVE",
"487 379 CURVE",
"525 401 OFFCURVE",
"554 455 OFFCURVE",
"554 501 CURVE SMOOTH",
"554 638 OFFCURVE",
"415 710 OFFCURVE",
"305 710 CURVE SMOOTH",
"195 710 OFFCURVE",
"57 636 OFFCURVE",
"57 499 CURVE SMOOTH",
"57 453 OFFCURVE",
"85 402 OFFCURVE",
"123 379 CURVE",
"84 350 OFFCURVE",
"37 298 OFFCURVE",
"37 227 CURVE SMOOTH",
"37 82 OFFCURVE",
"164 -10 OFFCURVE",
"305 -10 CURVE SMOOTH"
);
},
{
closed = 1;
nodes = (
"263 163 OFFCURVE",
"230 193 OFFCURVE",
"230 232 CURVE SMOOTH",
"230 274 OFFCURVE",
"261 301 OFFCURVE",
"305 301 CURVE SMOOTH",
"348 301 OFFCURVE",
"380 276 OFFCURVE",
"380 232 CURVE SMOOTH",
"380 194 OFFCURVE",
"349 163 OFFCURVE",
"305 163 CURVE SMOOTH"
);
},
{
closed = 1;
nodes = (
"278 442 OFFCURVE",
"250 459 OFFCURVE",
"250 495 CURVE SMOOTH",
"250 521 OFFCURVE",
"272 543 OFFCURVE",
"305 543 CURVE SMOOTH",
"338 543 OFFCURVE",
"361 521 OFFCURVE",
"361 495 CURVE SMOOTH",
"361 459 OFFCURVE",
"332 442 OFFCURVE",
"305 442 CURVE SMOOTH"
);
}
);
width = 611;
}
);
unicode = 0038;
userData = {
org.robofab.fontlab.mark = 0;
};
},
{
glyphname = nine;
lastChange = "2016-07-18 16:20:58 +0000";
layers = (
{
layerId = "9C43DE69-513E-4B89-A1B3-70D9BFAB8C3B";
paths = (
{
closed = 1;
nodes = (
"429 -154 OFFCURVE",
"533 -16 OFFCURVE",
"533 295 CURVE SMOOTH",
"533 466 OFFCURVE",
"424 571 OFFCURVE",
"283 571 CURVE SMOOTH",
"146 571 OFFCURVE",
"37 463 OFFCURVE",
"37 329 CURVE SMOOTH",
"37 195 OFFCURVE",
"145 86 OFFCURVE",
"279 86 CURVE SMOOTH",
"385 86 OFFCURVE",
"480 154 OFFCURVE",
"511 253 CURVE",
"511 7 OFFCURVE",
"418 -134 OFFCURVE",
"280 -134 CURVE SMOOTH",
"194 -134 OFFCURVE",
"119 -80 OFFCURVE",
"94 0 CURVE",
"75 -7 LINE",
"104 -97 OFFCURVE",
"184 -154 OFFCURVE",
"281 -154 CURVE SMOOTH"
);
},
{
closed = 1;
nodes = (
"160 106 OFFCURVE",
"57 208 OFFCURVE",
"57 330 CURVE SMOOTH",
"57 451 OFFCURVE",
"158 551 OFFCURVE",
"281 551 CURVE SMOOTH",
"404 551 OFFCURVE",
"507 450 OFFCURVE",
"507 329 CURVE SMOOTH",
"507 208 OFFCURVE",
"405 106 OFFCURVE",
"282 106 CURVE SMOOTH"
);
}
);
width = 579;
},
{
layerId = "5FCC83B7-30FF-48D6-91DC-2705669CF772";
paths = (
{
closed = 1;
nodes = (
"452 -155 OFFCURVE",
"560 -13 OFFCURVE",
"560 221 CURVE SMOOTH",
"560 442 OFFCURVE",
"463 571 OFFCURVE",
"293 571 CURVE SMOOTH",
"141 571 OFFCURVE",
"27 461 OFFCURVE",
"27 321 CURVE SMOOTH",
"27 188 OFFCURVE",
"134 88 OFFCURVE",
"277 88 CURVE SMOOTH",
"324 88 OFFCURVE",
"359 99 OFFCURVE",
"385 122 CURVE",
"382 51 OFFCURVE",
"342 9 OFFCURVE",
"277 9 CURVE SMOOTH",
"232 9 OFFCURVE",
"188 28 OFFCURVE",
"153 63 CURVE",
"48 -59 LINE",
"111 -122 OFFCURVE",
"188 -155 OFFCURVE",
"274 -155 CURVE SMOOTH"
);
},
{
closed = 1;
nodes = (
"246 237 OFFCURVE",
"208 274 OFFCURVE",
"208 321 CURVE SMOOTH",
"208 370 OFFCURVE",
"248 412 OFFCURVE",
"293 412 CURVE SMOOTH",
"338 412 OFFCURVE",
"378 370 OFFCURVE",
"378 321 CURVE SMOOTH",
"378 274 OFFCURVE",
"340 237 OFFCURVE",
"293 237 CURVE SMOOTH"
);
}
);
width = 589;
}
);
unicode = 0039;
userData = {
org.robofab.fontlab.mark = 0;
};
},
{
glyphname = colon;
lastChange = "2016-07-18 14:58:42 +0000";
layers = (
{
layerId = "9C43DE69-513E-4B89-A1B3-70D9BFAB8C3B";
paths = (
{
closed = 1;
nodes = (
"89 453 LINE",
"89 517 LINE",
"69 517 LINE",
"69 453 LINE"
);
},
{
closed = 1;
nodes = (
"89 0 LINE",
"89 64 LINE",
"69 64 LINE",
"69 0 LINE"
);
}
);
width = 158;
},
{
layerId = "5FCC83B7-30FF-48D6-91DC-2705669CF772";
paths = (
{
closed = 1;
nodes = (
"229 335 LINE",
"229 519 LINE",
"75 519 LINE",
"75 335 LINE"
);
},
{
closed = 1;
nodes = (
"229 0 LINE",
"229 184 LINE",
"75 184 LINE",
"75 0 LINE"
);
}
);
width = 304;
}
);
unicode = 003A;
userData = {
org.robofab.fontlab.mark = 0;
};
},
{
glyphname = semicolon;
lastChange = "2016-07-18 14:58:42 +0000";
layers = (
{
layerId = "9C43DE69-513E-4B89-A1B3-70D9BFAB8C3B";
paths = (
{
closed = 1;
nodes = (
"84 -81 LINE",
"97 -10 LINE",
"97 64 LINE",
"71 64 LINE",
"71 -10 LINE",
"80 -10 LINE",
"70 -81 LINE"
);
},
{
closed = 1;
nodes = (
"93 453 LINE",
"93 517 LINE",
"73 517 LINE",
"73 453 LINE"
);
}
);
width = 168;
},
{
layerId = "5FCC83B7-30FF-48D6-91DC-2705669CF772";
paths = (
{
closed = 1;
nodes = (
"177 -157 LINE",
"231 0 LINE",
"231 184 LINE",
"74 184 LINE",
"74 0 LINE",
"131 0 LINE",
"95 -157 LINE"
);
},
{
closed = 1;
nodes = (
"230 335 LINE",
"230 519 LINE",
"76 519 LINE",
"76 335 LINE"
);
}
);
width = 305;
}
);
unicode = 003B;
userData = {
org.robofab.fontlab.mark = 0;
};
},
{
glyphname = less;
lastChange = "2016-07-18 16:20:58 +0000";
layers = (
{
layerId = "9C43DE69-513E-4B89-A1B3-70D9BFAB8C3B";
paths = (
{
closed = 1;
nodes = (
"451 22 LINE",
"63 259 LINE",
"451 495 LINE",
"451 517 LINE",
"34 268 LINE",
"34 250 LINE",
"451 0 LINE"
);
}
);
width = 502;
},
{
layerId = "5FCC83B7-30FF-48D6-91DC-2705669CF772";
paths = (
{
closed = 1;
nodes = (
"455 172 LINE",
"307 259 LINE",
"455 354 LINE",
"455 556 LINE",
"31 298 LINE",
"31 210 LINE",
"455 -40 LINE"
);
}
);
width = 521;
}
);
unicode = 003C;
userData = {
org.robofab.fontlab.mark = 0;
};
},
{
glyphname = equal;
lastChange = "2016-07-18 14:58:42 +0000";
layers = (
{
layerId = "9C43DE69-513E-4B89-A1B3-70D9BFAB8C3B";
paths = (
{
closed = 1;
nodes = (
"364 301 LINE",
"364 321 LINE",
"71 321 LINE",
"71 301 LINE"
);
},
{
closed = 1;
nodes = (
"364 231 LINE",
"364 251 LINE",
"71 251 LINE",
"71 231 LINE"
);
}
);
width = 435;
},
{
layerId = "5FCC83B7-30FF-48D6-91DC-2705669CF772";
paths = (
{
closed = 1;
nodes = (
"378 331 LINE",
"378 451 LINE",
"55 451 LINE",
"55 331 LINE"
);
},
{
closed = 1;
nodes = (
"378 101 LINE",
"378 221 LINE",
"55 221 LINE",
"55 101 LINE"
);
}
);
width = 433;
}
);
unicode = 003D;
userData = {
org.robofab.fontlab.mark = 0;
};
},
{
glyphname = greater;
lastChange = "2016-07-18 16:20:58 +0000";
layers = (
{
layerId = "9C43DE69-513E-4B89-A1B3-70D9BFAB8C3B";
paths = (
{
closed = 1;
nodes = (
"468 250 LINE",
"468 268 LINE",
"51 517 LINE",
"51 495 LINE",
"439 259 LINE",
"51 22 LINE",
"51 0 LINE"
);
}
);
width = 502;
},
{
layerId = "5FCC83B7-30FF-48D6-91DC-2705669CF772";
paths = (
{
closed = 1;
nodes = (
"490 210 LINE",
"490 298 LINE",
"66 556 LINE",
"66 354 LINE",
"214 259 LINE",
"66 172 LINE",
"66 -40 LINE"
);
}
);
width = 521;
}
);
unicode = 003E;
userData = {
org.robofab.fontlab.mark = 0;
};
},
{
glyphname = question;
lastChange = "2016-07-18 14:58:42 +0000";
layers = (
{
layerId = "9C43DE69-513E-4B89-A1B3-70D9BFAB8C3B";
paths = (
{
closed = 1;
nodes = (
"198 179 LINE",
"198 297 OFFCURVE",
"229 324 OFFCURVE",
"272 347 CURVE SMOOTH",
"343 386 OFFCURVE",
"430 411 OFFCURVE",
"430 532 CURVE SMOOTH",
"430 655 OFFCURVE",
"340 719 OFFCURVE",
"243 719 CURVE SMOOTH",
"160 719 OFFCURVE",
"72 673 OFFCURVE",
"35 590 CURVE",
"53 582 LINE",
"87 654 OFFCURVE",
"164 699 OFFCURVE",
"244 699 CURVE SMOOTH",
"328 699 OFFCURVE",
"410 649 OFFCURVE",
"410 535 CURVE SMOOTH",
"410 420 OFFCURVE",
"327 399 OFFCURVE",
"264 366 CURVE SMOOTH",
"215 341 OFFCURVE",
"178 307 OFFCURVE",
"178 179 CURVE"
);
},
{
closed = 1;
nodes = (
"198 0 LINE",
"198 84 LINE",
"178 84 LINE",
"178 0 LINE"
);
}
);
width = 468;
},
{
layerId = "5FCC83B7-30FF-48D6-91DC-2705669CF772";
paths = (
{
closed = 1;
nodes = (
"250 259 LINE",
"250 303 OFFCURVE",
"324 318 OFFCURVE",
"382 358 CURVE SMOOTH",
"441 398 OFFCURVE",
"462 451 OFFCURVE",
"462 515 CURVE SMOOTH",
"462 665 OFFCURVE",
"346 719 OFFCURVE",
"244 719 CURVE SMOOTH",
"148 719 OFFCURVE",
"68 671 OFFCURVE",
"34 590 CURVE",
"155 504 LINE",
"170 523 OFFCURVE",
"189 566 OFFCURVE",
"237 566 CURVE SMOOTH",
"269 566 OFFCURVE",
"297 546 OFFCURVE",
"297 516 CURVE SMOOTH",
"297 461 OFFCURVE",
"204 422 OFFCURVE",
"174 406 CURVE SMOOTH",
"101 368 OFFCURVE",
"95 316 OFFCURVE",
"95 259 CURVE"
);
},
{
closed = 1;
nodes = (
"253 0 LINE",
"253 164 LINE",
"98 164 LINE",
"98 0 LINE"
);
}
);
width = 495;
}
);
unicode = 003F;
userData = {
org.robofab.fontlab.mark = 0;
};
},
{
glyphname = at;
lastChange = "2016-07-18 16:20:58 +0000";
layers = (
{
layerId = "9C43DE69-513E-4B89-A1B3-70D9BFAB8C3B";
paths = (
{
closed = 1;
nodes = (
"467 -146 OFFCURVE",
"522 -133 OFFCURVE",
"574 -106 CURVE",
"564 -88 LINE",
"516 -114 OFFCURVE",
"464 -126 OFFCURVE",
"412 -126 CURVE SMOOTH",
"224 -126 OFFCURVE",
"70 32 OFFCURVE",
"70 230 CURVE SMOOTH",
"70 435 OFFCURVE",
"235 583 OFFCURVE",
"413 583 CURVE SMOOTH",
"598 583 OFFCURVE",
"749 422 OFFCURVE",
"749 223 CURVE SMOOTH",
"749 139 OFFCURVE",
"722 4 OFFCURVE",
"630 4 CURVE SMOOTH",
"585 4 OFFCURVE",
"577 36 OFFCURVE",
"577 95 CURVE SMOOTH",
"577 248 LINE SMOOTH",
"577 347 OFFCURVE",
"558 449 OFFCURVE",
"427 449 CURVE SMOOTH",
"368 449 OFFCURVE",
"316 428 OFFCURVE",
"270 397 CURVE",
"282 381 LINE",
"325 411 OFFCURVE",
"376 429 OFFCURVE",
"426 429 CURVE SMOOTH",
"530 429 OFFCURVE",
"558 352 OFFCURVE",
"558 242 CURVE",
"535 250 OFFCURVE",
"482 265 OFFCURVE",
"422 265 CURVE SMOOTH",
"336 265 OFFCURVE",
"241 235 OFFCURVE",
"241 140 CURVE SMOOTH",
"241 65 OFFCURVE",
"299 12 OFFCURVE",
"387 12 CURVE SMOOTH",
"456 12 OFFCURVE",
"520 45 OFFCURVE",
"554 84 CURVE",
"559 28 OFFCURVE",
"566 -16 OFFCURVE",
"629 -16 CURVE SMOOTH",
"757 -16 OFFCURVE",
"769 164 OFFCURVE",
"769 222 CURVE SMOOTH",
"769 433 OFFCURVE",
"610 603 OFFCURVE",
"413 603 CURVE SMOOTH",
"225 603 OFFCURVE",
"50 448 OFFCURVE",
"50 230 CURVE SMOOTH",
"50 19 OFFCURVE",
"214 -146 OFFCURVE",
"412 -146 CURVE SMOOTH"
);
},
{
closed = 1;
nodes = (
"321 32 OFFCURVE",
"261 70 OFFCURVE",
"261 140 CURVE SMOOTH",
"261 221 OFFCURVE",
"341 245 OFFCURVE",
"417 245 CURVE SMOOTH",
"492 245 OFFCURVE",
"542 221 OFFCURVE",
"557 221 CURVE",
"557 174 LINE SMOOTH",
"557 133 OFFCURVE",
"550 86 OFFCURVE",
"484 55 CURVE SMOOTH",
"459 43 OFFCURVE",
"422 32 OFFCURVE",
"387 32 CURVE SMOOTH"
);
}
);
width = 830;
},
{
layerId = "5FCC83B7-30FF-48D6-91DC-2705669CF772";
paths = (
{
closed = 1;
nodes = (
"460 -146 OFFCURVE",
"524 -133 OFFCURVE",
"581 -106 CURVE",
"561 -38 LINE",
"511 -57 OFFCURVE",
"472 -76 OFFCURVE",
"403 -76 CURVE SMOOTH",
"217 -76 OFFCURVE",
"111 61 OFFCURVE",
"111 229 CURVE SMOOTH",
"111 405 OFFCURVE",
"226 533 OFFCURVE",
"419 533 CURVE SMOOTH",
"613 533 OFFCURVE",
"734 404 OFFCURVE",
"734 225 CURVE SMOOTH",
"734 182 OFFCURVE",
"727 64 OFFCURVE",
"664 64 CURVE SMOOTH",
"617 64 OFFCURVE",
"615 129 OFFCURVE",
"615 188 CURVE SMOOTH",
"615 255 LINE SMOOTH",
"615 342 OFFCURVE",
"611 468 OFFCURVE",
"418 468 CURVE SMOOTH",
"352 468 OFFCURVE",
"291 453 OFFCURVE",
"240 419 CURVE",
"272 322 LINE",
"299 347 OFFCURVE",
"343 363 OFFCURVE",
"399 363 CURVE SMOOTH",
"483 363 OFFCURVE",
"505 326 OFFCURVE",
"505 272 CURVE",
"487 281 OFFCURVE",
"453 292 OFFCURVE",
"403 292 CURVE SMOOTH",
"310 292 OFFCURVE",
"217 254 OFFCURVE",
"217 138 CURVE SMOOTH",
"217 51 OFFCURVE",
"270 -6 OFFCURVE",
"372 -6 CURVE SMOOTH",
"434 -6 OFFCURVE",
"496 15 OFFCURVE",
"541 57 CURVE",
"546 27 OFFCURVE",
"570 -16 OFFCURVE",
"645 -16 CURVE SMOOTH",
"799 -16 OFFCURVE",
"807 166 OFFCURVE",
"807 221 CURVE SMOOTH",
"807 487 OFFCURVE",
"621 603 OFFCURVE",
"425 603 CURVE SMOOTH",
"220 603 OFFCURVE",
"37 476 OFFCURVE",
"37 231 CURVE SMOOTH",
"37 0 OFFCURVE",
"200 -146 OFFCURVE",
"400 -146 CURVE SMOOTH"
);
},
{
closed = 1;
nodes = (
"344 83 OFFCURVE",
"326 101 OFFCURVE",
"326 139 CURVE SMOOTH",
"326 185 OFFCURVE",
"350 208 OFFCURVE",
"405 208 CURVE SMOOTH",
"443 208 OFFCURVE",
"484 197 OFFCURVE",
"504 189 CURVE",
"504 148 LINE SMOOTH",
"504 126 OFFCURVE",
"482 109 OFFCURVE",
"465 100 CURVE SMOOTH",
"439 86 OFFCURVE",
"403 83 OFFCURVE",
"385 83 CURVE SMOOTH"
);
}
);
width = 852;
}
);
unicode = 0040;
userData = {
org.robofab.fontlab.mark = 0;
};
},
{
glyphname = A;
lastChange = "2016-07-18 16:20:58 +0000";
layers = (
{
anchors = (
{
name = bottom;
position = "{641, 8}";
},
{
name = top;
position = "{337, 707}";
}
);
layerId = "9C43DE69-513E-4B89-A1B3-70D9BFAB8C3B";
paths = (
{
closed = 1;
nodes = (
"40 0 LINE",
"151 254 LINE",
"522 254 LINE",
"633 0 LINE",
"655 0 LINE",
"346 710 LINE",
"328 710 LINE",
"18 0 LINE"
);
},
{
closed = 1;
nodes = (
"337 681 LINE",
"513 274 LINE",
"159 274 LINE"
);
}
);
width = 674;
},
{
anchors = (
{
name = bottom;
position = "{571, 0}";
},
{
name = top;
position = "{334, 710}";
}
);
layerId = "5FCC83B7-30FF-48D6-91DC-2705669CF772";
paths = (
{
closed = 1;
nodes = (
"197 0 LINE",
"239 139 LINE",
"428 139 LINE",
"471 0 LINE",
"669 0 LINE",
"423 710 LINE",
"245 710 LINE",
"-2 0 LINE"
);
},
{
closed = 1;
nodes = (
"334 489 LINE",
"397 269 LINE",
"268 269 LINE"
);
}
);
width = 667;
}
);
unicode = 0041;
userData = {
org.robofab.fontlab.mark = 0;
};
},
{
glyphname = B;
lastChange = "2016-07-18 16:20:58 +0000";
layers = (
{
layerId = "9C43DE69-513E-4B89-A1B3-70D9BFAB8C3B";
paths = (
{
closed = 1;
nodes = (
"428 0 LINE SMOOTH",
"525 0 OFFCURVE",
"605 86 OFFCURVE",
"605 184 CURVE SMOOTH",
"605 265 OFFCURVE",
"554 340 OFFCURVE",
"473 364 CURVE",
"535 392 OFFCURVE",
"575 457 OFFCURVE",
"575 529 CURVE SMOOTH",
"575 618 OFFCURVE",
"513 710 OFFCURVE",
"413 710 CURVE SMOOTH",
"99 710 LINE",
"99 0 LINE"
);
},
{
closed = 1;
nodes = (
"119 348 LINE",
"435 348 LINE SMOOTH",
"521 348 OFFCURVE",
"585 269 OFFCURVE",
"585 184 CURVE SMOOTH",
"585 102 OFFCURVE",
"516 20 OFFCURVE",
"428 20 CURVE SMOOTH",
"119 20 LINE"
);
},
{
closed = 1;
nodes = (
"119 690 LINE",
"413 690 LINE SMOOTH",
"497 690 OFFCURVE",
"555 614 OFFCURVE",
"555 529 CURVE SMOOTH",
"555 450 OFFCURVE",
"494 368 OFFCURVE",
"407 368 CURVE SMOOTH",
"119 368 LINE"
);
}
);
width = 655;
},
{
layerId = "5FCC83B7-30FF-48D6-91DC-2705669CF772";
paths = (
{
closed = 1;
nodes = (
"410 0 LINE SMOOTH",
"550 0 OFFCURVE",
"665 54 OFFCURVE",
"665 182 CURVE SMOOTH",
"665 281 OFFCURVE",
"614 340 OFFCURVE",
"533 364 CURVE",
"601 394 OFFCURVE",
"635 462 OFFCURVE",
"635 528 CURVE SMOOTH",
"635 618 OFFCURVE",
"573 710 OFFCURVE",
"473 710 CURVE SMOOTH",
"61 710 LINE",
"61 0 LINE"
);
},
{
closed = 1;
nodes = (
"256 283 LINE",
"417 283 LINE SMOOTH",
"446 283 OFFCURVE",
"467 257 OFFCURVE",
"467 222 CURVE SMOOTH",
"467 185 OFFCURVE",
"442 164 OFFCURVE",
"410 164 CURVE SMOOTH",
"256 164 LINE"
);
},
{
closed = 1;
nodes = (
"256 544 LINE",
"395 544 LINE SMOOTH",
"420 544 OFFCURVE",
"442 529 OFFCURVE",
"442 490 CURVE SMOOTH",
"442 446 OFFCURVE",
"415 435 OFFCURVE",
"389 435 CURVE SMOOTH",
"256 435 LINE"
);
}
);
width = 690;
}
);
unicode = 0042;
userData = {
org.robofab.fontlab.mark = 0;
};
},
{
glyphname = C;
lastChange = "2016-07-18 16:20:58 +0000";
layers = (
{
anchors = (
{
name = bottom;
position = "{380, 0}";
},
{
name = top;
position = "{381, 707}";
}
);
layerId = "9C43DE69-513E-4B89-A1B3-70D9BFAB8C3B";
paths = (
{
closed = 1;
nodes = (
"486 -6 OFFCURVE",
"610 52 OFFCURVE",
"659 159 CURVE",
"640 164 LINE",
"585 60 OFFCURVE",
"476 14 OFFCURVE",
"382 14 CURVE SMOOTH",
"207 14 OFFCURVE",
"68 176 OFFCURVE",
"68 357 CURVE SMOOTH",
"68 521 OFFCURVE",
"181 694 OFFCURVE",
"379 694 CURVE SMOOTH",
"470 694 OFFCURVE",
"568 657 OFFCURVE",
"623 553 CURVE",
"642 559 LINE",
"599 649 OFFCURVE",
"509 714 OFFCURVE",
"383 714 CURVE SMOOTH",
"170 714 OFFCURVE",
"48 530 OFFCURVE",
"48 360 CURVE SMOOTH",
"48 180 OFFCURVE",
"185 -6 OFFCURVE",
"378 -6 CURVE SMOOTH"
);
}
);
width = 697;
},
{
anchors = (
{
name = bottom;
position = "{379, 0}";
},
{
name = top;
position = "{385, 710}";
}
);
layerId = "5FCC83B7-30FF-48D6-91DC-2705669CF772";
paths = (
{
closed = 1;
nodes = (
"500 -6 OFFCURVE",
"641 54 OFFCURVE",
"683 159 CURVE",
"524 254 LINE",
"500 190 OFFCURVE",
"436 167 OFFCURVE",
"383 167 CURVE SMOOTH",
"281 167 OFFCURVE",
"220 256 OFFCURVE",
"220 355 CURVE SMOOTH",
"220 444 OFFCURVE",
"269 541 OFFCURVE",
"381 541 CURVE SMOOTH",
"434 541 OFFCURVE",
"500 522 OFFCURVE",
"527 453 CURVE",
"676 559 LINE",
"627 652 OFFCURVE",
"521 714 OFFCURVE",
"385 714 CURVE SMOOTH",
"157 714 OFFCURVE",
"22 534 OFFCURVE",
"22 361 CURVE SMOOTH",
"22 179 OFFCURVE",
"169 -6 OFFCURVE",
"379 -6 CURVE SMOOTH"
);
}
);
width = 691;
}
);
unicode = 0043;
userData = {
org.robofab.fontlab.mark = 0;
};
},
{
glyphname = D;
lastChange = "2016-07-18 16:20:58 +0000";
layers = (
{
anchors = (
{
name = top;
position = "{353, 707}";
}
);
layerId = "9C43DE69-513E-4B89-A1B3-70D9BFAB8C3B";
paths = (
{
closed = 1;
nodes = (
"327 0 LINE SMOOTH",
"531 0 OFFCURVE",
"660 141 OFFCURVE",
"660 356 CURVE SMOOTH",
"660 552 OFFCURVE",
"550 710 OFFCURVE",
"327 710 CURVE SMOOTH",
"99 710 LINE",
"99 0 LINE"
);
},
{
closed = 1;
nodes = (
"119 690 LINE",
"327 690 LINE SMOOTH",
"528 690 OFFCURVE",
"640 550 OFFCURVE",
"640 356 CURVE SMOOTH",
"640 165 OFFCURVE",
"533 20 OFFCURVE",
"327 20 CURVE SMOOTH",
"119 20 LINE"
);
}
);
width = 711;
},
{
anchors = (
{
name = top;
position = "{317, 710}";
}
);
layerId = "5FCC83B7-30FF-48D6-91DC-2705669CF772";
paths = (
{
closed = 1;
nodes = (
"334 0 LINE SMOOTH",
"550 0 OFFCURVE",
"692 141 OFFCURVE",
"692 356 CURVE SMOOTH",
"692 552 OFFCURVE",
"570 710 OFFCURVE",
"334 710 CURVE SMOOTH",
"61 710 LINE",
"61 0 LINE"
);
},
{
closed = 1;
nodes = (
"256 540 LINE",
"334 540 LINE SMOOTH",
"434 540 OFFCURVE",
"494 466 OFFCURVE",
"494 356 CURVE SMOOTH",
"494 249 OFFCURVE",
"436 170 OFFCURVE",
"334 170 CURVE SMOOTH",
"256 170 LINE"
);
}
);
width = 716;
}
);
unicode = 0044;
userData = {
org.robofab.fontlab.mark = 0;
};
},
{
glyphname = E;
lastChange = "2016-07-18 16:20:58 +0000";
layers = (
{
anchors = (
{
name = bottom;
position = "{344, 0}";
},
{
name = top;
position = "{344, 707}";
}
);
layerId = "9C43DE69-513E-4B89-A1B3-70D9BFAB8C3B";
paths = (
{
closed = 1;
nodes = (
"565 0 LINE",
"565 20 LINE",
"119 20 LINE",
"119 353 LINE",
"502 353 LINE",
"502 373 LINE",
"119 373 LINE",
"119 690 LINE",
"556 690 LINE",
"556 710 LINE",
"99 710 LINE",
"99 0 LINE"
);
}
);
width = 617;
},
{
anchors = (
{
name = bottom;
position = "{316, 0}";
},
{
name = top;
position = "{316, 710}";
}
);
layerId = "5FCC83B7-30FF-48D6-91DC-2705669CF772";
paths = (
{
closed = 1;
nodes = (
"567 0 LINE",
"567 170 LINE",
"256 170 LINE",
"256 282 LINE",
"514 282 LINE",
"514 440 LINE",
"256 440 LINE",
"256 540 LINE",
"558 540 LINE",
"558 710 LINE",
"61 710 LINE",
"61 0 LINE"
);
}
);
width = 597;
}
);
unicode = 0045;
userData = {
org.robofab.fontlab.mark = 0;
};
},
{
glyphname = F;
lastChange = "2016-07-18 14:58:42 +0000";
layers = (
{
layerId = "9C43DE69-513E-4B89-A1B3-70D9BFAB8C3B";
paths = (
{
closed = 1;
nodes = (
"119 0 LINE",
"119 354 LINE",
"492 354 LINE",
"492 374 LINE",
"119 374 LINE",
"119 690 LINE",
"556 690 LINE",
"556 710 LINE",
"99 710 LINE",
"99 0 LINE"
);
}
);
width = 602;
},
{
layerId = "5FCC83B7-30FF-48D6-91DC-2705669CF772";
paths = (
{
closed = 1;
nodes = (
"256 0 LINE",
"256 264 LINE",
"494 264 LINE",
"494 422 LINE",
"256 422 LINE",
"256 540 LINE",
"548 540 LINE",
"548 710 LINE",
"61 710 LINE",
"61 0 LINE"
);
}
);
width = 563;
}
);
unicode = 0046;
userData = {
org.robofab.fontlab.mark = 0;
};
},
{
glyphname = G;
lastChange = "2016-07-18 16:20:58 +0000";
layers = (
{
anchors = (
{
name = bottom;
position = "{382, 0}";
},
{
name = top;
position = "{370, 707}";
}
);
layerId = "9C43DE69-513E-4B89-A1B3-70D9BFAB8C3B";
paths = (
{
closed = 1;
nodes = (
"485 -5 OFFCURVE",
"575 42 OFFCURVE",
"651 136 CURVE",
"651 164 LINE",
"568 60 OFFCURVE",
"481 15 OFFCURVE",
"383 15 CURVE SMOOTH",
"208 15 OFFCURVE",
"68 177 OFFCURVE",
"68 355 CURVE SMOOTH",
"68 522 OFFCURVE",
"184 695 OFFCURVE",
"371 695 CURVE SMOOTH",
"481 695 OFFCURVE",
"569 654 OFFCURVE",
"623 554 CURVE",
"642 560 LINE",
"597 650 OFFCURVE",
"518 715 OFFCURVE",
"371 715 CURVE SMOOTH",
"182 715 OFFCURVE",
"48 540 OFFCURVE",
"48 355 CURVE SMOOTH",
"48 180 OFFCURVE",
"186 -5 OFFCURVE",
"383 -5 CURVE SMOOTH"
);
},
{
closed = 1;
nodes = (
"659 0 LINE",
"659 338 LINE",
"472 338 LINE",
"472 318 LINE",
"639 318 LINE",
"639 0 LINE"
);
}
);
width = 720;
},
{
anchors = (
{
name = bottom;
position = "{368, 0}";
},
{
name = top;
position = "{387, 710}";
}
);
layerId = "5FCC83B7-30FF-48D6-91DC-2705669CF772";
paths = (
{
closed = 1;
nodes = (
"440 -5 OFFCURVE",
"498 18 OFFCURVE",
"553 68 CURVE",
"553 258 LINE",
"506 200 OFFCURVE",
"448 168 OFFCURVE",
"385 168 CURVE SMOOTH",
"287 168 OFFCURVE",
"221 243 OFFCURVE",
"221 354 CURVE SMOOTH",
"221 464 OFFCURVE",
"287 542 OFFCURVE",
"380 542 CURVE SMOOTH",
"442 542 OFFCURVE",
"504 505 OFFCURVE",
"532 449 CURVE",
"677 560 LINE",
"626 656 OFFCURVE",
"515 715 OFFCURVE",
"387 715 CURVE SMOOTH",
"182 715 OFFCURVE",
"23 560 OFFCURVE",
"23 361 CURVE SMOOTH",
"23 130 OFFCURVE",
"183 -5 OFFCURVE",
"368 -5 CURVE SMOOTH"
);
},
{
closed = 1;
nodes = (
"704 0 LINE",
"704 378 LINE",
"412 378 LINE",
"412 238 LINE",
"543 238 LINE",
"543 0 LINE"
);
}
);
width = 739;
}
);
unicode = 0047;
userData = {
org.robofab.fontlab.mark = 0;
};
},
{
glyphname = H;
lastChange = "2016-07-18 16:20:58 +0000";
layers = (
{
anchors = (
{
name = top;
position = "{367, 707}";
}
);
layerId = "9C43DE69-513E-4B89-A1B3-70D9BFAB8C3B";
paths = (
{
closed = 1;
nodes = (
"119 0 LINE",
"119 353 LINE",
"612 353 LINE",
"612 0 LINE",
"632 0 LINE",
"632 710 LINE",
"612 710 LINE",
"612 373 LINE",
"119 373 LINE",
"119 710 LINE",
"99 710 LINE",
"99 0 LINE"
);
}
);
width = 731;
},
{
anchors = (
{
name = top;
position = "{378, 709}";
}
);
layerId = "5FCC83B7-30FF-48D6-91DC-2705669CF772";
paths = (
{
closed = 1;
nodes = (
"256 0 LINE",
"256 278 LINE",
"494 278 LINE",
"494 0 LINE",
"689 0 LINE",
"689 710 LINE",
"494 710 LINE",
"494 448 LINE",
"256 448 LINE",
"256 710 LINE",
"61 710 LINE",
"61 0 LINE"
);
}
);
width = 750;
}
);
unicode = 0048;
userData = {
org.robofab.fontlab.mark = 0;
};
},
{
glyphname = I;
lastChange = "2016-07-18 14:58:42 +0000";
layers = (
{
anchors = (
{
name = bottom;
position = "{110, 0}";
},
{
name = top;
position = "{109, 707}";
}
);
layerId = "9C43DE69-513E-4B89-A1B3-70D9BFAB8C3B";
paths = (
{
closed = 1;
nodes = (
"119 0 LINE",
"119 710 LINE",
"99 710 LINE",
"99 0 LINE"
);
}
);
width = 218;
},
{
anchors = (
{
name = bottom;
position = "{158, 0}";
},
{
name = top;
position = "{158, 710}";
}
);
layerId = "5FCC83B7-30FF-48D6-91DC-2705669CF772";
paths = (
{
closed = 1;
nodes = (
"256 0 LINE",
"256 710 LINE",
"61 710 LINE",
"61 0 LINE"
);
}
);
width = 317;
}
);
unicode = 0049;
userData = {
org.robofab.fontlab.mark = 0;
};
},
{
glyphname = J;
lastChange = "2016-07-18 16:20:58 +0000";
layers = (
{
anchors = (
{
name = top;
position = "{373, 707}";
}
);
layerId = "9C43DE69-513E-4B89-A1B3-70D9BFAB8C3B";
paths = (
{
closed = 1;
nodes = (
"360 -11 OFFCURVE",
"383 133 OFFCURVE",
"383 349 CURVE SMOOTH",
"383 710 LINE",
"363 710 LINE",
"363 349 LINE SMOOTH",
"363 137 OFFCURVE",
"343 9 OFFCURVE",
"173 9 CURVE SMOOTH",
"116 9 OFFCURVE",
"68 23 OFFCURVE",
"30 49 CURVE",
"19 33 LINE",
"61 4 OFFCURVE",
"112 -11 OFFCURVE",
"173 -11 CURVE SMOOTH"
);
}
);
width = 473;
},
{
anchors = (
{
name = top;
position = "{350, 710}";
}
);
layerId = "5FCC83B7-30FF-48D6-91DC-2705669CF772";
paths = (
{
closed = 1;
nodes = (
"413 -11 OFFCURVE",
"445 133 OFFCURVE",
"445 349 CURVE SMOOTH",
"445 710 LINE",
"250 710 LINE",
"250 349 LINE SMOOTH",
"250 214 OFFCURVE",
"238 162 OFFCURVE",
"155 162 CURVE SMOOTH",
"98 162 OFFCURVE",
"50 186 OFFCURVE",
"42 192 CURVE",
"1 33 LINE",
"43 4 OFFCURVE",
"94 -11 OFFCURVE",
"155 -11 CURVE SMOOTH"
);
}
);
width = 498;
}
);
unicode = 004A;
userData = {
org.robofab.fontlab.mark = 0;
};
},
{
glyphname = K;
lastChange = "2016-07-18 14:58:42 +0000";
layers = (
{
anchors = (
{
name = bottom;
position = "{314, 0}";
}
);
layerId = "9C43DE69-513E-4B89-A1B3-70D9BFAB8C3B";
paths = (
{
closed = 1;
nodes = (
"119 0 LINE",
"119 221 LINE",
"282 386 LINE",
"588 0 LINE",
"614 0 LINE",
"297 400 LINE",
"600 710 LINE",
"571 710 LINE",
"119 249 LINE",
"119 710 LINE",
"99 710 LINE",
"99 0 LINE"
);
}
);
width = 621;
},
{
anchors = (
{
name = bottom;
position = "{370, 0}";
}
);
layerId = "5FCC83B7-30FF-48D6-91DC-2705669CF772";
paths = (
{
closed = 1;
nodes = (
"256 0 LINE",
"256 205 LINE",
"310 261 LINE",
"486 0 LINE",
"710 0 LINE",
"434 392 LINE",
"692 710 LINE",
"472 710 LINE",
"256 440 LINE",
"256 710 LINE",
"61 710 LINE",
"61 0 LINE"
);
}
);
width = 690;
}
);
unicode = 004B;
userData = {
org.robofab.fontlab.mark = 0;
};
},
{
glyphname = L;
lastChange = "2016-07-18 14:58:42 +0000";
layers = (
{
anchors = (
{
name = bottom;
position = "{331, 0}";
},
{
name = top;
position = "{331, 707}";
}
);
layerId = "9C43DE69-513E-4B89-A1B3-70D9BFAB8C3B";
paths = (
{
closed = 1;
nodes = (
"565 0 LINE",
"565 20 LINE",
"119 20 LINE",
"119 710 LINE",
"99 710 LINE",
"99 0 LINE"
);
}
);
width = 579;
},
{
anchors = (
{
name = bottom;
position = "{337, 0}";
},
{
name = top;
position = "{371, 710}";
}
);
layerId = "5FCC83B7-30FF-48D6-91DC-2705669CF772";
paths = (
{
closed = 1;
nodes = (
"578 0 LINE",
"578 170 LINE",
"256 170 LINE",
"256 710 LINE",
"61 710 LINE",
"61 0 LINE"
);
}
);
width = 585;
}
);
unicode = 004C;
userData = {
org.robofab.fontlab.mark = 0;
};
},
{
glyphname = M;
lastChange = "2016-08-06 09:52:15 +0000";
layers = (
{
layerId = "9C43DE69-513E-4B89-A1B3-70D9BFAB8C3B";
paths = (
{
closed = 1;
nodes = (
"119 0 LINE",
"119 666 LINE",
"434 140 LINE",
"450 140 LINE",
"765 666 LINE",
"765 0 LINE",
"785 0 LINE",
"785 710 LINE",
"769 710 LINE",
"442 164 LINE",
"115 710 LINE",
"99 710 LINE",
"99 0 LINE"
);
}
);
width = 884;
},
{
layerId = "5FCC83B7-30FF-48D6-91DC-2705669CF772";
paths = (
{
closed = 1;
nodes = (
"504 167 LINE",
"608 399 LINE",
"608 0 LINE",
"793 0 LINE",
"793 710 LINE",
"581 710 LINE",
"427 376 LINE",
"274 710 LINE",
"61 710 LINE",
"61 0 LINE",
"246 0 LINE",
"246 399 LINE",
"350 167 LINE"
);
}
);
width = 854;
},
{
associatedMasterId = "5FCC83B7-30FF-48D6-91DC-2705669CF772";
layerId = "22598316-033F-4DE8-9C29-5476D0E98013";
name = old;
paths = (
{
closed = 1;
nodes = (
"256 0 LINE",
"256 374 LINE",
"375 111 LINE",
"479 111 LINE",
"598 374 LINE",
"598 0 LINE",
"793 0 LINE",
"793 710 LINE",
"581 710 LINE",
"427 376 LINE",
"274 710 LINE",
"61 710 LINE",
"61 0 LINE"
);
}
);
width = 854;
visible = 1;
}
);
unicode = 004D;
userData = {
org.robofab.fontlab.mark = 0;
};
},
{
glyphname = N;
lastChange = "2016-07-18 16:20:58 +0000";
layers = (
{
anchors = (
{
name = bottom;
position = "{394, 0}";
},
{
name = top;
position = "{393, 707}";
}
);
layerId = "9C43DE69-513E-4B89-A1B3-70D9BFAB8C3B";
paths = (
{
closed = 1;
nodes = (
"119 0 LINE",
"119 671 LINE",
"654 0 LINE",
"677 0 LINE",
"677 710 LINE",
"657 710 LINE",
"657 29 LINE",
"114 710 LINE",
"99 710 LINE",
"99 0 LINE"
);
}
);
width = 776;
},
{
anchors = (
{
name = bottom;
position = "{374, 0}";
},
{
name = top;
position = "{374, 709}";
}
);
layerId = "5FCC83B7-30FF-48D6-91DC-2705669CF772";
paths = (
{
closed = 1;
nodes = (
"256 0 LINE",
"256 349 LINE",
"538 0 LINE",
"693 0 LINE",
"693 710 LINE",
"498 710 LINE",
"498 349 LINE",
"213 710 LINE",
"61 710 LINE",
"61 0 LINE"
);
}
);
width = 754;
}
);
unicode = 004E;
userData = {
org.robofab.fontlab.mark = 0;
};
},
{
glyphname = O;
lastChange = "2016-07-18 16:20:58 +0000";
layers = (
{
anchors = (
{
name = bottom;
position = "{379, 0}";
},
{
name = top;
position = "{379, 707}";
}
);
layerId = "9C43DE69-513E-4B89-A1B3-70D9BFAB8C3B";
paths = (
{
closed = 1;
nodes = (
"565 -5 OFFCURVE",
"709 164 OFFCURVE",
"709 355 CURVE SMOOTH",
"709 532 OFFCURVE",
"575 715 OFFCURVE",
"379 715 CURVE SMOOTH",
"192 715 OFFCURVE",
"48 544 OFFCURVE",
"48 355 CURVE SMOOTH",
"48 173 OFFCURVE",
"183 -4 OFFCURVE",
"379 -5 CURVE SMOOTH"
);
},
{
closed = 1;
nodes = (
"199 15 OFFCURVE",
"68 178 OFFCURVE",
"68 355 CURVE SMOOTH",
"68 523 OFFCURVE",
"194 695 OFFCURVE",
"379 695 CURVE SMOOTH",
"555 695 OFFCURVE",
"689 532 OFFCURVE",
"689 355 CURVE SMOOTH",
"689 188 OFFCURVE",
"564 15 OFFCURVE",
"379 15 CURVE SMOOTH"
);
}
);
width = 757;
},
{
anchors = (
{
name = bottom;
position = "{381, 0}";
},
{
name = top;
position = "{385, 710}";
}
);
layerId = "5FCC83B7-30FF-48D6-91DC-2705669CF772";
paths = (
{
closed = 1;
nodes = (
"593 -6 OFFCURVE",
"743 166 OFFCURVE",
"743 352 CURVE SMOOTH",
"743 533 OFFCURVE",
"601 714 OFFCURVE",
"385 714 CURVE SMOOTH",
"174 714 OFFCURVE",
"22 544 OFFCURVE",
"22 356 CURVE SMOOTH",
"22 173 OFFCURVE",
"166 -6 OFFCURVE",
"381 -6 CURVE SMOOTH"
);
},
{
closed = 1;
nodes = (
"272 167 OFFCURVE",
"220 259 OFFCURVE",
"220 354 CURVE SMOOTH",
"220 447 OFFCURVE",
"270 541 OFFCURVE",
"382 541 CURVE SMOOTH",
"492 541 OFFCURVE",
"545 452 OFFCURVE",
"545 356 CURVE SMOOTH",
"545 263 OFFCURVE",
"496 167 OFFCURVE",
"383 167 CURVE SMOOTH"
);
}
);
width = 765;
}
);
unicode = 004F;
userData = {
org.robofab.fontlab.mark = 0;
};
},
{
glyphname = P;
lastChange = "2016-08-06 09:53:15 +0000";
layers = (
{
layerId = "9C43DE69-513E-4B89-A1B3-70D9BFAB8C3B";
paths = (
{
closed = 1;
nodes = (
"119 0 LINE",
"119 279 LINE",
"395 279 LINE SMOOTH",
"510 279 OFFCURVE",
"588 384 OFFCURVE",
"588 495 CURVE SMOOTH",
"588 601 OFFCURVE",
"504 710 OFFCURVE",
"388 710 CURVE SMOOTH",
"99 710 LINE",
"99 0 LINE"
);
},
{
closed = 1;
nodes = (
"119 690 LINE",
"388 690 LINE SMOOTH",
"488 690 OFFCURVE",
"568 596 OFFCURVE",
"568 495 CURVE SMOOTH",
"568 399 OFFCURVE",
"503 299 OFFCURVE",
"395 299 CURVE SMOOTH",
"119 299 LINE"
);
}
);
width = 619;
},
{
layerId = "5FCC83B7-30FF-48D6-91DC-2705669CF772";
paths = (
{
closed = 1;
nodes = (
"256 0 LINE",
"256 218 LINE",
"372 218 LINE SMOOTH",
"512 218 OFFCURVE",
"606 338 OFFCURVE",
"606 464 CURVE SMOOTH",
"606 585 OFFCURVE",
"506 710 OFFCURVE",
"367 710 CURVE SMOOTH",
"61 710 LINE",
"61 0 LINE"
);
},
{
closed = 1;
nodes = (
"256 540 LINE",
"354 540 LINE SMOOTH",
"378 540 OFFCURVE",
"408 523 OFFCURVE",
"408 464 CURVE SMOOTH",
"408 407 OFFCURVE",
"383 388 OFFCURVE",
"359 388 CURVE SMOOTH",
"256 388 LINE"
);
}
);
width = 623;
},
{
associatedMasterId = "5FCC83B7-30FF-48D6-91DC-2705669CF772";
layerId = "2D0D796A-9395-4B6B-B6A6-6EAD66EA72B2";
name = old;
paths = (
{
closed = 1;
nodes = (
"256 0 LINE",
"256 218 LINE",
"372 218 LINE SMOOTH",
"512 218 OFFCURVE",
"606 338 OFFCURVE",
"606 464 CURVE SMOOTH",
"606 585 OFFCURVE",
"506 710 OFFCURVE",
"367 710 CURVE SMOOTH",
"61 710 LINE",
"61 0 LINE"
);
},
{
closed = 1;
nodes = (
"256 540 LINE",
"354 540 LINE SMOOTH",
"378 540 OFFCURVE",
"408 523 OFFCURVE",
"408 464 CURVE SMOOTH",
"408 407 OFFCURVE",
"383 388 OFFCURVE",
"359 388 CURVE SMOOTH",
"256 388 LINE"
);
}
);
width = 623;
}
);
unicode = 0050;
userData = {
org.robofab.fontlab.mark = 0;
};
},
{
glyphname = Q;
lastChange = "2016-07-18 16:20:58 +0000";
layers = (
{
layerId = "9C43DE69-513E-4B89-A1B3-70D9BFAB8C3B";
paths = (
{
closed = 1;
nodes = (
"565 -5 OFFCURVE",
"709 164 OFFCURVE",
"709 355 CURVE SMOOTH",
"709 532 OFFCURVE",
"575 715 OFFCURVE",
"379 715 CURVE SMOOTH",
"192 715 OFFCURVE",
"48 544 OFFCURVE",
"48 355 CURVE SMOOTH",
"48 173 OFFCURVE",
"183 -4 OFFCURVE",
"379 -5 CURVE SMOOTH"
);
},
{
closed = 1;
nodes = (
"672 0 LINE",
"524 186 LINE",
"499 186 LINE",
"647 0 LINE"
);
},
{
closed = 1;
nodes = (
"199 15 OFFCURVE",
"68 178 OFFCURVE",
"68 355 CURVE SMOOTH",
"68 523 OFFCURVE",
"194 695 OFFCURVE",
"379 695 CURVE SMOOTH",
"555 695 OFFCURVE",
"689 532 OFFCURVE",
"689 355 CURVE SMOOTH",
"689 188 OFFCURVE",
"564 15 OFFCURVE",
"379 15 CURVE SMOOTH"
);
}
);
width = 757;
},
{
layerId = "5FCC83B7-30FF-48D6-91DC-2705669CF772";
paths = (
{
closed = 1;
nodes = (
"593 -5 OFFCURVE",
"743 166 OFFCURVE",
"743 352 CURVE SMOOTH",
"743 533 OFFCURVE",
"601 715 OFFCURVE",
"385 715 CURVE SMOOTH",
"174 715 OFFCURVE",
"22 544 OFFCURVE",
"22 356 CURVE SMOOTH",
"22 173 OFFCURVE",
"166 -5 OFFCURVE",
"381 -5 CURVE SMOOTH"
);
},
{
closed = 1;
nodes = (
"761 0 LINE",
"485 300 LINE",
"303 300 LINE",
"579 0 LINE"
);
},
{
closed = 1;
nodes = (
"272 168 OFFCURVE",
"220 259 OFFCURVE",
"220 354 CURVE SMOOTH",
"220 447 OFFCURVE",
"270 542 OFFCURVE",
"382 542 CURVE SMOOTH",
"492 542 OFFCURVE",
"545 452 OFFCURVE",
"545 356 CURVE SMOOTH",
"545 263 OFFCURVE",
"496 168 OFFCURVE",
"383 168 CURVE SMOOTH"
);
}
);
width = 765;
}
);
unicode = 0051;
userData = {
org.robofab.fontlab.mark = 0;
};
},
{
glyphname = R;
lastChange = "2016-07-18 14:58:42 +0000";
layers = (
{
anchors = (
{
name = bottom;
position = "{316, 0}";
},
{
name = top;
position = "{316, 710}";
}
);
layerId = "9C43DE69-513E-4B89-A1B3-70D9BFAB8C3B";
paths = (
{
closed = 1;
nodes = (
"119 0 LINE",
"119 279 LINE",
"383 279 LINE",
"563 0 LINE",
"587 0 LINE",
"407 279 LINE",
"514 287 OFFCURVE",
"588 385 OFFCURVE",
"588 495 CURVE SMOOTH",
"588 601 OFFCURVE",
"504 710 OFFCURVE",
"388 710 CURVE SMOOTH",
"99 710 LINE",
"99 0 LINE"
);
},
{
closed = 1;
nodes = (
"119 690 LINE",
"388 690 LINE SMOOTH",
"488 690 OFFCURVE",
"568 596 OFFCURVE",
"568 495 CURVE SMOOTH",
"568 397 OFFCURVE",
"502 299 OFFCURVE",
"395 299 CURVE SMOOTH",
"119 299 LINE"
);
}
);
width = 642;
},
{
anchors = (
{
name = bottom;
position = "{354, 0}";
},
{
name = top;
position = "{319, 709}";
}
);
layerId = "5FCC83B7-30FF-48D6-91DC-2705669CF772";
paths = (
{
closed = 1;
nodes = (
"256 0 LINE",
"256 218 LINE",
"329 218 LINE",
"454 0 LINE",
"674 0 LINE",
"524 261 LINE",
"588 306 OFFCURVE",
"626 382 OFFCURVE",
"626 464 CURVE SMOOTH",
"626 585 OFFCURVE",
"526 710 OFFCURVE",
"387 710 CURVE SMOOTH",
"61 710 LINE",
"61 0 LINE"
);
},
{
closed = 1;
nodes = (
"256 540 LINE",
"374 540 LINE SMOOTH",
"398 540 OFFCURVE",
"428 513 OFFCURVE",
"428 464 CURVE SMOOTH",
"428 416 OFFCURVE",
"403 388 OFFCURVE",
"379 388 CURVE SMOOTH",
"256 388 LINE"
);
}
);
width = 675;
}
);
unicode = 0052;
userData = {
org.robofab.fontlab.mark = 0;
};
},
{
glyphname = S;
lastChange = "2016-07-18 16:20:58 +0000";
layers = (
{
anchors = (
{
name = bottom;
position = "{308, 0}";
},
{
name = top;
position = "{308, 729}";
}
);
layerId = "9C43DE69-513E-4B89-A1B3-70D9BFAB8C3B";
paths = (
{
closed = 1;
nodes = (
"470 -5 OFFCURVE",
"565 59 OFFCURVE",
"565 174 CURVE SMOOTH",
"565 299 OFFCURVE",
"465 333 OFFCURVE",
"307 365 CURVE SMOOTH",
"149 397 OFFCURVE",
"83 424 OFFCURVE",
"83 526 CURVE SMOOTH",
"83 629 OFFCURVE",
"151 696 OFFCURVE",
"313 696 CURVE SMOOTH",
"397 696 OFFCURVE",
"453 678 OFFCURVE",
"509 616 CURVE",
"522 630 LINE",
"466 691 OFFCURVE",
"401 715 OFFCURVE",
"311 715 CURVE SMOOTH",
"160 715 OFFCURVE",
"63 647 OFFCURVE",
"63 524 CURVE SMOOTH",
"63 406 OFFCURVE",
"151 376 OFFCURVE",
"308 346 CURVE SMOOTH",
"472 314 OFFCURVE",
"545 277 OFFCURVE",
"545 171 CURVE SMOOTH",
"545 65 OFFCURVE",
"457 12 OFFCURVE",
"316 12 CURVE SMOOTH",
"208 12 OFFCURVE",
"126 44 OFFCURVE",
"54 118 CURVE",
"39 105 LINE",
"115 30 OFFCURVE",
"201 -5 OFFCURVE",
"315 -5 CURVE SMOOTH"
);
}
);
width = 602;
},
{
anchors = (
{
name = bottom;
position = "{327, 0}";
},
{
name = top;
position = "{327, 710}";
}
);
layerId = "5FCC83B7-30FF-48D6-91DC-2705669CF772";
paths = (
{
closed = 1;
nodes = (
"454 -9 OFFCURVE",
"592 46 OFFCURVE",
"592 217 CURVE SMOOTH",
"592 350 OFFCURVE",
"509 396 OFFCURVE",
"378 437 CURVE SMOOTH",
"296 463 OFFCURVE",
"246 471 OFFCURVE",
"246 508 CURVE SMOOTH",
"246 533 OFFCURVE",
"269 543 OFFCURVE",
"303 543 CURVE SMOOTH",
"388 543 OFFCURVE",
"491 478 OFFCURVE",
"491 478 CURVE",
"575 639 LINE",
"511 671 OFFCURVE",
"412 716 OFFCURVE",
"309 716 CURVE SMOOTH",
"169 716 OFFCURVE",
"44 633 OFFCURVE",
"44 476 CURVE SMOOTH",
"44 372 OFFCURVE",
"99 319 OFFCURVE",
"224 277 CURVE SMOOTH",
"309 248 OFFCURVE",
"382 239 OFFCURVE",
"382 198 CURVE SMOOTH",
"382 179 OFFCURVE",
"367 167 OFFCURVE",
"325 167 CURVE SMOOTH",
"216 167 OFFCURVE",
"97 245 OFFCURVE",
"97 245 CURVE",
"13 74 LINE",
"98 24 OFFCURVE",
"219 -9 OFFCURVE",
"322 -9 CURVE SMOOTH"
);
}
);
width = 617;
}
);
unicode = 0053;
userData = {
org.robofab.fontlab.mark = 0;
};
},
{
glyphname = T;
lastChange = "2016-07-18 16:20:58 +0000";
layers = (
{
anchors = (
{
name = bottom;
position = "{300, 0}";
},
{
name = top;
position = "{300, 707}";
}
);
layerId = "9C43DE69-513E-4B89-A1B3-70D9BFAB8C3B";
paths = (
{
closed = 1;
nodes = (
"310 0 LINE",
"310 690 LINE",
"582 690 LINE",
"582 710 LINE",
"18 710 LINE",
"18 690 LINE",
"290 690 LINE",
"290 0 LINE"
);
}
);
width = 600;
},
{
anchors = (
{
name = bottom;
position = "{320, 0}";
},
{
name = top;
position = "{320, 710}";
}
);
layerId = "5FCC83B7-30FF-48D6-91DC-2705669CF772";
paths = (
{
closed = 1;
nodes = (
"410 0 LINE",
"410 540 LINE",
"614 540 LINE",
"614 710 LINE",
"10 710 LINE",
"10 540 LINE",
"215 540 LINE",
"215 0 LINE"
);
}
);
width = 624;
}
);
unicode = 0054;
userData = {
org.robofab.fontlab.mark = 0;
};
},
{
glyphname = U;
lastChange = "2016-07-18 16:20:58 +0000";
layers = (
{
anchors = (
{
name = bottom;
position = "{379, 0}";
},
{
name = top;
position = "{379, 707}";
}
);
layerId = "9C43DE69-513E-4B89-A1B3-70D9BFAB8C3B";
paths = (
{
closed = 1;
nodes = (
"597 -5 OFFCURVE",
"669 167 OFFCURVE",
"669 355 CURVE SMOOTH",
"669 710 LINE",
"649 710 LINE",
"649 355 LINE SMOOTH",
"649 189 OFFCURVE",
"592 15 OFFCURVE",
"378 15 CURVE SMOOTH",
"168 15 OFFCURVE",
"108 184 OFFCURVE",
"108 355 CURVE SMOOTH",
"108 710 LINE",
"88 710 LINE",
"88 355 LINE SMOOTH",
"88 177 OFFCURVE",
"154 -5 OFFCURVE",
"379 -5 CURVE SMOOTH"
);
}
);
width = 756;
},
{
anchors = (
{
name = bottom;
position = "{371, 0}";
},
{
name = top;
position = "{371, 710}";
}
);
layerId = "5FCC83B7-30FF-48D6-91DC-2705669CF772";
paths = (
{
closed = 1;
nodes = (
"591 -6 OFFCURVE",
"692 147 OFFCURVE",
"692 345 CURVE SMOOTH",
"692 710 LINE",
"497 710 LINE",
"497 345 LINE SMOOTH",
"497 253 OFFCURVE",
"463 167 OFFCURVE",
"371 167 CURVE SMOOTH",
"281 167 OFFCURVE",
"246 251 OFFCURVE",
"246 345 CURVE SMOOTH",
"246 710 LINE",
"51 710 LINE",
"51 345 LINE SMOOTH",
"51 157 OFFCURVE",
"144 -6 OFFCURVE",
"371 -6 CURVE SMOOTH"
);
}
);
width = 743;
}
);
unicode = 0055;
userData = {
org.robofab.fontlab.mark = 0;
};
},
{
glyphname = V;
lastChange = "2016-07-18 16:20:58 +0000";
layers = (
{
layerId = "9C43DE69-513E-4B89-A1B3-70D9BFAB8C3B";
paths = (
{
closed = 1;
nodes = (
"350 0 LINE",
"659 710 LINE",
"637 710 LINE",
"339 25 LINE",
"40 710 LINE",
"19 710 LINE",
"328 0 LINE"
);
}
);
width = 678;
},
{
layerId = "5FCC83B7-30FF-48D6-91DC-2705669CF772";
paths = (
{
closed = 1;
nodes = (
"418 0 LINE",
"679 710 LINE",
"474 710 LINE",
"337 245 LINE",
"198 710 LINE",
"-8 710 LINE",
"256 0 LINE"
);
}
);
width = 672;
}
);
unicode = 0056;
userData = {
org.robofab.fontlab.mark = 0;
};
},
{
glyphname = W;
lastChange = "2016-07-18 16:20:58 +0000";
layers = (
{
anchors = (
{
name = top;
position = "{518, 707}";
}
);
layerId = "9C43DE69-513E-4B89-A1B3-70D9BFAB8C3B";
paths = (
{
closed = 1;
nodes = (
"350 0 LINE",
"519 389 LINE",
"688 0 LINE",
"710 0 LINE",
"1019 710 LINE",
"997 710 LINE",
"699 25 LINE",
"529 414 LINE",
"656 704 LINE",
"634 704 LINE",
"518 438 LINE",
"403 704 LINE",
"381 704 LINE",
"508 414 LINE",
"339 25 LINE",
"41 710 LINE",
"19 710 LINE",
"328 0 LINE"
);
}
);
width = 1038;
},
{
anchors = (
{
name = top;
position = "{528, 710}";
}
);
layerId = "5FCC83B7-30FF-48D6-91DC-2705669CF772";
paths = (
{
closed = 1;
nodes = (
"428 0 LINE",
"528 254 LINE",
"629 0 LINE",
"791 0 LINE",
"1069 710 LINE",
"857 710 LINE",
"704 223 LINE",
"653 371 LINE",
"770 710 LINE",
"591 710 LINE",
"528 491 LINE",
"466 710 LINE",
"287 710 LINE",
"402 371 LINE",
"353 223 LINE",
"199 710 LINE",
"-12 710 LINE",
"266 0 LINE"
);
}
);
width = 1057;
}
);
unicode = 0057;
userData = {
org.robofab.fontlab.mark = 0;
};
},
{
glyphname = X;
lastChange = "2016-07-18 16:20:58 +0000";
layers = (
{
layerId = "9C43DE69-513E-4B89-A1B3-70D9BFAB8C3B";
paths = (
{
closed = 1;
nodes = (
"45 0 LINE",
"311 334 LINE",
"577 0 LINE",
"602 0 LINE",
"323 350 LINE",
"610 710 LINE",
"585 710 LINE",
"311 366 LINE",
"37 710 LINE",
"11 710 LINE",
"298 350 LINE",
"19 0 LINE"
);
}
);
width = 621;
},
{
anchors = (
{
name = top;
position = "{329, 710}";
}
);
layerId = "5FCC83B7-30FF-48D6-91DC-2705669CF772";
paths = (
{
closed = 1;
nodes = (
"208 0 LINE",
"329 214 LINE",
"450 0 LINE",
"660 0 LINE",
"431 350 LINE",
"668 710 LINE",
"458 710 LINE",
"329 486 LINE",
"200 710 LINE",
"-11 710 LINE",
"226 350 LINE",
"-3 0 LINE"
);
}
);
width = 657;
}
);
unicode = 0058;
userData = {
org.robofab.fontlab.mark = 0;
};
},
{
glyphname = Y;
lastChange = "2016-07-18 16:20:58 +0000";
layers = (
{
anchors = (
{
name = top;
position = "{320, 707}";
}
);
layerId = "9C43DE69-513E-4B89-A1B3-70D9BFAB8C3B";
paths = (
{
closed = 1;
nodes = (
"330 0 LINE",
"330 275 LINE",
"618 710 LINE",
"595 710 LINE",
"320 298 LINE",
"46 710 LINE",
"23 710 LINE",
"310 277 LINE",
"310 0 LINE"
);
}
);
width = 641;
},
{
anchors = (
{
name = top;
position = "{332, 710}";
}
);
layerId = "5FCC83B7-30FF-48D6-91DC-2705669CF772";
paths = (
{
closed = 1;
nodes = (
"429 0 LINE",
"429 235 LINE",
"674 710 LINE",
"462 710 LINE",
"332 403 LINE",
"205 710 LINE",
"-6 710 LINE",
"235 237 LINE",
"235 0 LINE"
);
}
);
width = 666;
}
);
unicode = 0059;
userData = {
org.robofab.fontlab.mark = 0;
};
},
{
glyphname = Z;
lastChange = "2016-07-18 16:20:58 +0000";
layers = (
{
anchors = (
{
name = top;
position = "{330, 707}";
}
);
layerId = "9C43DE69-513E-4B89-A1B3-70D9BFAB8C3B";
paths = (
{
closed = 1;
nodes = (
"591 0 LINE",
"591 20 LINE",
"53 20 LINE",
"595 690 LINE",
"595 710 LINE",
"33 710 LINE",
"33 690 LINE",
"570 690 LINE",
"28 20 LINE",
"28 0 LINE"
);
}
);
width = 624;
},
{
anchors = (
{
name = top;
position = "{320, 710}";
}
);
layerId = "5FCC83B7-30FF-48D6-91DC-2705669CF772";
paths = (
{
closed = 1;
nodes = (
"590 0 LINE",
"590 170 LINE",
"272 170 LINE",
"584 565 LINE",
"584 710 LINE",
"42 710 LINE",
"42 540 LINE",
"359 540 LINE",
"27 145 LINE",
"27 0 LINE"
);
}
);
width = 622;
}
);
unicode = 005A;
userData = {
org.robofab.fontlab.mark = 0;
};
},
{
glyphname = bracketleft;
lastChange = "2016-07-18 14:58:42 +0000";
layers = (
{
layerId = "9C43DE69-513E-4B89-A1B3-70D9BFAB8C3B";
paths = (
{
closed = 1;
nodes = (
"167 -40 LINE",
"167 -20 LINE",
"117 -20 LINE",
"117 720 LINE",
"167 720 LINE",
"167 740 LINE",
"97 740 LINE",
"97 -40 LINE"
);
}
);
width = 228;
},
{
layerId = "5FCC83B7-30FF-48D6-91DC-2705669CF772";
paths = (
{
closed = 1;
nodes = (
"324 -40 LINE",
"324 110 LINE",
"254 110 LINE",
"254 590 LINE",
"324 590 LINE",
"324 740 LINE",
"79 740 LINE",
"79 -40 LINE"
);
}
);
width = 371;
}
);
unicode = 005B;
userData = {
org.robofab.fontlab.mark = 0;
};
},
{
glyphname = backslash;
lastChange = "2016-07-18 16:20:58 +0000";
layers = (
{
layerId = "9C43DE69-513E-4B89-A1B3-70D9BFAB8C3B";
paths = (
{
closed = 1;
nodes = (
"488 0 LINE",
"53 710 LINE",
"27 710 LINE",
"463 0 LINE"
);
}
);
width = 514;
},
{
layerId = "5FCC83B7-30FF-48D6-91DC-2705669CF772";
paths = (
{
closed = 1;
nodes = (
"670 0 LINE",
"235 710 LINE",
"25 710 LINE",
"461 0 LINE"
);
}
);
width = 694;
}
);
unicode = 005C;
userData = {
org.robofab.fontlab.mark = 0;
};
},
{
glyphname = bracketright;
lastChange = "2016-07-18 14:58:42 +0000";
layers = (
{
layerId = "9C43DE69-513E-4B89-A1B3-70D9BFAB8C3B";
paths = (
{
closed = 1;
nodes = (
"131 -40 LINE",
"131 740 LINE",
"61 740 LINE",
"61 720 LINE",
"111 720 LINE",
"111 -20 LINE",
"61 -20 LINE",
"61 -40 LINE"
);
}
);
width = 228;
},
{
layerId = "5FCC83B7-30FF-48D6-91DC-2705669CF772";
paths = (
{
closed = 1;
nodes = (
"292 -40 LINE",
"292 740 LINE",
"47 740 LINE",
"47 590 LINE",
"117 590 LINE",
"117 110 LINE",
"47 110 LINE",
"47 -40 LINE"
);
}
);
width = 371;
}
);
unicode = 005D;
userData = {
org.robofab.fontlab.mark = 0;
};
},
{
glyphname = asciicircum;
lastChange = "2016-07-18 14:58:42 +0000";
layers = (
{
layerId = "9C43DE69-513E-4B89-A1B3-70D9BFAB8C3B";
paths = (
{
closed = 1;
nodes = (
"67 303 LINE",
"253 681 LINE",
"436 303 LINE",
"459 303 LINE",
"262 710 LINE",
"244 710 LINE",
"46 303 LINE"
);
}
);
width = 505;
},
{
layerId = "5FCC83B7-30FF-48D6-91DC-2705669CF772";
paths = (
{
closed = 1;
nodes = (
"187 303 LINE",
"313 556 LINE",
"436 303 LINE",
"589 303 LINE",
"392 710 LINE",
"234 710 LINE",
"36 303 LINE"
);
}
);
width = 625;
}
);
unicode = 005E;
userData = {
org.robofab.fontlab.mark = 0;
};
},
{
glyphname = underscore;
lastChange = "2016-07-18 14:58:42 +0000";
layers = (
{
layerId = "9C43DE69-513E-4B89-A1B3-70D9BFAB8C3B";
paths = (
{
closed = 1;
nodes = (
"462 -20 LINE",
"462 0 LINE",
"69 0 LINE",
"69 -20 LINE"
);
}
);
width = 531;
},
{
layerId = "5FCC83B7-30FF-48D6-91DC-2705669CF772";
paths = (
{
closed = 1;
nodes = (
"397 -170 LINE",
"397 0 LINE",
"44 0 LINE",
"44 -170 LINE"
);
}
);
width = 441;
}
);
unicode = 005F;
userData = {
org.robofab.fontlab.mark = 0;
};
},
{
glyphname = grave;
lastChange = "2016-07-18 16:20:58 +0000";
layers = (
{
anchors = (
{
name = _top;
position = "{118, 519}";
}
);
layerId = "9C43DE69-513E-4B89-A1B3-70D9BFAB8C3B";
paths = (
{
closed = 1;
nodes = (
"148 657 LINE",
"83 730 LINE",
"50 730 LINE",
"132 645 LINE"
);
}
);
width = 198;
},
{
anchors = (
{
name = _top;
position = "{202, 525}";
}
);
layerId = "5FCC83B7-30FF-48D6-91DC-2705669CF772";
paths = (
{
closed = 1;
nodes = (
"264 588 LINE",
"214 730 LINE",
"45 730 LINE",
"144 556 LINE"
);
}
);
width = 284;
}
);
unicode = 0060;
userData = {
org.robofab.fontlab.mark = 0;
};
},
{
glyphname = a;
lastChange = "2016-07-18 16:20:58 +0000";
layers = (
{
anchors = (
{
name = bottom;
position = "{450, 11}";
},
{
name = top;
position = "{257, 519}";
}
);
layerId = "9C43DE69-513E-4B89-A1B3-70D9BFAB8C3B";
paths = (
{
closed = 1;
nodes = (
"297 -10 OFFCURVE",
"379 26 OFFCURVE",
"427 88 CURVE",
"427 40 LINE SMOOTH",
"427 23 OFFCURVE",
"436 7 OFFCURVE",
"449 2 CURVE SMOOTH",
"452 0 OFFCURVE",
"455 0 OFFCURVE",
"463 0 CURVE",
"463 20 LINE",
"453 20 OFFCURVE",
"447 27 OFFCURVE",
"447 40 CURVE SMOOTH",
"447 327 LINE SMOOTH",
"447 449 OFFCURVE",
"373 527 OFFCURVE",
"257 527 CURVE SMOOTH",
"203 527 OFFCURVE",
"143 504 OFFCURVE",
"77 459 CURVE",
"89 443 LINE",
"147 484 OFFCURVE",
"207 507 OFFCURVE",
"257 507 CURVE SMOOTH",
"359 507 OFFCURVE",
"427 435 OFFCURVE",
"427 327 CURVE SMOOTH",
"427 268 LINE",
"378 286 OFFCURVE",
"312 297 OFFCURVE",
"253 297 CURVE SMOOTH",
"127 297 OFFCURVE",
"39 236 OFFCURVE",
"39 149 CURVE SMOOTH",
"39 60 OFFCURVE",
"113 -10 OFFCURVE",
"207 -10 CURVE SMOOTH"
);
},
{
closed = 1;
nodes = (
"124 10 OFFCURVE",
"59 71 OFFCURVE",
"59 149 CURVE SMOOTH",
"59 226 OFFCURVE",
"137 277 OFFCURVE",
"253 277 CURVE SMOOTH",
"315 277 OFFCURVE",
"373 267 OFFCURVE",
"427 246 CURVE",
"427 143 LINE SMOOTH",
"427 131 OFFCURVE",
"422 116 OFFCURVE",
"412 102 CURVE SMOOTH",
"376 46 OFFCURVE",
"296 10 OFFCURVE",
"207 10 CURVE SMOOTH"
);
}
);
width = 524;
},
{
anchors = (
{
name = bottom;
position = "{518, 0}";
},
{
name = top;
position = "{280, 526}";
}
);
layerId = "5FCC83B7-30FF-48D6-91DC-2705669CF772";
paths = (
{
closed = 1;
nodes = (
"272 -10 OFFCURVE",
"335 22 OFFCURVE",
"382 82 CURVE",
"386 63 LINE SMOOTH",
"396 15 OFFCURVE",
"430 -10 OFFCURVE",
"498 -10 CURVE SMOOTH",
"519 -10 OFFCURVE",
"547 -7 OFFCURVE",
"578 0 CURVE",
"578 160 LINE",
"551 162 OFFCURVE",
"542 174 OFFCURVE",
"542 210 CURVE SMOOTH",
"542 312 LINE SMOOTH",
"542 460 OFFCURVE",
"447 536 OFFCURVE",
"280 536 CURVE SMOOTH",
"190 536 OFFCURVE",
"113 514 OFFCURVE",
"43 469 CURVE",
"98 351 LINE",
"154 388 OFFCURVE",
"202 408 OFFCURVE",
"261 408 CURVE SMOOTH",
"325 408 OFFCURVE",
"352 384 OFFCURVE",
"352 335 CURVE SMOOTH",
"352 319 LINE",
"325 332 OFFCURVE",
"287 339 OFFCURVE",
"246 339 CURVE SMOOTH",
"113 339 OFFCURVE",
"19 265 OFFCURVE",
"19 159 CURVE SMOOTH",
"19 62 OFFCURVE",
"98 -10 OFFCURVE",
"203 -10 CURVE SMOOTH"
);
},
{
closed = 1;
nodes = (
"224 126 OFFCURVE",
"198 147 OFFCURVE",
"198 176 CURVE SMOOTH",
"198 210 OFFCURVE",
"233 236 OFFCURVE",
"279 236 CURVE SMOOTH",
"300 236 OFFCURVE",
"330 230 OFFCURVE",
"352 222 CURVE",
"352 183 LINE SMOOTH",
"352 170 OFFCURVE",
"342 156 OFFCURVE",
"327 146 CURVE SMOOTH",
"309 134 OFFCURVE",
"283 126 OFFCURVE",
"260 126 CURVE SMOOTH"
);
}
);
width = 599;
}
);
unicode = 0061;
userData = {
org.robofab.fontlab.mark = 0;
};
},
{
glyphname = b;
lastChange = "2016-07-18 16:20:58 +0000";
layers = (
{
layerId = "9C43DE69-513E-4B89-A1B3-70D9BFAB8C3B";
paths = (
{
closed = 1;
nodes = (
"448 -10 OFFCURVE",
"557 117 OFFCURVE",
"557 258 CURVE SMOOTH",
"557 386 OFFCURVE",
"468 527 OFFCURVE",
"316 527 CURVE SMOOTH",
"225 527 OFFCURVE",
"157 473 OFFCURVE",
"104 398 CURVE",
"104 730 LINE",
"84 730 LINE",
"84 0 LINE",
"104 0 LINE",
"104 108 LINE",
"145 42 OFFCURVE",
"225 -10 OFFCURVE",
"307 -10 CURVE SMOOTH"
);
},
{
closed = 1;
nodes = (
"226 10 OFFCURVE",
"109 82 OFFCURVE",
"104 167 CURVE",
"104 356 LINE",
"143 435 OFFCURVE",
"217 507 OFFCURVE",
"316 507 CURVE SMOOTH",
"447 507 OFFCURVE",
"537 386 OFFCURVE",
"537 258 CURVE SMOOTH",
"537 135 OFFCURVE",
"441 10 OFFCURVE",
"307 10 CURVE SMOOTH"
);
}
);
width = 603;
},
{
layerId = "5FCC83B7-30FF-48D6-91DC-2705669CF772";
paths = (
{
closed = 1;
nodes = (
"523 -10 OFFCURVE",
"627 105 OFFCURVE",
"627 261 CURVE SMOOTH",
"627 419 OFFCURVE",
"531 536 OFFCURVE",
"402 536 CURVE SMOOTH",
"326 536 OFFCURVE",
"268 505 OFFCURVE",
"238 448 CURVE",
"238 730 LINE",
"48 730 LINE",
"48 0 LINE",
"213 0 LINE",
"213 82 LINE",
"246 22 OFFCURVE",
"304 -10 OFFCURVE",
"383 -10 CURVE SMOOTH"
);
},
{
closed = 1;
nodes = (
"292 150 OFFCURVE",
"263 168 OFFCURVE",
"238 204 CURVE",
"238 298 LINE",
"256 344 OFFCURVE",
"296 376 OFFCURVE",
"336 376 CURVE SMOOTH",
"391 376 OFFCURVE",
"432 324 OFFCURVE",
"432 260 CURVE SMOOTH",
"432 194 OFFCURVE",
"390 150 OFFCURVE",
"328 150 CURVE SMOOTH"
);
}
);
width = 647;
}
);
unicode = 0062;
userData = {
org.robofab.fontlab.mark = 0;
};
},
{
glyphname = c;
lastChange = "2016-07-18 16:20:58 +0000";
layers = (
{
anchors = (
{
name = bottom;
position = "{297, 0}";
},
{
name = top;
position = "{293, 519}";
}
);
layerId = "9C43DE69-513E-4B89-A1B3-70D9BFAB8C3B";
paths = (
{
closed = 1;
nodes = (
"387 -10 OFFCURVE",
"475 43 OFFCURVE",
"498 113 CURVE",
"478 119 LINE",
"462 62 OFFCURVE",
"375 10 OFFCURVE",
"294 10 CURVE SMOOTH",
"170 10 OFFCURVE",
"66 125 OFFCURVE",
"66 262 CURVE SMOOTH",
"66 399 OFFCURVE",
"166 507 OFFCURVE",
"293 507 CURVE SMOOTH",
"369 507 OFFCURVE",
"437 468 OFFCURVE",
"471 404 CURVE",
"491 411 LINE",
"456 484 OFFCURVE",
"383 527 OFFCURVE",
"296 527 CURVE SMOOTH",
"155 527 OFFCURVE",
"46 411 OFFCURVE",
"46 262 CURVE SMOOTH",
"46 113 OFFCURVE",
"160 -10 OFFCURVE",
"297 -10 CURVE SMOOTH"
);
}
);
width = 538;
},
{
anchors = (
{
name = bottom;
position = "{308, 0}";
},
{
name = top;
position = "{308, 526}";
}
);
layerId = "5FCC83B7-30FF-48D6-91DC-2705669CF772";
paths = (
{
closed = 1;
nodes = (
"435 -10 OFFCURVE",
"522 49 OFFCURVE",
"565 133 CURVE",
"380 189 LINE",
"363 164 OFFCURVE",
"338 150 OFFCURVE",
"307 150 CURVE SMOOTH",
"255 150 OFFCURVE",
"214 192 OFFCURVE",
"214 263 CURVE SMOOTH",
"214 334 OFFCURVE",
"255 376 OFFCURVE",
"307 376 CURVE SMOOTH",
"338 376 OFFCURVE",
"363 362 OFFCURVE",
"380 337 CURVE",
"565 393 LINE",
"522 477 OFFCURVE",
"435 536 OFFCURVE",
"308 536 CURVE SMOOTH",
"122 536 OFFCURVE",
"19 407 OFFCURVE",
"19 263 CURVE SMOOTH",
"19 119 OFFCURVE",
"122 -10 OFFCURVE",
"308 -10 CURVE SMOOTH"
);
}
);
width = 577;
}
);
unicode = 0063;
userData = {
org.robofab.fontlab.mark = 0;
};
},
{
glyphname = d;
lastChange = "2016-07-19 15:58:20 +0000";
layers = (
{
anchors = (
{
name = top;
position = "{572, 519}";
}
);
layerId = "9C43DE69-513E-4B89-A1B3-70D9BFAB8C3B";
paths = (
{
closed = 1;
nodes = (
"375 -10 OFFCURVE",
"455 39 OFFCURVE",
"499 108 CURVE",
"499 40 LINE SMOOTH",
"499 24 OFFCURVE",
"507 8 OFFCURVE",
"522 2 CURVE SMOOTH",
"526 0 OFFCURVE",
"530 0 OFFCURVE",
"535 0 CURVE",
"535 20 LINE",
"525 20 OFFCURVE",
"519 28 OFFCURVE",
"519 40 CURVE SMOOTH",
"519 730 LINE",
"499 730 LINE",
"499 398 LINE",
"457 467 OFFCURVE",
"382 527 OFFCURVE",
"287 527 CURVE SMOOTH",
"148 527 OFFCURVE",
"46 401 OFFCURVE",
"46 258 CURVE SMOOTH",
"46 125 OFFCURVE",
"151 -10 OFFCURVE",
"296 -10 CURVE SMOOTH"
);
},
{
closed = 1;
nodes = (
"168 10 OFFCURVE",
"66 128 OFFCURVE",
"66 258 CURVE SMOOTH",
"66 382 OFFCURVE",
"152 507 OFFCURVE",
"287 507 CURVE SMOOTH",
"371 507 OFFCURVE",
"469 439 OFFCURVE",
"499 356 CURVE",
"499 169 LINE",
"494 84 OFFCURVE",
"377 10 OFFCURVE",
"296 10 CURVE SMOOTH"
);
}
);
width = 604;
},
{
anchors = (
{
name = top;
position = "{681, 526}";
}
);
layerId = "5FCC83B7-30FF-48D6-91DC-2705669CF772";
paths = (
{
closed = 1;
nodes = (
"337 -10 OFFCURVE",
"403 18 OFFCURVE",
"439 82 CURVE",
"443 63 LINE SMOOTH",
"453 14 OFFCURVE",
"491 -10 OFFCURVE",
"555 -10 CURVE SMOOTH",
"575 -10 OFFCURVE",
"601 -7 OFFCURVE",
"635 0 CURVE",
"635 160 LINE",
"608 162 OFFCURVE",
"599 174 OFFCURVE",
"599 210 CURVE SMOOTH",
"599 730 LINE",
"409 730 LINE",
"409 448 LINE",
"379 503 OFFCURVE",
"318 536 OFFCURVE",
"250 536 CURVE SMOOTH",
"115 536 OFFCURVE",
"20 419 OFFCURVE",
"20 264 CURVE SMOOTH",
"20 103 OFFCURVE",
"123 -10 OFFCURVE",
"268 -10 CURVE SMOOTH"
);
},
{
closed = 1;
nodes = (
"258 150 OFFCURVE",
"216 194 OFFCURVE",
"216 260 CURVE SMOOTH",
"216 324 OFFCURVE",
"257 376 OFFCURVE",
"312 376 CURVE SMOOTH",
"352 376 OFFCURVE",
"392 344 OFFCURVE",
"410 298 CURVE",
"410 204 LINE",
"385 168 OFFCURVE",
"356 150 OFFCURVE",
"320 150 CURVE SMOOTH"
);
}
);
width = 665;
}
);
unicode = 0064;
userData = {
org.robofab.fontlab.mark = 0;
};
},
{
glyphname = e;
lastChange = "2016-07-18 16:20:58 +0000";
layers = (
{
anchors = (
{
name = bottom;
position = "{296, 0}";
},
{
name = top;
position = "{292, 519}";
}
);
layerId = "9C43DE69-513E-4B89-A1B3-70D9BFAB8C3B";
paths = (
{
closed = 1;
nodes = (
"386 -10 OFFCURVE",
"474 43 OFFCURVE",
"502 114 CURVE",
"483 119 LINE",
"454 55 OFFCURVE",
"377 10 OFFCURVE",
"297 10 CURVE SMOOTH",
"176 10 OFFCURVE",
"76 114 OFFCURVE",
"66 248 CURVE",
"541 248 LINE",
"541 259 LINE",
"540 408 OFFCURVE",
"429 527 OFFCURVE",
"291 527 CURVE SMOOTH",
"155 527 OFFCURVE",
"46 409 OFFCURVE",
"46 263 CURVE SMOOTH",
"46 114 OFFCURVE",
"159 -10 OFFCURVE",
"296 -10 CURVE SMOOTH"
);
},
{
closed = 1;
nodes = (
"73 405 OFFCURVE",
"169 507 OFFCURVE",
"292 507 CURVE SMOOTH",
"415 507 OFFCURVE",
"511 407 OFFCURVE",
"520 268 CURVE",
"66 268 LINE"
);
}
);
width = 576;
},
{
anchors = (
{
name = bottom;
position = "{307, 0}";
},
{
name = top;
position = "{307, 526}";
}
);
layerId = "5FCC83B7-30FF-48D6-91DC-2705669CF772";
paths = (
{
closed = 1;
nodes = (
"435 -10 OFFCURVE",
"526 49 OFFCURVE",
"569 133 CURVE",
"408 179 LINE",
"396 146 OFFCURVE",
"354 126 OFFCURVE",
"313 126 CURVE SMOOTH",
"269 126 OFFCURVE",
"225 149 OFFCURVE",
"221 205 CURVE",
"590 205 LINE",
"593 221 OFFCURVE",
"595 243 OFFCURVE",
"595 263 CURVE SMOOTH",
"595 408 OFFCURVE",
"495 536 OFFCURVE",
"307 536 CURVE SMOOTH",
"119 536 OFFCURVE",
"19 408 OFFCURVE",
"19 256 CURVE SMOOTH",
"19 115 OFFCURVE",
"122 -10 OFFCURVE",
"307 -10 CURVE SMOOTH"
);
},
{
closed = 1;
nodes = (
"223 370 OFFCURVE",
"256 401 OFFCURVE",
"304 401 CURVE SMOOTH",
"352 401 OFFCURVE",
"385 370 OFFCURVE",
"391 319 CURVE",
"217 319 LINE"
);
}
);
width = 609;
}
);
unicode = 0065;
userData = {
org.robofab.fontlab.mark = 0;
};
},
{
glyphname = f;
lastChange = "2016-07-18 14:58:42 +0000";
layers = (
{
layerId = "9C43DE69-513E-4B89-A1B3-70D9BFAB8C3B";
paths = (
{
closed = 1;
nodes = (
"123 0 LINE",
"123 499 LINE",
"278 499 LINE",
"278 519 LINE",
"123 519 LINE",
"123 540 LINE SMOOTH",
"123 657 OFFCURVE",
"165 721 OFFCURVE",
"241 721 CURVE SMOOTH",
"272 721 OFFCURVE",
"303 710 OFFCURVE",
"319 694 CURVE",
"335 706 LINE",
"317 726 OFFCURVE",
"278 740 OFFCURVE",
"240 740 CURVE SMOOTH",
"154 740 OFFCURVE",
"103 666 OFFCURVE",
"103 540 CURVE SMOOTH",
"103 519 LINE",
"28 519 LINE",
"28 499 LINE",
"103 499 LINE",
"103 0 LINE"
);
}
);
width = 299;
},
{
layerId = "5FCC83B7-30FF-48D6-91DC-2705669CF772";
paths = (
{
closed = 1;
nodes = (
"275 0 LINE",
"275 322 LINE",
"390 322 LINE",
"390 465 LINE",
"275 465 LINE",
"275 529 LINE SMOOTH",
"275 563 OFFCURVE",
"290 580 OFFCURVE",
"321 580 CURVE SMOOTH",
"341 580 OFFCURVE",
"370 574 OFFCURVE",
"392 566 CURVE",
"424 710 LINE",
"371 730 OFFCURVE",
"323 740 OFFCURVE",
"278 740 CURVE SMOOTH",
"162 740 OFFCURVE",
"85 654 OFFCURVE",
"85 522 CURVE SMOOTH",
"85 465 LINE",
"20 465 LINE",
"20 322 LINE",
"85 322 LINE",
"85 0 LINE"
);
}
);
width = 402;
}
);
unicode = 0066;
userData = {
org.robofab.fontlab.mark = 0;
};
},
{
glyphname = g;
lastChange = "2016-07-18 16:20:58 +0000";
layers = (
{
anchors = (
{
name = top;
position = "{314, 519}";
}
);
layerId = "9C43DE69-513E-4B89-A1B3-70D9BFAB8C3B";
paths = (
{
closed = 1;
nodes = (
"408 -223 OFFCURVE",
"519 -159 OFFCURVE",
"519 -22 CURVE SMOOTH",
"519 519 LINE",
"499 519 LINE",
"499 398 LINE",
"449 469 OFFCURVE",
"381 527 OFFCURVE",
"287 527 CURVE SMOOTH",
"145 527 OFFCURVE",
"46 397 OFFCURVE",
"46 258 CURVE SMOOTH",
"46 125 OFFCURVE",
"151 -10 OFFCURVE",
"296 -10 CURVE SMOOTH",
"375 -10 OFFCURVE",
"455 39 OFFCURVE",
"499 108 CURVE",
"499 -22 LINE SMOOTH",
"499 -141 OFFCURVE",
"404 -203 OFFCURVE",
"290 -203 CURVE SMOOTH",
"206 -203 OFFCURVE",
"126 -171 OFFCURVE",
"84 -93 CURVE",
"65 -99 LINE",
"104 -173 OFFCURVE",
"167 -223 OFFCURVE",
"290 -223 CURVE SMOOTH"
);
},
{
closed = 1;
nodes = (
"168 10 OFFCURVE",
"66 128 OFFCURVE",
"66 258 CURVE SMOOTH",
"66 376 OFFCURVE",
"147 507 OFFCURVE",
"287 507 CURVE SMOOTH",
"376 507 OFFCURVE",
"466 443 OFFCURVE",
"499 356 CURVE",
"499 169 LINE",
"493 95 OFFCURVE",
"394 10 OFFCURVE",
"296 10 CURVE SMOOTH"
);
}
);
width = 603;
},
{
anchors = (
{
name = top;
position = "{353, 526}";
}
);
layerId = "5FCC83B7-30FF-48D6-91DC-2705669CF772";
paths = (
{
closed = 1;
nodes = (
"471 -223 OFFCURVE",
"599 -116 OFFCURVE",
"599 48 CURVE SMOOTH",
"599 526 LINE",
"434 526 LINE",
"434 448 LINE",
"401 505 OFFCURVE",
"341 536 OFFCURVE",
"266 536 CURVE SMOOTH",
"122 536 OFFCURVE",
"21 421 OFFCURVE",
"21 264 CURVE SMOOTH",
"21 115 OFFCURVE",
"113 0 OFFCURVE",
"250 0 CURVE SMOOTH",
"317 0 OFFCURVE",
"379 27 OFFCURVE",
"409 82 CURVE",
"409 48 LINE SMOOTH",
"409 -46 OFFCURVE",
"348 -82 OFFCURVE",
"279 -82 CURVE SMOOTH",
"218 -82 OFFCURVE",
"161 -54 OFFCURVE",
"123 -18 CURVE",
"23 -122 LINE",
"87 -187 OFFCURVE",
"168 -223 OFFCURVE",
"279 -223 CURVE SMOOTH"
);
},
{
closed = 1;
nodes = (
"258 150 OFFCURVE",
"215 194 OFFCURVE",
"215 259 CURVE SMOOTH",
"215 323 OFFCURVE",
"256 376 OFFCURVE",
"310 376 CURVE SMOOTH",
"350 376 OFFCURVE",
"390 346 OFFCURVE",
"409 298 CURVE",
"409 204 LINE",
"384 168 OFFCURVE",
"356 150 OFFCURVE",
"318 150 CURVE SMOOTH"
);
}
);
width = 647;
}
);
unicode = 0067;
userData = {
org.robofab.fontlab.mark = 0;
};
},
{
glyphname = h;
lastChange = "2016-07-18 16:20:58 +0000";
layers = (
{
anchors = (
{
name = top;
position = "{302, 518}";
}
);
layerId = "9C43DE69-513E-4B89-A1B3-70D9BFAB8C3B";
paths = (
{
closed = 1;
nodes = (
"104 0 LINE",
"104 328 LINE",
"131 429 OFFCURVE",
"226 507 OFFCURVE",
"323 507 CURVE SMOOTH",
"418 507 OFFCURVE",
"467 433 OFFCURVE",
"467 289 CURVE SMOOTH",
"467 0 LINE",
"487 0 LINE",
"487 289 LINE SMOOTH",
"487 445 OFFCURVE",
"430 527 OFFCURVE",
"322 527 CURVE SMOOTH",
"233 527 OFFCURVE",
"147 471 OFFCURVE",
"104 385 CURVE",
"104 730 LINE",
"84 730 LINE",
"84 0 LINE"
);
}
);
width = 565;
},
{
anchors = (
{
name = top;
position = "{381, 525}";
}
);
layerId = "5FCC83B7-30FF-48D6-91DC-2705669CF772";
paths = (
{
closed = 1;
nodes = (
"238 0 LINE",
"238 295 LINE",
"256 341 OFFCURVE",
"301 370 OFFCURVE",
"326 370 CURVE SMOOTH",
"361 370 OFFCURVE",
"387 348 OFFCURVE",
"387 296 CURVE SMOOTH",
"387 0 LINE",
"577 0 LINE",
"577 346 LINE SMOOTH",
"577 423 OFFCURVE",
"560 536 OFFCURVE",
"412 536 CURVE SMOOTH",
"338 536 OFFCURVE",
"275 505 OFFCURVE",
"238 448 CURVE",
"238 730 LINE",
"48 730 LINE",
"48 0 LINE"
);
}
);
width = 621;
}
);
unicode = 0068;
userData = {
org.robofab.fontlab.mark = 0;
};
},
{
glyphname = i;
lastChange = "2016-07-18 14:58:42 +0000";
layers = (
{
anchors = (
{
name = bottom;
position = "{94, 0}";
}
);
layerId = "9C43DE69-513E-4B89-A1B3-70D9BFAB8C3B";
paths = (
{
closed = 1;
nodes = (
"104 0 LINE",
"104 519 LINE",
"84 519 LINE",
"84 0 LINE"
);
},
{
closed = 1;
nodes = (
"104 653 LINE",
"104 730 LINE",
"84 730 LINE",
"84 653 LINE"
);
}
);
width = 188;
},
{
layerId = "5FCC83B7-30FF-48D6-91DC-2705669CF772";
paths = (
{
closed = 1;
nodes = (
"238 0 LINE",
"238 526 LINE",
"48 526 LINE",
"48 0 LINE"
);
},
{
closed = 1;
nodes = (
"238 570 LINE",
"238 730 LINE",
"48 730 LINE",
"48 570 LINE"
);
}
);
width = 286;
}
);
unicode = 0069;
userData = {
org.robofab.fontlab.mark = 0;
};
},
{
glyphname = j;
lastChange = "2016-07-18 16:20:58 +0000";
layers = (
{
layerId = "9C43DE69-513E-4B89-A1B3-70D9BFAB8C3B";
paths = (
{
closed = 1;
nodes = (
"41 -170 OFFCURVE",
"112 -114 OFFCURVE",
"112 -36 CURVE SMOOTH",
"112 519 LINE",
"92 519 LINE",
"92 -36 LINE SMOOTH",
"92 -100 OFFCURVE",
"33 -150 OFFCURVE",
"-22 -150 CURVE SMOOTH",
"-50 -150 OFFCURVE",
"-81 -145 OFFCURVE",
"-105 -124 CURVE",
"-121 -136 LINE",
"-95 -162 OFFCURVE",
"-60 -170 OFFCURVE",
"-21 -170 CURVE SMOOTH"
);
},
{
closed = 1;
nodes = (
"112 653 LINE",
"112 730 LINE",
"92 730 LINE",
"92 653 LINE"
);
}
);
width = 196;
},
{
layerId = "5FCC83B7-30FF-48D6-91DC-2705669CF772";
paths = (
{
closed = 1;
nodes = (
"157 -209 OFFCURVE",
"242 -119 OFFCURVE",
"242 12 CURVE SMOOTH",
"242 526 LINE",
"52 526 LINE",
"52 -3 LINE SMOOTH",
"52 -30 OFFCURVE",
"37 -46 OFFCURVE",
"12 -46 CURVE SMOOTH",
"-6 -46 OFFCURVE",
"-24 -38 OFFCURVE",
"-35 -26 CURVE",
"-113 -155 LINE",
"-72 -190 OFFCURVE",
"-19 -209 OFFCURVE",
"36 -209 CURVE SMOOTH"
);
},
{
closed = 1;
nodes = (
"242 570 LINE",
"242 730 LINE",
"52 730 LINE",
"52 570 LINE"
);
}
);
width = 290;
}
);
unicode = 006A;
userData = {
org.robofab.fontlab.mark = 0;
};
},
{
glyphname = k;
lastChange = "2016-07-18 16:20:58 +0000";
layers = (
{
anchors = (
{
name = bottom;
position = "{265, 0}";
}
);
layerId = "9C43DE69-513E-4B89-A1B3-70D9BFAB8C3B";
paths = (
{
closed = 1;
nodes = (
"104 0 LINE",
"104 169 LINE",
"245 297 LINE",
"466 0 LINE",
"490 0 LINE",
"260 311 LINE",
"485 517 LINE",
"458 517 LINE",
"104 196 LINE",
"104 730 LINE",
"84 730 LINE",
"84 0 LINE"
);
}
);
width = 508;
},
{
anchors = (
{
name = bottom;
position = "{300, 0}";
}
);
layerId = "5FCC83B7-30FF-48D6-91DC-2705669CF772";
paths = (
{
closed = 1;
nodes = (
"238 0 LINE",
"238 150 LINE",
"276 192 LINE",
"395 0 LINE",
"596 0 LINE",
"397 296 LINE",
"578 526 LINE",
"378 526 LINE",
"238 331 LINE",
"238 730 LINE",
"48 730 LINE",
"48 0 LINE"
);
}
);
width = 582;
}
);
unicode = 006B;
userData = {
org.robofab.fontlab.mark = 0;
};
},
{
glyphname = l;
lastChange = "2016-07-18 16:20:58 +0000";
layers = (
{
anchors = (
{
name = bottom;
position = "{162, 0}";
},
{
name = top;
position = "{180, 519}";
}
);
layerId = "9C43DE69-513E-4B89-A1B3-70D9BFAB8C3B";
paths = (
{
closed = 1;
nodes = (
"187 -5 OFFCURVE",
"220 1 OFFCURVE",
"238 7 CURVE",
"231 23 LINE",
"214 18 OFFCURVE",
"191 14 OFFCURVE",
"176 14 CURVE SMOOTH",
"136 14 OFFCURVE",
"110 38 OFFCURVE",
"110 77 CURVE SMOOTH",
"110 730 LINE",
"90 730 LINE",
"90 77 LINE SMOOTH",
"90 28 OFFCURVE",
"122 -5 OFFCURVE",
"169 -5 CURVE SMOOTH"
);
}
);
width = 238;
},
{
anchors = (
{
name = bottom;
position = "{202, 0}";
},
{
name = top;
position = "{371, 525}";
}
);
layerId = "5FCC83B7-30FF-48D6-91DC-2705669CF772";
paths = (
{
closed = 1;
nodes = (
"252 -10 OFFCURVE",
"314 3 OFFCURVE",
"359 24 CURVE",
"335 164 LINE",
"319 155 OFFCURVE",
"299 149 OFFCURVE",
"283 149 CURVE SMOOTH",
"251 149 OFFCURVE",
"234 170 OFFCURVE",
"234 209 CURVE SMOOTH",
"234 730 LINE",
"44 730 LINE",
"44 142 LINE SMOOTH",
"44 44 OFFCURVE",
"101 -10 OFFCURVE",
"202 -10 CURVE SMOOTH"
);
}
);
width = 355;
}
);
unicode = 006C;
userData = {
org.robofab.fontlab.mark = 0;
};
},
{
glyphname = m;
lastChange = "2016-07-18 16:20:58 +0000";
layers = (
{
layerId = "9C43DE69-513E-4B89-A1B3-70D9BFAB8C3B";
paths = (
{
closed = 1;
nodes = (
"104 0 LINE",
"104 328 LINE",
"134 435 OFFCURVE",
"212 507 OFFCURVE",
"309 507 CURVE SMOOTH",
"404 507 OFFCURVE",
"447 439 OFFCURVE",
"447 289 CURVE SMOOTH",
"447 0 LINE",
"467 0 LINE",
"467 327 LINE",
"495 432 OFFCURVE",
"572 507 OFFCURVE",
"671 507 CURVE SMOOTH",
"766 507 OFFCURVE",
"810 437 OFFCURVE",
"810 289 CURVE SMOOTH",
"810 0 LINE",
"830 0 LINE",
"830 289 LINE SMOOTH",
"830 450 OFFCURVE",
"779 527 OFFCURVE",
"671 527 CURVE SMOOTH",
"583 527 OFFCURVE",
"515 477 OFFCURVE",
"463 376 CURVE",
"453 468 OFFCURVE",
"392 527 OFFCURVE",
"305 527 CURVE SMOOTH",
"223 527 OFFCURVE",
"149 475 OFFCURVE",
"104 385 CURVE",
"104 519 LINE",
"84 519 LINE",
"84 0 LINE"
);
}
);
width = 908;
},
{
layerId = "5FCC83B7-30FF-48D6-91DC-2705669CF772";
paths = (
{
closed = 1;
nodes = (
"238 0 LINE",
"238 295 LINE",
"254 339 OFFCURVE",
"294 370 OFFCURVE",
"324 370 CURVE SMOOTH",
"353 370 OFFCURVE",
"377 348 OFFCURVE",
"377 296 CURVE SMOOTH",
"377 0 LINE",
"567 0 LINE",
"567 295 LINE",
"583 339 OFFCURVE",
"623 370 OFFCURVE",
"653 370 CURVE SMOOTH",
"682 370 OFFCURVE",
"706 348 OFFCURVE",
"706 296 CURVE SMOOTH",
"706 0 LINE",
"896 0 LINE",
"896 346 LINE SMOOTH",
"896 418 OFFCURVE",
"879 536 OFFCURVE",
"741 536 CURVE SMOOTH",
"659 536 OFFCURVE",
"591 502 OFFCURVE",
"554 445 CURVE",
"539 492 OFFCURVE",
"498 536 OFFCURVE",
"412 536 CURVE SMOOTH",
"323 536 OFFCURVE",
"256 505 OFFCURVE",
"219 448 CURVE",
"219 526 LINE",
"48 526 LINE",
"48 0 LINE"
);
}
);
width = 940;
}
);
unicode = 006D;
userData = {
org.robofab.fontlab.mark = 0;
};
},
{
glyphname = n;
lastChange = "2016-07-18 16:20:58 +0000";
layers = (
{
anchors = (
{
name = bottom;
position = "{280, 0}";
},
{
name = top;
position = "{280, 519}";
}
);
layerId = "9C43DE69-513E-4B89-A1B3-70D9BFAB8C3B";
paths = (
{
closed = 1;
nodes = (
"104 0 LINE",
"104 328 LINE",
"133 430 OFFCURVE",
"234 507 OFFCURVE",
"334 507 CURVE SMOOTH",
"427 507 OFFCURVE",
"467 440 OFFCURVE",
"467 289 CURVE SMOOTH",
"467 0 LINE",
"487 0 LINE",
"487 289 LINE SMOOTH",
"487 452 OFFCURVE",
"439 527 OFFCURVE",
"333 527 CURVE SMOOTH",
"240 527 OFFCURVE",
"147 469 OFFCURVE",
"104 385 CURVE",
"104 519 LINE",
"84 519 LINE",
"84 0 LINE"
);
}
);
width = 565;
},
{
anchors = (
{
name = bottom;
position = "{311, 0}";
},
{
name = top;
position = "{333, 526}";
}
);
layerId = "5FCC83B7-30FF-48D6-91DC-2705669CF772";
paths = (
{
closed = 1;
nodes = (
"238 0 LINE",
"238 295 LINE",
"255 339 OFFCURVE",
"297 370 OFFCURVE",
"329 370 CURVE SMOOTH",
"360 370 OFFCURVE",
"387 348 OFFCURVE",
"387 296 CURVE SMOOTH",
"387 0 LINE",
"577 0 LINE",
"577 346 LINE SMOOTH",
"577 418 OFFCURVE",
"560 536 OFFCURVE",
"417 536 CURVE SMOOTH",
"326 536 OFFCURVE",
"256 505 OFFCURVE",
"219 448 CURVE",
"219 526 LINE",
"48 526 LINE",
"48 0 LINE"
);
}
);
width = 621;
}
);
unicode = 006E;
userData = {
org.robofab.fontlab.mark = 0;
};
},
{
glyphname = o;
lastChange = "2016-07-18 16:20:58 +0000";
layers = (
{
anchors = (
{
name = bottom;
position = "{292, 0}";
},
{
name = top;
position = "{293, 519}";
}
);
layerId = "9C43DE69-513E-4B89-A1B3-70D9BFAB8C3B";
paths = (
{
closed = 1;
nodes = (
"429 -10 OFFCURVE",
"540 113 OFFCURVE",
"540 258 CURVE SMOOTH",
"540 404 OFFCURVE",
"427 527 OFFCURVE",
"293 527 CURVE SMOOTH",
"159 527 OFFCURVE",
"46 404 OFFCURVE",
"46 258 CURVE SMOOTH",
"46 113 OFFCURVE",
"156 -10 OFFCURVE",
"293 -10 CURVE SMOOTH"
);
},
{
closed = 1;
nodes = (
"168 10 OFFCURVE",
"66 122 OFFCURVE",
"66 256 CURVE SMOOTH",
"66 392 OFFCURVE",
"170 507 OFFCURVE",
"293 507 CURVE SMOOTH",
"416 507 OFFCURVE",
"520 393 OFFCURVE",
"520 259 CURVE SMOOTH",
"520 124 OFFCURVE",
"416 10 OFFCURVE",
"292 10 CURVE SMOOTH"
);
}
);
width = 586;
},
{
anchors = (
{
name = bottom;
position = "{307, 0}";
},
{
name = top;
position = "{307, 526}";
}
);
layerId = "5FCC83B7-30FF-48D6-91DC-2705669CF772";
paths = (
{
closed = 1;
nodes = (
"495 -10 OFFCURVE",
"595 119 OFFCURVE",
"595 263 CURVE SMOOTH",
"595 408 OFFCURVE",
"495 536 OFFCURVE",
"307 536 CURVE SMOOTH",
"119 536 OFFCURVE",
"19 408 OFFCURVE",
"19 263 CURVE SMOOTH",
"19 119 OFFCURVE",
"119 -10 OFFCURVE",
"307 -10 CURVE SMOOTH"
);
},
{
closed = 1;
nodes = (
"253 150 OFFCURVE",
"214 193 OFFCURVE",
"214 263 CURVE SMOOTH",
"214 333 OFFCURVE",
"253 376 OFFCURVE",
"307 376 CURVE SMOOTH",
"361 376 OFFCURVE",
"400 333 OFFCURVE",
"400 263 CURVE SMOOTH",
"400 193 OFFCURVE",
"361 150 OFFCURVE",
"307 150 CURVE SMOOTH"
);
}
);
width = 614;
}
);
unicode = 006F;
userData = {
org.robofab.fontlab.mark = 0;
};
},
{
glyphname = p;
lastChange = "2016-07-18 16:20:58 +0000";
layers = (
{
layerId = "9C43DE69-513E-4B89-A1B3-70D9BFAB8C3B";
paths = (
{
closed = 1;
nodes = (
"104 -213 LINE",
"104 119 LINE",
"149 49 OFFCURVE",
"224 -10 OFFCURVE",
"316 -10 CURVE SMOOTH",
"461 -10 OFFCURVE",
"557 116 OFFCURVE",
"557 258 CURVE SMOOTH",
"557 391 OFFCURVE",
"453 527 OFFCURVE",
"307 527 CURVE SMOOTH",
"228 527 OFFCURVE",
"148 478 OFFCURVE",
"104 409 CURVE",
"104 519 LINE",
"84 519 LINE",
"84 -213 LINE"
);
},
{
closed = 1;
nodes = (
"224 10 OFFCURVE",
"141 77 OFFCURVE",
"104 161 CURVE",
"104 348 LINE",
"109 431 OFFCURVE",
"227 507 OFFCURVE",
"307 507 CURVE SMOOTH",
"435 507 OFFCURVE",
"537 388 OFFCURVE",
"537 258 CURVE SMOOTH",
"537 135 OFFCURVE",
"451 10 OFFCURVE",
"316 10 CURVE SMOOTH"
);
}
);
width = 603;
},
{
layerId = "5FCC83B7-30FF-48D6-91DC-2705669CF772";
paths = (
{
closed = 1;
nodes = (
"238 -213 LINE",
"238 78 LINE",
"268 21 OFFCURVE",
"326 -10 OFFCURVE",
"402 -10 CURVE SMOOTH",
"531 -10 OFFCURVE",
"626 107 OFFCURVE",
"626 265 CURVE SMOOTH",
"626 421 OFFCURVE",
"523 536 OFFCURVE",
"383 536 CURVE SMOOTH",
"304 536 OFFCURVE",
"250 504 OFFCURVE",
"213 447 CURVE",
"213 526 LINE",
"48 526 LINE",
"48 -213 LINE"
);
},
{
closed = 1;
nodes = (
"296 150 OFFCURVE",
"256 185 OFFCURVE",
"238 231 CURVE",
"238 322 LINE",
"263 358 OFFCURVE",
"292 376 OFFCURVE",
"328 376 CURVE SMOOTH",
"390 376 OFFCURVE",
"432 332 OFFCURVE",
"432 266 CURVE SMOOTH",
"432 202 OFFCURVE",
"391 150 OFFCURVE",
"336 150 CURVE SMOOTH"
);
}
);
width = 647;
}
);
unicode = 0070;
userData = {
org.robofab.fontlab.mark = 0;
};
},
{
glyphname = q;
lastChange = "2016-07-18 16:20:58 +0000";
layers = (
{
layerId = "9C43DE69-513E-4B89-A1B3-70D9BFAB8C3B";
paths = (
{
closed = 1;
nodes = (
"535 -193 LINE",
"524 -193 OFFCURVE",
"519 -185 OFFCURVE",
"519 -173 CURVE SMOOTH",
"519 519 LINE",
"499 519 LINE",
"499 409 LINE",
"458 475 OFFCURVE",
"378 527 OFFCURVE",
"296 527 CURVE SMOOTH",
"157 527 OFFCURVE",
"46 399 OFFCURVE",
"46 258 CURVE SMOOTH",
"46 123 OFFCURVE",
"141 -10 OFFCURVE",
"287 -10 CURVE SMOOTH",
"368 -10 OFFCURVE",
"441 35 OFFCURVE",
"499 119 CURVE",
"499 -173 LINE SMOOTH",
"499 -189 OFFCURVE",
"507 -205 OFFCURVE",
"521 -211 CURVE SMOOTH",
"525 -213 OFFCURVE",
"530 -213 OFFCURVE",
"535 -213 CURVE"
);
},
{
closed = 1;
nodes = (
"159 10 OFFCURVE",
"66 127 OFFCURVE",
"66 258 CURVE SMOOTH",
"66 381 OFFCURVE",
"161 507 OFFCURVE",
"296 507 CURVE SMOOTH",
"384 507 OFFCURVE",
"490 431 OFFCURVE",
"499 348 CURVE",
"499 161 LINE",
"459 82 OFFCURVE",
"386 10 OFFCURVE",
"287 10 CURVE SMOOTH"
);
}
);
width = 603;
},
{
layerId = "5FCC83B7-30FF-48D6-91DC-2705669CF772";
paths = (
{
closed = 1;
nodes = (
"569 -213 OFFCURVE",
"612 -209 OFFCURVE",
"645 -203 CURVE",
"645 -43 LINE",
"610 -41 OFFCURVE",
"599 -29 OFFCURVE",
"599 7 CURVE SMOOTH",
"599 526 LINE",
"434 526 LINE",
"434 445 LINE",
"397 502 OFFCURVE",
"343 536 OFFCURVE",
"264 536 CURVE SMOOTH",
"124 536 OFFCURVE",
"21 421 OFFCURVE",
"21 265 CURVE SMOOTH",
"21 107 OFFCURVE",
"116 -10 OFFCURVE",
"245 -10 CURVE SMOOTH",
"321 -10 OFFCURVE",
"379 21 OFFCURVE",
"409 78 CURVE",
"409 -96 LINE SMOOTH",
"409 -167 OFFCURVE",
"469 -213 OFFCURVE",
"540 -213 CURVE SMOOTH"
);
},
{
closed = 1;
nodes = (
"257 150 OFFCURVE",
"215 194 OFFCURVE",
"215 260 CURVE SMOOTH",
"215 324 OFFCURVE",
"256 376 OFFCURVE",
"311 376 CURVE SMOOTH",
"351 376 OFFCURVE",
"391 344 OFFCURVE",
"409 298 CURVE",
"409 204 LINE",
"384 168 OFFCURVE",
"355 150 OFFCURVE",
"319 150 CURVE SMOOTH"
);
}
);
width = 647;
}
);
unicode = 0071;
userData = {
org.robofab.fontlab.mark = 0;
};
},
{
glyphname = r;
lastChange = "2016-07-18 16:20:58 +0000";
layers = (
{
anchors = (
{
name = bottom;
position = "{94, 0}";
},
{
name = top;
position = "{176, 519}";
}
);
layerId = "9C43DE69-513E-4B89-A1B3-70D9BFAB8C3B";
paths = (
{
closed = 1;
nodes = (
"104 0 LINE",
"104 328 LINE",
"132 431 OFFCURVE",
"208 495 OFFCURVE",
"306 499 CURVE",
"306 519 LINE",
"298 519 OFFCURVE",
"286 518 OFFCURVE",
"273 517 CURVE SMOOTH",
"205 509 OFFCURVE",
"140 458 OFFCURVE",
"104 385 CURVE",
"104 519 LINE",
"84 519 LINE",
"84 0 LINE"
);
}
);
width = 323;
},
{
anchors = (
{
name = bottom;
position = "{136, 0}";
},
{
name = top;
position = "{259, 526}";
}
);
layerId = "5FCC83B7-30FF-48D6-91DC-2705669CF772";
paths = (
{
closed = 1;
nodes = (
"238 0 LINE",
"238 312 LINE",
"267 349 OFFCURVE",
"332 364 OFFCURVE",
"405 364 CURVE",
"405 535 LINE",
"400 536 OFFCURVE",
"395 536 OFFCURVE",
"381 536 CURVE SMOOTH",
"318 536 OFFCURVE",
"259 496 OFFCURVE",
"222 426 CURVE",
"222 526 LINE",
"48 526 LINE",
"48 0 LINE"
);
}
);
width = 416;
}
);
unicode = 0072;
userData = {
org.robofab.fontlab.mark = 0;
};
},
{
glyphname = s;
lastChange = "2016-07-18 16:20:58 +0000";
layers = (
{
anchors = (
{
name = bottom;
position = "{235, 0}";
},
{
name = top;
position = "{240, 519}";
}
);
layerId = "9C43DE69-513E-4B89-A1B3-70D9BFAB8C3B";
paths = (
{
closed = 1;
nodes = (
"351 -10 OFFCURVE",
"428 48 OFFCURVE",
"428 139 CURVE SMOOTH",
"428 229 OFFCURVE",
"352 248 OFFCURVE",
"228 277 CURVE SMOOTH",
"126 301 OFFCURVE",
"81 314 OFFCURVE",
"81 383 CURVE SMOOTH",
"81 470 OFFCURVE",
"154 507 OFFCURVE",
"240 507 CURVE SMOOTH",
"306 507 OFFCURVE",
"370 485 OFFCURVE",
"395 444 CURVE",
"413 452 LINE",
"390 495 OFFCURVE",
"328 527 OFFCURVE",
"244 527 CURVE SMOOTH",
"146 527 OFFCURVE",
"61 483 OFFCURVE",
"61 380 CURVE SMOOTH",
"61 297 OFFCURVE",
"116 283 OFFCURVE",
"227 257 CURVE SMOOTH",
"343 230 OFFCURVE",
"408 211 OFFCURVE",
"408 136 CURVE SMOOTH",
"408 57 OFFCURVE",
"337 10 OFFCURVE",
"235 10 CURVE SMOOTH",
"161 10 OFFCURVE",
"105 35 OFFCURVE",
"52 87 CURVE",
"37 74 LINE",
"89 17 OFFCURVE",
"156 -10 OFFCURVE",
"235 -10 CURVE SMOOTH"
);
}
);
width = 471;
},
{
anchors = (
{
name = bottom;
position = "{265, 0}";
},
{
name = top;
position = "{242, 526}";
}
);
layerId = "5FCC83B7-30FF-48D6-91DC-2705669CF772";
paths = (
{
closed = 1;
nodes = (
"400 -10 OFFCURVE",
"484 57 OFFCURVE",
"484 165 CURVE SMOOTH",
"484 251 OFFCURVE",
"435 292 OFFCURVE",
"282 333 CURVE SMOOTH",
"220 349 OFFCURVE",
"203 359 OFFCURVE",
"203 379 CURVE SMOOTH",
"203 397 OFFCURVE",
"219 406 OFFCURVE",
"242 406 CURVE SMOOTH",
"281 406 OFFCURVE",
"321 389 OFFCURVE",
"386 347 CURVE",
"458 461 LINE",
"387 522 OFFCURVE",
"320 537 OFFCURVE",
"242 537 CURVE SMOOTH",
"117 537 OFFCURVE",
"27 460 OFFCURVE",
"27 352 CURVE SMOOTH",
"27 273 OFFCURVE",
"77 238 OFFCURVE",
"225 195 CURVE SMOOTH",
"284 178 OFFCURVE",
"301 166 OFFCURVE",
"301 148 CURVE SMOOTH",
"301 131 OFFCURVE",
"288 123 OFFCURVE",
"261 123 CURVE SMOOTH",
"210 123 OFFCURVE",
"148 148 OFFCURVE",
"83 192 CURVE",
"18 78 LINE",
"79 21 OFFCURVE",
"174 -10 OFFCURVE",
"265 -10 CURVE SMOOTH"
);
}
);
width = 501;
}
);
unicode = 0073;
userData = {
org.robofab.fontlab.mark = 0;
};
},
{
glyphname = t;
lastChange = "2016-07-18 16:20:58 +0000";
layers = (
{
anchors = (
{
name = bottom;
position = "{191, 0}";
},
{
name = top;
position = "{230, 519}";
}
);
layerId = "9C43DE69-513E-4B89-A1B3-70D9BFAB8C3B";
paths = (
{
closed = 1;
nodes = (
"246 -5 OFFCURVE",
"285 23 OFFCURVE",
"286 24 CURVE",
"275 40 LINE",
"273 38 OFFCURVE",
"237 15 OFFCURVE",
"191 15 CURVE SMOOTH",
"156 15 OFFCURVE",
"124 36 OFFCURVE",
"121 75 CURVE",
"121 499 LINE",
"246 499 LINE",
"246 519 LINE",
"121 519 LINE",
"121 700 LINE",
"101 700 LINE",
"101 519 LINE",
"26 519 LINE",
"26 499 LINE",
"101 499 LINE",
"101 75 LINE SMOOTH",
"101 27 OFFCURVE",
"143 -5 OFFCURVE",
"191 -5 CURVE SMOOTH"
);
}
);
width = 295;
},
{
anchors = (
{
name = bottom;
position = "{242, 0}";
},
{
name = top;
position = "{366, 526}";
}
);
layerId = "5FCC83B7-30FF-48D6-91DC-2705669CF772";
paths = (
{
closed = 1;
nodes = (
"300 -11 OFFCURVE",
"364 6 OFFCURVE",
"417 29 CURVE",
"383 179 LINE",
"359 169 OFFCURVE",
"334 162 OFFCURVE",
"315 162 CURVE SMOOTH",
"290 162 OFFCURVE",
"274 174 OFFCURVE",
"274 209 CURVE SMOOTH",
"274 383 LINE",
"377 383 LINE",
"377 526 LINE",
"274 526 LINE",
"274 691 LINE",
"84 691 LINE",
"84 526 LINE",
"19 526 LINE",
"19 383 LINE",
"84 383 LINE",
"84 142 LINE SMOOTH",
"84 28 OFFCURVE",
"156 -11 OFFCURVE",
"242 -11 CURVE SMOOTH"
);
}
);
width = 423;
}
);
unicode = 0074;
userData = {
org.robofab.fontlab.mark = 0;
};
},
{
glyphname = u;
lastChange = "2016-07-18 16:20:58 +0000";
layers = (
{
anchors = (
{
name = bottom;
position = "{496, 11}";
},
{
name = top;
position = "{282, 519}";
}
);
layerId = "9C43DE69-513E-4B89-A1B3-70D9BFAB8C3B";
paths = (
{
closed = 1;
nodes = (
"338 -10 OFFCURVE",
"426 45 OFFCURVE",
"471 132 CURVE",
"471 40 LINE SMOOTH",
"471 23 OFFCURVE",
"480 7 OFFCURVE",
"493 2 CURVE SMOOTH",
"496 0 OFFCURVE",
"499 0 OFFCURVE",
"507 0 CURVE",
"507 20 LINE",
"497 20 OFFCURVE",
"491 28 OFFCURVE",
"491 40 CURVE SMOOTH",
"491 519 LINE",
"471 519 LINE",
"471 189 LINE",
"440 85 OFFCURVE",
"345 10 OFFCURVE",
"245 10 CURVE SMOOTH",
"146 10 OFFCURVE",
"98 81 OFFCURVE",
"98 228 CURVE SMOOTH",
"98 519 LINE",
"78 519 LINE",
"78 228 LINE SMOOTH",
"78 71 OFFCURVE",
"135 -10 OFFCURVE",
"245 -10 CURVE SMOOTH"
);
}
);
width = 576;
},
{
anchors = (
{
name = bottom;
position = "{528, 0}";
},
{
name = top;
position = "{308, 526}";
}
);
layerId = "5FCC83B7-30FF-48D6-91DC-2705669CF772";
paths = (
{
closed = 1;
nodes = (
"294 -10 OFFCURVE",
"363 17 OFFCURVE",
"412 82 CURVE",
"416 63 LINE SMOOTH",
"426 14 OFFCURVE",
"464 -10 OFFCURVE",
"528 -10 CURVE SMOOTH",
"548 -10 OFFCURVE",
"574 -7 OFFCURVE",
"608 0 CURVE",
"608 160 LINE",
"581 162 OFFCURVE",
"572 174 OFFCURVE",
"572 210 CURVE SMOOTH",
"572 526 LINE",
"382 526 LINE",
"382 204 LINE",
"351 159 OFFCURVE",
"320 150 OFFCURVE",
"291 150 CURVE SMOOTH",
"255 150 OFFCURVE",
"233 177 OFFCURVE",
"233 223 CURVE SMOOTH",
"233 526 LINE",
"43 526 LINE",
"43 180 LINE SMOOTH",
"43 57 OFFCURVE",
"101 -10 OFFCURVE",
"207 -10 CURVE SMOOTH"
);
}
);
width = 638;
}
);
unicode = 0075;
userData = {
org.robofab.fontlab.mark = 0;
};
},
{
glyphname = v;
lastChange = "2016-07-18 14:58:42 +0000";
layers = (
{
layerId = "9C43DE69-513E-4B89-A1B3-70D9BFAB8C3B";
paths = (
{
closed = 1;
nodes = (
"269 0 LINE",
"495 519 LINE",
"473 519 LINE",
"260 29 LINE",
"47 519 LINE",
"25 519 LINE",
"251 0 LINE"
);
}
);
width = 520;
},
{
layerId = "5FCC83B7-30FF-48D6-91DC-2705669CF772";
paths = (
{
closed = 1;
nodes = (
"385 0 LINE",
"562 526 LINE",
"385 526 LINE",
"290 149 LINE",
"196 526 LINE",
"1 526 LINE",
"178 0 LINE"
);
}
);
width = 563;
}
);
unicode = 0076;
userData = {
org.robofab.fontlab.mark = 0;
};
},
{
glyphname = w;
lastChange = "2016-07-18 16:20:58 +0000";
layers = (
{
anchors = (
{
name = top;
position = "{397, 519}";
}
);
layerId = "9C43DE69-513E-4B89-A1B3-70D9BFAB8C3B";
paths = (
{
closed = 1;
nodes = (
"270 0 LINE",
"397 291 LINE",
"524 0 LINE",
"542 0 LINE",
"769 519 LINE",
"747 519 LINE",
"533 29 LINE",
"408 316 LINE",
"495 518 LINE",
"474 518 LINE",
"397 342 LINE",
"320 518 LINE",
"299 518 LINE",
"386 316 LINE",
"261 29 LINE",
"47 519 LINE",
"25 519 LINE",
"252 0 LINE"
);
}
);
width = 794;
},
{
anchors = (
{
name = top;
position = "{431, 526}";
}
);
layerId = "5FCC83B7-30FF-48D6-91DC-2705669CF772";
paths = (
{
closed = 1;
nodes = (
"360 0 LINE",
"431 200 LINE",
"502 0 LINE",
"657 0 LINE",
"872 526 LINE",
"693 526 LINE",
"566 173 LINE",
"533 286 LINE",
"627 526 LINE",
"476 526 LINE",
"431 372 LINE",
"386 526 LINE",
"235 526 LINE",
"329 286 LINE",
"296 173 LINE",
"169 526 LINE",
"-10 526 LINE",
"205 0 LINE"
);
}
);
width = 862;
}
);
unicode = 0077;
userData = {
org.robofab.fontlab.mark = 0;
};
},
{
glyphname = x;
lastChange = "2016-07-19 16:18:01 +0000";
layers = (
{
layerId = "9C43DE69-513E-4B89-A1B3-70D9BFAB8C3B";
paths = (
{
closed = 1;
nodes = (
"48 0 LINE",
"233 232 LINE",
"241 244 LINE",
"249 232 LINE",
"434 0 LINE",
"460 0 LINE",
"254 258 LINE",
"462 519 LINE",
"436 519 LINE",
"249 285 LINE",
"241 273 LINE",
"233 285 LINE",
"46 519 LINE",
"20 519 LINE",
"228 258 LINE",
"22 0 LINE"
);
}
);
width = 482;
},
{
anchors = (
{
name = bottom;
position = "{277, 0}";
},
{
name = top;
position = "{277, 526}";
}
);
layerId = "5FCC83B7-30FF-48D6-91DC-2705669CF772";
paths = (
{
closed = 1;
nodes = (
"187 0 LINE",
"268 129 LINE",
"277 149 LINE",
"286 129 LINE",
"367 0 LINE",
"560 0 LINE",
"379 263 LINE",
"555 526 LINE",
"362 526 LINE",
"287 397 LINE",
"277 376 LINE",
"267 397 LINE",
"192 526 LINE",
"-1 526 LINE",
"175 263 LINE",
"-6 0 LINE"
);
}
);
width = 554;
}
);
unicode = 0078;
userData = {
org.robofab.fontlab.mark = 0;
};
},
{
glyphname = y;
lastChange = "2016-07-18 16:20:58 +0000";
layers = (
{
anchors = (
{
name = top;
position = "{272, 519}";
}
);
layerId = "9C43DE69-513E-4B89-A1B3-70D9BFAB8C3B";
paths = (
{
closed = 1;
nodes = (
"142 -223 OFFCURVE",
"157 -221 OFFCURVE",
"169 -218 CURVE SMOOTH",
"184 -214 OFFCURVE",
"194 -204 OFFCURVE",
"202 -186 CURVE SMOOTH",
"511 519 LINE",
"489 519 LINE",
"272 25 LINE",
"43 519 LINE",
"21 519 LINE",
"262 0 LINE",
"193 -158 OFFCURVE",
"182 -184 OFFCURVE",
"175 -193 CURVE SMOOTH",
"168 -202 OFFCURVE",
"151 -203 OFFCURVE",
"128 -203 CURVE",
"128 -223 LINE"
);
}
);
width = 536;
},
{
anchors = (
{
name = top;
position = "{293, 526}";
}
);
layerId = "5FCC83B7-30FF-48D6-91DC-2705669CF772";
paths = (
{
closed = 1;
nodes = (
"250 -234 OFFCURVE",
"342 -166 OFFCURVE",
"373 -63 CURVE SMOOTH",
"551 526 LINE",
"374 526 LINE",
"293 161 LINE",
"193 526 LINE",
"-2 526 LINE",
"189 0 LINE",
"185 -47 OFFCURVE",
"163 -70 OFFCURVE",
"122 -70 CURVE SMOOTH",
"101 -70 OFFCURVE",
"74 -64 OFFCURVE",
"44 -53 CURVE",
"44 -215 LINE",
"76 -228 OFFCURVE",
"109 -234 OFFCURVE",
"142 -234 CURVE SMOOTH"
);
}
);
width = 555;
}
);
unicode = 0079;
userData = {
org.robofab.fontlab.mark = 0;
};
},
{
glyphname = z;
lastChange = "2016-07-18 16:20:58 +0000";
layers = (
{
anchors = (
{
name = top;
position = "{259, 519}";
}
);
layerId = "9C43DE69-513E-4B89-A1B3-70D9BFAB8C3B";
paths = (
{
closed = 1;
nodes = (
"450 0 LINE",
"450 20 LINE",
"59 20 LINE",
"454 499 LINE",
"454 519 LINE",
"38 519 LINE",
"38 499 LINE",
"429 499 LINE",
"33 20 LINE",
"33 0 LINE"
);
}
);
width = 488;
},
{
anchors = (
{
name = top;
position = "{243, 526}";
}
);
layerId = "5FCC83B7-30FF-48D6-91DC-2705669CF772";
paths = (
{
closed = 1;
nodes = (
"469 0 LINE",
"469 130 LINE",
"221 130 LINE",
"460 414 LINE",
"460 526 LINE",
"37 526 LINE",
"37 396 LINE",
"262 396 LINE",
"22 112 LINE",
"22 0 LINE"
);
}
);
width = 494;
}
);
unicode = 007A;
userData = {
org.robofab.fontlab.mark = 0;
};
},
{
glyphname = braceleft;
lastChange = "2016-07-18 16:20:58 +0000";
layers = (
{
layerId = "9C43DE69-513E-4B89-A1B3-70D9BFAB8C3B";
paths = (
{
closed = 1;
nodes = (
"173 -31 LINE",
"173 -11 LINE",
"118 -11 LINE",
"118 304 LINE SMOOTH",
"118 310 OFFCURVE",
"118 342 OFFCURVE",
"97 360 CURVE",
"118 379 OFFCURVE",
"118 409 OFFCURVE",
"118 416 CURVE SMOOTH",
"118 720 LINE",
"173 720 LINE",
"173 740 LINE",
"121 740 LINE SMOOTH",
"116 740 OFFCURVE",
"98 736 OFFCURVE",
"98 710 CURVE SMOOTH",
"98 416 LINE SMOOTH",
"98 407 OFFCURVE",
"96 371 OFFCURVE",
"68 371 CURVE",
"68 351 LINE",
"92 348 OFFCURVE",
"98 324 OFFCURVE",
"98 304 CURVE SMOOTH",
"98 -1 LINE SMOOTH",
"98 -23 OFFCURVE",
"110 -31 OFFCURVE",
"121 -31 CURVE SMOOTH"
);
}
);
width = 229;
},
{
layerId = "5FCC83B7-30FF-48D6-91DC-2705669CF772";
paths = (
{
closed = 1;
nodes = (
"320 -31 LINE",
"320 119 LINE",
"265 119 LINE",
"265 284 LINE SMOOTH",
"265 320 OFFCURVE",
"244 342 OFFCURVE",
"224 360 CURVE",
"245 379 OFFCURVE",
"265 399 OFFCURVE",
"265 436 CURVE SMOOTH",
"265 590 LINE",
"320 590 LINE",
"320 740 LINE",
"118 740 LINE SMOOTH",
"110 740 OFFCURVE",
"95 734 OFFCURVE",
"95 710 CURVE SMOOTH",
"95 501 LINE SMOOTH",
"95 464 OFFCURVE",
"63 426 OFFCURVE",
"35 426 CURVE",
"35 296 LINE",
"63 290 OFFCURVE",
"95 261 OFFCURVE",
"95 219 CURVE SMOOTH",
"95 -1 LINE SMOOTH",
"95 -26 OFFCURVE",
"110 -31 OFFCURVE",
"118 -31 CURVE SMOOTH"
);
}
);
width = 374;
}
);
unicode = 007B;
userData = {
org.robofab.fontlab.mark = 0;
};
},
{
glyphname = bar;
lastChange = "2016-07-18 14:58:42 +0000";
layers = (
{
layerId = "9C43DE69-513E-4B89-A1B3-70D9BFAB8C3B";
paths = (
{
closed = 1;
nodes = (
"115 -130 LINE",
"115 775 LINE",
"95 775 LINE",
"95 -130 LINE"
);
}
);
width = 210;
},
{
layerId = "5FCC83B7-30FF-48D6-91DC-2705669CF772";
paths = (
{
closed = 1;
nodes = (
"236 -130 LINE",
"236 775 LINE",
"76 775 LINE",
"76 -130 LINE"
);
}
);
width = 312;
}
);
unicode = 007C;
userData = {
org.robofab.fontlab.mark = 0;
};
},
{
glyphname = braceright;
lastChange = "2016-07-18 16:20:58 +0000";
layers = (
{
layerId = "9C43DE69-513E-4B89-A1B3-70D9BFAB8C3B";
paths = (
{
closed = 1;
nodes = (
"108 -31 LINE SMOOTH",
"119 -31 OFFCURVE",
"131 -23 OFFCURVE",
"131 -1 CURVE SMOOTH",
"131 304 LINE SMOOTH",
"131 324 OFFCURVE",
"137 348 OFFCURVE",
"161 351 CURVE",
"161 371 LINE",
"133 371 OFFCURVE",
"131 407 OFFCURVE",
"131 416 CURVE SMOOTH",
"131 710 LINE SMOOTH",
"131 736 OFFCURVE",
"113 740 OFFCURVE",
"108 740 CURVE SMOOTH",
"56 740 LINE",
"56 720 LINE",
"111 720 LINE",
"111 416 LINE SMOOTH",
"111 409 OFFCURVE",
"111 379 OFFCURVE",
"132 360 CURVE",
"111 342 OFFCURVE",
"111 310 OFFCURVE",
"111 304 CURVE SMOOTH",
"111 -11 LINE",
"56 -11 LINE",
"56 -31 LINE"
);
}
);
width = 229;
},
{
layerId = "5FCC83B7-30FF-48D6-91DC-2705669CF772";
paths = (
{
closed = 1;
nodes = (
"256 -31 LINE SMOOTH",
"264 -31 OFFCURVE",
"279 -26 OFFCURVE",
"279 -1 CURVE SMOOTH",
"279 219 LINE SMOOTH",
"279 261 OFFCURVE",
"311 290 OFFCURVE",
"339 296 CURVE",
"339 426 LINE",
"311 426 OFFCURVE",
"279 464 OFFCURVE",
"279 501 CURVE SMOOTH",
"279 710 LINE SMOOTH",
"279 734 OFFCURVE",
"264 740 OFFCURVE",
"256 740 CURVE SMOOTH",
"54 740 LINE",
"54 590 LINE",
"109 590 LINE",
"109 436 LINE SMOOTH",
"109 399 OFFCURVE",
"129 379 OFFCURVE",
"150 360 CURVE",
"130 342 OFFCURVE",
"109 320 OFFCURVE",
"109 284 CURVE SMOOTH",
"109 119 LINE",
"54 119 LINE",
"54 -31 LINE"
);
}
);
width = 374;
}
);
unicode = 007D;
userData = {
org.robofab.fontlab.mark = 0;
};
},
{
glyphname = asciitilde;
lastChange = "2016-07-18 16:20:58 +0000";
layers = (
{
layerId = "9C43DE69-513E-4B89-A1B3-70D9BFAB8C3B";
paths = (
{
closed = 1;
nodes = (
"90 251 LINE",
"90 253 OFFCURVE",
"113 312 OFFCURVE",
"154 312 CURVE SMOOTH",
"196 312 OFFCURVE",
"240 251 OFFCURVE",
"303 251 CURVE SMOOTH",
"371 251 OFFCURVE",
"393 324 OFFCURVE",
"393 324 CURVE",
"373 325 LINE",
"373 320 OFFCURVE",
"351 271 OFFCURVE",
"303 271 CURVE SMOOTH",
"250 271 OFFCURVE",
"208 332 OFFCURVE",
"154 332 CURVE SMOOTH",
"94 332 OFFCURVE",
"70 255 OFFCURVE",
"70 251 CURVE"
);
}
);
width = 462;
},
{
layerId = "5FCC83B7-30FF-48D6-91DC-2705669CF772";
paths = (
{
closed = 1;
nodes = (
"146 216 LINE",
"146 218 OFFCURVE",
"148 264 OFFCURVE",
"210 264 CURVE SMOOTH",
"274 264 OFFCURVE",
"322 216 OFFCURVE",
"399 216 CURVE SMOOTH",
"529 216 OFFCURVE",
"569 353 OFFCURVE",
"569 374 CURVE",
"469 374 LINE",
"469 370 OFFCURVE",
"460 323 OFFCURVE",
"400 323 CURVE SMOOTH",
"337 323 OFFCURVE",
"292 374 OFFCURVE",
"211 374 CURVE SMOOTH",
"84 374 OFFCURVE",
"45 249 OFFCURVE",
"45 216 CURVE"
);
}
);
width = 610;
}
);
unicode = 007E;
userData = {
org.robofab.fontlab.mark = 0;
};
},
{
glyphname = exclamdown;
lastChange = "2016-07-18 16:20:58 +0000";
layers = (
{
layerId = "9C43DE69-513E-4B89-A1B3-70D9BFAB8C3B";
paths = (
{
closed = 1;
nodes = (
"124 0 LINE",
"124 517 LINE",
"104 517 LINE",
"104 0 LINE"
);
},
{
closed = 1;
nodes = (
"124 633 LINE",
"124 717 LINE",
"104 717 LINE",
"104 633 LINE"
);
}
);
width = 228;
},
{
layerId = "5FCC83B7-30FF-48D6-91DC-2705669CF772";
paths = (
{
closed = 1;
nodes = (
"275 -7 LINE",
"275 410 LINE",
"85 410 LINE",
"85 -7 LINE"
);
},
{
closed = 1;
nodes = (
"275 526 LINE",
"275 710 LINE",
"85 710 LINE",
"85 526 LINE"
);
}
);
width = 360;
}
);
unicode = 00A1;
userData = {
org.robofab.fontlab.mark = 0;
};
},
{
glyphname = cent;
lastChange = "2016-07-18 16:20:58 +0000";
layers = (
{
layerId = "9C43DE69-513E-4B89-A1B3-70D9BFAB8C3B";
paths = (
{
closed = 1;
nodes = (
"296 -120 LINE",
"296 -10 LINE",
"372 -10 OFFCURVE",
"471 32 OFFCURVE",
"498 113 CURVE",
"478 119 LINE",
"461 53 OFFCURVE",
"361 10 OFFCURVE",
"296 10 CURVE",
"296 507 LINE",
"370 504 OFFCURVE",
"433 473 OFFCURVE",
"471 404 CURVE",
"490 411 LINE",
"457 477 OFFCURVE",
"400 524 OFFCURVE",
"296 527 CURVE",
"296 645 LINE",
"276 645 LINE",
"276 527 LINE",
"140 520 OFFCURVE",
"46 393 OFFCURVE",
"46 258 CURVE SMOOTH",
"46 131 OFFCURVE",
"141 2 OFFCURVE",
"276 -9 CURVE",
"276 -120 LINE"
);
},
{
closed = 1;
nodes = (
"157 22 OFFCURVE",
"66 135 OFFCURVE",
"66 258 CURVE SMOOTH",
"66 373 OFFCURVE",
"142 500 OFFCURVE",
"276 507 CURVE",
"276 11 LINE"
);
}
);
width = 541;
},
{
layerId = "5FCC83B7-30FF-48D6-91DC-2705669CF772";
paths = (
{
closed = 1;
nodes = (
"356 -120 LINE",
"356 -10 LINE",
"421 -10 OFFCURVE",
"538 37 OFFCURVE",
"583 133 CURVE",
"398 189 LINE",
"390 176 OFFCURVE",
"377 164 OFFCURVE",
"356 155 CURVE",
"356 370 LINE",
"370 367 OFFCURVE",
"389 353 OFFCURVE",
"398 337 CURVE",
"583 393 LINE",
"534 486 OFFCURVE",
"444 531 OFFCURVE",
"356 534 CURVE",
"356 645 LINE",
"276 645 LINE",
"276 534 LINE",
"116 505 OFFCURVE",
"36 393 OFFCURVE",
"36 258 CURVE SMOOTH",
"36 131 OFFCURVE",
"136 2 OFFCURVE",
"276 -9 CURVE",
"276 -120 LINE"
);
},
{
closed = 1;
nodes = (
"246 186 OFFCURVE",
"232 221 OFFCURVE",
"232 258 CURVE SMOOTH",
"232 307 OFFCURVE",
"249 346 OFFCURVE",
"276 361 CURVE",
"276 164 LINE"
);
}
);
width = 618;
}
);
unicode = 00A2;
userData = {
org.robofab.fontlab.mark = 0;
};
},
{
glyphname = sterling;
lastChange = "2016-07-18 16:20:58 +0000";
layers = (
{
layerId = "9C43DE69-513E-4B89-A1B3-70D9BFAB8C3B";
paths = (
{
closed = 1;
nodes = (
"348 -15 OFFCURVE",
"382 -8 OFFCURVE",
"419 7 CURVE",
"413 26 LINE",
"372 11 OFFCURVE",
"342 5 OFFCURVE",
"314 5 CURVE SMOOTH",
"263 5 OFFCURVE",
"228 25 OFFCURVE",
"166 25 CURVE SMOOTH",
"142 25 OFFCURVE",
"117 22 OFFCURVE",
"95 18 CURVE",
"183 113 OFFCURVE",
"213 171 OFFCURVE",
"213 242 CURVE SMOOTH",
"213 380 OFFCURVE",
"101 448 OFFCURVE",
"101 552 CURVE SMOOTH",
"101 631 OFFCURVE",
"164 695 OFFCURVE",
"240 695 CURVE SMOOTH",
"299 695 OFFCURVE",
"355 658 OFFCURVE",
"387 598 CURVE",
"404 610 LINE",
"370 674 OFFCURVE",
"308 715 OFFCURVE",
"242 715 CURVE SMOOTH",
"153 715 OFFCURVE",
"79 640 OFFCURVE",
"79 550 CURVE SMOOTH",
"79 439 OFFCURVE",
"192 376 OFFCURVE",
"192 241 CURVE SMOOTH",
"192 173 OFFCURVE",
"164 125 OFFCURVE",
"56 10 CURVE",
"66 -7 LINE",
"94 0 OFFCURVE",
"131 5 OFFCURVE",
"160 5 CURVE SMOOTH",
"220 5 OFFCURVE",
"255 -15 OFFCURVE",
"313 -15 CURVE SMOOTH"
);
},
{
closed = 1;
nodes = (
"354 346 LINE",
"354 366 LINE",
"48 366 LINE",
"48 346 LINE"
);
}
);
width = 467;
},
{
layerId = "5FCC83B7-30FF-48D6-91DC-2705669CF772";
paths = (
{
closed = 1;
nodes = (
"472 -15 OFFCURVE",
"521 -1 OFFCURVE",
"551 19 CURVE",
"505 159 LINE",
"481 150 OFFCURVE",
"464 146 OFFCURVE",
"442 146 CURVE SMOOTH",
"399 146 OFFCURVE",
"354 161 OFFCURVE",
"312 161 CURVE SMOOTH",
"290 161 OFFCURVE",
"266 157 OFFCURVE",
"234 146 CURVE",
"282 195 OFFCURVE",
"303 242 OFFCURVE",
"303 297 CURVE SMOOTH",
"303 391 OFFCURVE",
"242 455 OFFCURVE",
"242 510 CURVE SMOOTH",
"242 542 OFFCURVE",
"264 562 OFFCURVE",
"300 562 CURVE SMOOTH",
"343 562 OFFCURVE",
"401 532 OFFCURVE",
"435 493 CURVE",
"531 610 LINE",
"474 676 OFFCURVE",
"389 715 OFFCURVE",
"301 715 CURVE SMOOTH",
"174 715 OFFCURVE",
"74 634 OFFCURVE",
"74 531 CURVE SMOOTH",
"74 446 OFFCURVE",
"141 369 OFFCURVE",
"141 289 CURVE SMOOTH",
"141 227 OFFCURVE",
"101 156 OFFCURVE",
"49 125 CURVE",
"87 -9 LINE",
"137 7 OFFCURVE",
"193 18 OFFCURVE",
"231 18 CURVE SMOOTH",
"298 18 OFFCURVE",
"370 -15 OFFCURVE",
"432 -15 CURVE SMOOTH"
);
},
{
closed = 1;
nodes = (
"474 248 LINE",
"474 388 LINE",
"61 388 LINE",
"61 248 LINE"
);
}
);
width = 586;
}
);
unicode = 00A3;
userData = {
org.robofab.fontlab.mark = 0;
};
},
{
glyphname = currency;
lastChange = "2016-07-18 16:20:58 +0000";
layers = (
{
layerId = "9C43DE69-513E-4B89-A1B3-70D9BFAB8C3B";
paths = (
{
closed = 1;
nodes = (
"148 202 LINE",
"179 174 OFFCURVE",
"219 157 OFFCURVE",
"265 157 CURVE SMOOTH",
"312 157 OFFCURVE",
"353 175 OFFCURVE",
"385 205 CURVE",
"457 134 LINE",
"472 148 LINE",
"399 219 LINE",
"426 251 OFFCURVE",
"442 292 OFFCURVE",
"442 335 CURVE SMOOTH",
"442 378 OFFCURVE",
"426 418 OFFCURVE",
"401 450 CURVE",
"472 520 LINE",
"457 534 LINE",
"387 465 LINE",
"356 496 OFFCURVE",
"313 515 OFFCURVE",
"265 515 CURVE SMOOTH",
"219 515 OFFCURVE",
"177 497 OFFCURVE",
"146 467 CURVE",
"79 534 LINE",
"64 520 LINE",
"132 452 LINE",
"106 420 OFFCURVE",
"90 379 OFFCURVE",
"90 335 CURVE SMOOTH",
"90 290 OFFCURVE",
"106 249 OFFCURVE",
"134 217 CURVE",
"64 148 LINE",
"79 134 LINE"
);
},
{
closed = 1;
nodes = (
"181 175 OFFCURVE",
"111 246 OFFCURVE",
"111 334 CURVE SMOOTH",
"111 424 OFFCURVE",
"182 496 OFFCURVE",
"265 496 CURVE SMOOTH",
"350 496 OFFCURVE",
"421 425 OFFCURVE",
"421 336 CURVE SMOOTH",
"421 249 OFFCURVE",
"350 175 OFFCURVE",
"265 175 CURVE SMOOTH"
);
}
);
width = 533;
},
{
layerId = "5FCC83B7-30FF-48D6-91DC-2705669CF772";
paths = (
{
closed = 1;
nodes = (
"181 169 LINE",
"210 155 OFFCURVE",
"245 147 OFFCURVE",
"286 147 CURVE SMOOTH",
"326 147 OFFCURVE",
"360 154 OFFCURVE",
"388 168 CURVE",
"459 101 LINE",
"525 167 LINE",
"461 231 LINE",
"481 262 OFFCURVE",
"492 299 OFFCURVE",
"492 338 CURVE SMOOTH",
"492 376 OFFCURVE",
"481 413 OFFCURVE",
"462 444 CURVE",
"525 507 LINE",
"454 578 LINE",
"386 509 LINE",
"358 521 OFFCURVE",
"325 529 OFFCURVE",
"286 529 CURVE SMOOTH",
"246 529 OFFCURVE",
"212 521 OFFCURVE",
"183 507 CURVE",
"114 578 LINE",
"43 507 LINE",
"108 441 LINE",
"89 411 OFFCURVE",
"80 375 OFFCURVE",
"80 338 CURVE SMOOTH",
"80 300 OFFCURVE",
"90 264 OFFCURVE",
"109 233 CURVE",
"43 167 LINE",
"109 101 LINE"
);
},
{
closed = 1;
nodes = (
"243 259 OFFCURVE",
"213 289 OFFCURVE",
"213 338 CURVE SMOOTH",
"213 387 OFFCURVE",
"243 417 OFFCURVE",
"286 417 CURVE SMOOTH",
"329 417 OFFCURVE",
"359 387 OFFCURVE",
"359 338 CURVE SMOOTH",
"359 289 OFFCURVE",
"329 259 OFFCURVE",
"286 259 CURVE SMOOTH"
);
}
);
width = 569;
}
);
unicode = 00A4;
},
{
glyphname = yen;
lastChange = "2016-07-18 16:20:58 +0000";
layers = (
{
layerId = "9C43DE69-513E-4B89-A1B3-70D9BFAB8C3B";
paths = (
{
closed = 1;
nodes = (
"335 0 LINE",
"335 231 LINE",
"472 231 LINE",
"472 251 LINE",
"335 251 LINE",
"335 275 LINE",
"366 321 LINE",
"472 321 LINE",
"472 341 LINE",
"379 341 LINE",
"623 710 LINE",
"600 710 LINE",
"325 298 LINE",
"51 710 LINE",
"28 710 LINE",
"273 341 LINE",
"179 341 LINE",
"179 321 LINE",
"286 321 LINE",
"315 277 LINE",
"315 251 LINE",
"179 251 LINE",
"179 231 LINE",
"315 231 LINE",
"315 0 LINE"
);
}
);
width = 651;
},
{
layerId = "5FCC83B7-30FF-48D6-91DC-2705669CF772";
paths = (
{
closed = 1;
nodes = (
"465 0 LINE",
"465 82 LINE",
"631 82 LINE",
"631 202 LINE",
"465 202 LINE",
"465 235 LINE",
"504 312 LINE",
"630 312 LINE",
"630 432 LINE",
"566 432 LINE",
"710 710 LINE",
"498 710 LINE",
"368 403 LINE",
"241 710 LINE",
"30 710 LINE",
"172 432 LINE",
"107 432 LINE",
"107 312 LINE",
"233 312 LINE",
"271 237 LINE",
"271 202 LINE",
"106 202 LINE",
"106 82 LINE",
"271 82 LINE",
"271 0 LINE"
);
}
);
width = 742;
}
);
unicode = 00A5;
userData = {
org.robofab.fontlab.mark = 0;
};
},
{
glyphname = brokenbar;
lastChange = "2016-07-18 16:20:58 +0000";
layers = (
{
layerId = "9C43DE69-513E-4B89-A1B3-70D9BFAB8C3B";
paths = (
{
closed = 1;
nodes = (
"117 360 LINE",
"117 775 LINE",
"97 775 LINE",
"97 360 LINE"
);
},
{
closed = 1;
nodes = (
"117 -130 LINE",
"117 285 LINE",
"97 285 LINE",
"97 -130 LINE"
);
}
);
width = 214;
},
{
layerId = "5FCC83B7-30FF-48D6-91DC-2705669CF772";
paths = (
{
closed = 1;
nodes = (
"238 391 LINE",
"238 775 LINE",
"78 775 LINE",
"78 391 LINE"
);
},
{
closed = 1;
nodes = (
"238 -130 LINE",
"238 254 LINE",
"78 254 LINE",
"78 -130 LINE"
);
}
);
width = 316;
}
);
unicode = 00A6;
userData = {
org.robofab.fontlab.mark = 0;
};
},
{
glyphname = section;
lastChange = "2016-07-18 16:20:58 +0000";
layers = (
{
layerId = "9C43DE69-513E-4B89-A1B3-70D9BFAB8C3B";
paths = (
{
closed = 1;
nodes = (
"338 -88 OFFCURVE",
"439 -31 OFFCURVE",
"439 74 CURVE SMOOTH",
"439 125 OFFCURVE",
"423 160 OFFCURVE",
"385 181 CURVE",
"408 203 OFFCURVE",
"422 242 OFFCURVE",
"422 280 CURVE SMOOTH",
"422 385 OFFCURVE",
"326 426 OFFCURVE",
"232 426 CURVE SMOOTH",
"135 426 OFFCURVE",
"66 461 OFFCURVE",
"66 557 CURVE SMOOTH",
"66 643 OFFCURVE",
"152 695 OFFCURVE",
"230 695 CURVE SMOOTH",
"281 695 OFFCURVE",
"351 684 OFFCURVE",
"377 632 CURVE",
"395 640 LINE",
"362 688 OFFCURVE",
"318 715 OFFCURVE",
"230 715 CURVE SMOOTH",
"146 715 OFFCURVE",
"46 658 OFFCURVE",
"46 557 CURVE SMOOTH",
"46 503 OFFCURVE",
"69 457 OFFCURVE",
"105 435 CURVE",
"86 414 OFFCURVE",
"73 376 OFFCURVE",
"73 341 CURVE SMOOTH",
"73 236 OFFCURVE",
"160 193 OFFCURVE",
"259 190 CURVE SMOOTH",
"335 188 OFFCURVE",
"419 171 OFFCURVE",
"419 74 CURVE SMOOTH",
"419 -15 OFFCURVE",
"332 -68 OFFCURVE",
"253 -68 CURVE SMOOTH",
"187 -68 OFFCURVE",
"135 -43 OFFCURVE",
"81 7 CURVE",
"66 -6 LINE",
"111 -51 OFFCURVE",
"167 -88 OFFCURVE",
"253 -88 CURVE SMOOTH"
);
},
{
closed = 1;
nodes = (
"280 224 OFFCURVE",
"93 181 OFFCURVE",
"93 341 CURVE SMOOTH",
"93 373 OFFCURVE",
"105 407 OFFCURVE",
"124 425 CURVE",
"155 412 OFFCURVE",
"193 406 OFFCURVE",
"232 406 CURVE SMOOTH",
"307 406 OFFCURVE",
"402 377 OFFCURVE",
"402 280 CURVE SMOOTH",
"402 245 OFFCURVE",
"388 209 OFFCURVE",
"365 190 CURVE"
);
}
);
width = 481;
},
{
layerId = "5FCC83B7-30FF-48D6-91DC-2705669CF772";
paths = (
{
closed = 1;
nodes = (
"369 -88 OFFCURVE",
"513 -33 OFFCURVE",
"513 132 CURVE SMOOTH",
"513 182 OFFCURVE",
"500 214 OFFCURVE",
"488 232 CURVE",
"491 240 OFFCURVE",
"501 268 OFFCURVE",
"501 306 CURVE SMOOTH",
"501 439 OFFCURVE",
"375 480 OFFCURVE",
"273 484 CURVE SMOOTH",
"251 485 OFFCURVE",
"230 487 OFFCURVE",
"230 513 CURVE SMOOTH",
"230 532 OFFCURVE",
"241 547 OFFCURVE",
"275 547 CURVE SMOOTH",
"316 547 OFFCURVE",
"338 524 OFFCURVE",
"353 500 CURVE",
"498 568 LINE",
"463 618 OFFCURVE",
"392 715 OFFCURVE",
"263 715 CURVE SMOOTH",
"130 715 OFFCURVE",
"38 613 OFFCURVE",
"38 510 CURVE SMOOTH",
"38 459 OFFCURVE",
"60 421 OFFCURVE",
"70 406 CURVE",
"69 397 OFFCURVE",
"58 381 OFFCURVE",
"58 341 CURVE SMOOTH",
"58 241 OFFCURVE",
"127 162 OFFCURVE",
"275 150 CURVE SMOOTH",
"293 149 OFFCURVE",
"315 147 OFFCURVE",
"315 125 CURVE SMOOTH",
"315 103 OFFCURVE",
"293 92 OFFCURVE",
"264 92 CURVE SMOOTH",
"232 92 OFFCURVE",
"198 105 OFFCURVE",
"164 143 CURVE",
"43 27 LINE",
"70 -8 OFFCURVE",
"158 -88 OFFCURVE",
"273 -88 CURVE SMOOTH"
);
},
{
closed = 1;
nodes = (
"291 284 OFFCURVE",
"242 277 OFFCURVE",
"242 314 CURVE SMOOTH",
"242 324 OFFCURVE",
"246 333 OFFCURVE",
"251 337 CURVE",
"251 337 OFFCURVE",
"267 333 OFFCURVE",
"281 333 CURVE SMOOTH",
"297 333 OFFCURVE",
"321 325 OFFCURVE",
"321 300 CURVE SMOOTH",
"321 292 OFFCURVE",
"318 282 OFFCURVE",
"312 277 CURVE"
);
}
);
width = 551;
}
);
unicode = 00A7;
userData = {
org.robofab.fontlab.mark = 0;
};
},
{
glyphname = dieresis;
lastChange = "2016-07-18 14:58:42 +0000";
layers = (
{
anchors = (
{
name = _top;
position = "{118, 519}";
}
);
layerId = "9C43DE69-513E-4B89-A1B3-70D9BFAB8C3B";
paths = (
{
closed = 1;
nodes = (
"186 653 LINE",
"186 730 LINE",
"166 730 LINE",
"166 653 LINE"
);
},
{
closed = 1;
nodes = (
"70 653 LINE",
"70 730 LINE",
"50 730 LINE",
"50 653 LINE"
);
}
);
width = 236;
},
{
anchors = (
{
name = _top;
position = "{283, 525}";
}
);
layerId = "5FCC83B7-30FF-48D6-91DC-2705669CF772";
paths = (
{
closed = 1;
nodes = (
"476 580 LINE",
"476 720 LINE",
"320 720 LINE",
"320 580 LINE"
);
},
{
closed = 1;
nodes = (
"246 580 LINE",
"246 720 LINE",
"90 720 LINE",
"90 580 LINE"
);
}
);
width = 566;
}
);
unicode = 00A8;
userData = {
org.robofab.fontlab.mark = 0;
};
},
{
glyphname = copyright;
lastChange = "2016-07-18 16:20:58 +0000";
layers = (
{
layerId = "9C43DE69-513E-4B89-A1B3-70D9BFAB8C3B";
paths = (
{
closed = 1;
nodes = (
"619 -7 OFFCURVE",
"773 148 OFFCURVE",
"773 355 CURVE SMOOTH",
"773 561 OFFCURVE",
"619 715 OFFCURVE",
"412 715 CURVE SMOOTH",
"205 715 OFFCURVE",
"51 561 OFFCURVE",
"51 355 CURVE SMOOTH",
"51 148 OFFCURVE",
"205 -7 OFFCURVE",
"412 -7 CURVE SMOOTH"
);
},
{
closed = 1;
nodes = (
"512 127 OFFCURVE",
"581 198 OFFCURVE",
"591 233 CURVE",
"572 238 LINE",
"548 182 OFFCURVE",
"473 147 OFFCURVE",
"415 147 CURVE SMOOTH",
"330 147 OFFCURVE",
"220 222 OFFCURVE",
"220 355 CURVE SMOOTH",
"220 452 OFFCURVE",
"279 566 OFFCURVE",
"411 566 CURVE SMOOTH",
"455 566 OFFCURVE",
"531 553 OFFCURVE",
"562 480 CURVE",
"581 487 LINE",
"555 554 OFFCURVE",
"485 586 OFFCURVE",
"411 586 CURVE SMOOTH",
"264 586 OFFCURVE",
"200 461 OFFCURVE",
"200 355 CURVE SMOOTH",
"200 210 OFFCURVE",
"318 127 OFFCURVE",
"419 127 CURVE SMOOTH"
);
},
{
closed = 1;
nodes = (
"216 13 OFFCURVE",
"72 159 OFFCURVE",
"72 354 CURVE SMOOTH",
"72 550 OFFCURVE",
"217 695 OFFCURVE",
"413 695 CURVE SMOOTH",
"608 695 OFFCURVE",
"752 550 OFFCURVE",
"752 352 CURVE SMOOTH",
"752 151 OFFCURVE",
"604 13 OFFCURVE",
"413 13 CURVE SMOOTH"
);
}
);
width = 824;
},
{
layerId = "5FCC83B7-30FF-48D6-91DC-2705669CF772";
paths = (
{
closed = 1;
nodes = (
"644 -7 OFFCURVE",
"810 148 OFFCURVE",
"810 355 CURVE SMOOTH",
"810 561 OFFCURVE",
"644 715 OFFCURVE",
"419 715 CURVE SMOOTH",
"200 715 OFFCURVE",
"38 561 OFFCURVE",
"38 355 CURVE SMOOTH",
"38 148 OFFCURVE",
"200 -7 OFFCURVE",
"419 -7 CURVE SMOOTH"
);
},
{
closed = 1;
nodes = (
"551 111 OFFCURVE",
"635 170 OFFCURVE",
"676 254 CURVE",
"491 310 LINE",
"476 285 OFFCURVE",
"455 271 OFFCURVE",
"428 271 CURVE SMOOTH",
"388 271 OFFCURVE",
"355 301 OFFCURVE",
"355 354 CURVE SMOOTH",
"355 407 OFFCURVE",
"388 437 OFFCURVE",
"428 437 CURVE SMOOTH",
"455 437 OFFCURVE",
"476 423 OFFCURVE",
"491 398 CURVE",
"676 454 LINE",
"635 538 OFFCURVE",
"551 597 OFFCURVE",
"429 597 CURVE SMOOTH",
"255 597 OFFCURVE",
"160 483 OFFCURVE",
"160 354 CURVE SMOOTH",
"160 225 OFFCURVE",
"255 111 OFFCURVE",
"429 111 CURVE SMOOTH"
);
},
{
closed = 1;
nodes = (
"241 57 OFFCURVE",
"108 189 OFFCURVE",
"108 355 CURVE SMOOTH",
"108 519 OFFCURVE",
"242 651 OFFCURVE",
"419 651 CURVE SMOOTH",
"603 651 OFFCURVE",
"740 519 OFFCURVE",
"740 355 CURVE SMOOTH",
"740 179 OFFCURVE",
"599 57 OFFCURVE",
"419 57 CURVE SMOOTH"
);
}
);
width = 847;
}
);
unicode = 00A9;
userData = {
org.robofab.fontlab.mark = 0;
};
},
{
glyphname = ordfeminine;
lastChange = "2016-07-18 16:20:58 +0000";
layers = (
{
anchors = (
{
name = bottom;
position = "{456, 11}";
},
{
name = top;
position = "{263, 519}";
}
);
layerId = "9C43DE69-513E-4B89-A1B3-70D9BFAB8C3B";
paths = (
{
closed = 1;
nodes = (
"230 351 OFFCURVE",
"286 375 OFFCURVE",
"319 416 CURVE",
"320 387 LINE SMOOTH",
"320 372 OFFCURVE",
"329 361 OFFCURVE",
"343 358 CURVE SMOOTH",
"348 357 OFFCURVE",
"354 357 OFFCURVE",
"361 357 CURVE",
"361 386 LINE",
"352 386 OFFCURVE",
"347 392 OFFCURVE",
"347 402 CURVE SMOOTH",
"347 573 LINE SMOOTH",
"347 658 OFFCURVE",
"293 709 OFFCURVE",
"207 709 CURVE SMOOTH",
"166 709 OFFCURVE",
"123 694 OFFCURVE",
"76 663 CURVE",
"89 643 LINE",
"130 670 OFFCURVE",
"170 684 OFFCURVE",
"205 684 CURVE SMOOTH",
"273 684 OFFCURVE",
"316 641 OFFCURVE",
"316 576 CURVE SMOOTH",
"316 541 LINE",
"284 553 OFFCURVE",
"241 560 OFFCURVE",
"201 560 CURVE SMOOTH",
"114 560 OFFCURVE",
"52 518 OFFCURVE",
"52 458 CURVE SMOOTH",
"52 398 OFFCURVE",
"104 351 OFFCURVE",
"170 351 CURVE SMOOTH"
);
},
{
closed = 1;
nodes = (
"123 377 OFFCURVE",
"82 413 OFFCURVE",
"82 459 CURVE SMOOTH",
"82 507 OFFCURVE",
"132 537 OFFCURVE",
"205 537 CURVE SMOOTH",
"244 537 OFFCURVE",
"282 532 OFFCURVE",
"316 518 CURVE",
"316 457 LINE SMOOTH",
"316 449 OFFCURVE",
"312 439 OFFCURVE",
"305 430 CURVE SMOOTH",
"281 398 OFFCURVE",
"231 377 OFFCURVE",
"176 377 CURVE SMOOTH"
);
}
);
width = 425;
},
{
anchors = (
{
name = bottom;
position = "{433, 11}";
},
{
name = top;
position = "{240, 519}";
}
);
layerId = "5FCC83B7-30FF-48D6-91DC-2705669CF772";
paths = (
{
closed = 1;
nodes = (
"200 333 OFFCURVE",
"241 355 OFFCURVE",
"272 398 CURVE",
"275 384 LINE SMOOTH",
"282 350 OFFCURVE",
"305 333 OFFCURVE",
"351 333 CURVE SMOOTH",
"367 333 OFFCURVE",
"389 335 OFFCURVE",
"412 340 CURVE",
"412 452 LINE",
"389 453 OFFCURVE",
"381 462 OFFCURVE",
"381 487 CURVE SMOOTH",
"381 558 LINE SMOOTH",
"381 662 OFFCURVE",
"318 715 OFFCURVE",
"206 715 CURVE SMOOTH",
"146 715 OFFCURVE",
"95 700 OFFCURVE",
"48 668 CURVE",
"86 586 LINE",
"123 612 OFFCURVE",
"154 626 OFFCURVE",
"193 626 CURVE SMOOTH",
"235 626 OFFCURVE",
"251 609 OFFCURVE",
"251 574 CURVE SMOOTH",
"251 563 LINE",
"234 572 OFFCURVE",
"210 577 OFFCURVE",
"183 577 CURVE SMOOTH",
"95 577 OFFCURVE",
"33 525 OFFCURVE",
"33 451 CURVE SMOOTH",
"33 383 OFFCURVE",
"85 333 OFFCURVE",
"155 333 CURVE SMOOTH"
);
},
{
closed = 1;
nodes = (
"172 428 OFFCURVE",
"155 443 OFFCURVE",
"155 463 CURVE SMOOTH",
"155 487 OFFCURVE",
"177 505 OFFCURVE",
"206 505 CURVE SMOOTH",
"219 505 OFFCURVE",
"238 501 OFFCURVE",
"251 495 CURVE",
"251 468 LINE SMOOTH",
"251 459 OFFCURVE",
"245 449 OFFCURVE",
"235 442 CURVE SMOOTH",
"224 434 OFFCURVE",
"207 428 OFFCURVE",
"194 428 CURVE SMOOTH"
);
}
);
width = 451;
}
);
unicode = 00AA;
userData = {
org.robofab.fontlab.mark = 0;
};
},
{
glyphname = logicalnot;
lastChange = "2016-07-18 16:20:58 +0000";
layers = (
{
layerId = "9C43DE69-513E-4B89-A1B3-70D9BFAB8C3B";
paths = (
{
closed = 1;
nodes = (
"490 140 LINE",
"490 338 LINE",
"87 338 LINE",
"87 318 LINE",
"470 318 LINE",
"470 140 LINE"
);
}
);
width = 561;
},
{
layerId = "5FCC83B7-30FF-48D6-91DC-2705669CF772";
paths = (
{
closed = 1;
nodes = (
"578 89 LINE",
"578 431 LINE",
"49 431 LINE",
"49 261 LINE",
"418 261 LINE",
"418 89 LINE"
);
}
);
width = 637;
}
);
unicode = 00AC;
userData = {
org.robofab.fontlab.mark = 0;
};
},
{
glyphname = registered;
lastChange = "2016-07-18 16:20:58 +0000";
layers = (
{
layerId = "9C43DE69-513E-4B89-A1B3-70D9BFAB8C3B";
paths = (
{
closed = 1;
nodes = (
"619 -7 OFFCURVE",
"773 148 OFFCURVE",
"773 355 CURVE SMOOTH",
"773 561 OFFCURVE",
"619 715 OFFCURVE",
"412 715 CURVE SMOOTH",
"205 715 OFFCURVE",
"51 561 OFFCURVE",
"51 355 CURVE SMOOTH",
"51 148 OFFCURVE",
"205 -7 OFFCURVE",
"412 -7 CURVE SMOOTH"
);
},
{
closed = 1;
nodes = (
"216 13 OFFCURVE",
"72 159 OFFCURVE",
"72 355 CURVE SMOOTH",
"72 549 OFFCURVE",
"217 695 OFFCURVE",
"412 695 CURVE SMOOTH",
"608 695 OFFCURVE",
"752 549 OFFCURVE",
"752 355 CURVE SMOOTH",
"752 149 OFFCURVE",
"604 13 OFFCURVE",
"412 13 CURVE SMOOTH"
);
},
{
closed = 1;
nodes = (
"288 121 LINE",
"288 303 LINE",
"444 303 LINE",
"560 121 LINE",
"584 121 LINE",
"467 303 LINE",
"537 308 OFFCURVE",
"585 371 OFFCURVE",
"585 443 CURVE SMOOTH",
"585 512 OFFCURVE",
"531 583 OFFCURVE",
"455 583 CURVE SMOOTH",
"267 583 LINE",
"267 121 LINE"
);
},
{
closed = 1;
nodes = (
"288 562 LINE",
"455 562 LINE SMOOTH",
"520 562 OFFCURVE",
"565 508 OFFCURVE",
"565 443 CURVE SMOOTH",
"565 379 OFFCURVE",
"529 323 OFFCURVE",
"460 323 CURVE SMOOTH",
"288 323 LINE"
);
}
);
width = 824;
},
{
layerId = "5FCC83B7-30FF-48D6-91DC-2705669CF772";
paths = (
{
closed = 1;
nodes = (
"643 -7 OFFCURVE",
"810 148 OFFCURVE",
"810 355 CURVE SMOOTH",
"810 561 OFFCURVE",
"643 715 OFFCURVE",
"421 715 CURVE SMOOTH",
"199 715 OFFCURVE",
"38 561 OFFCURVE",
"38 355 CURVE SMOOTH",
"38 148 OFFCURVE",
"199 -7 OFFCURVE",
"421 -7 CURVE SMOOTH"
);
},
{
closed = 1;
nodes = (
"240 56 OFFCURVE",
"112 189 OFFCURVE",
"112 354 CURVE SMOOTH",
"112 519 OFFCURVE",
"240 651 OFFCURVE",
"422 651 CURVE SMOOTH",
"603 651 OFFCURVE",
"736 519 OFFCURVE",
"736 352 CURVE SMOOTH",
"736 182 OFFCURVE",
"599 56 OFFCURVE",
"422 56 CURVE SMOOTH"
);
},
{
closed = 1;
nodes = (
"383 144 LINE",
"383 275 LINE",
"401 275 LINE",
"482 144 LINE",
"629 144 LINE",
"533 301 LINE",
"570 328 OFFCURVE",
"595 375 OFFCURVE",
"595 422 CURVE SMOOTH",
"595 495 OFFCURVE",
"534 572 OFFCURVE",
"450 572 CURVE SMOOTH",
"251 572 LINE",
"251 144 LINE"
);
},
{
closed = 1;
nodes = (
"383 457 LINE",
"434 457 LINE SMOOTH",
"448 457 OFFCURVE",
"465 453 OFFCURVE",
"465 422 CURVE SMOOTH",
"465 394 OFFCURVE",
"451 387 OFFCURVE",
"436 387 CURVE SMOOTH",
"383 387 LINE"
);
}
);
width = 847;
}
);
unicode = 00AE;
userData = {
org.robofab.fontlab.mark = 0;
};
},
{
glyphname = macron;
lastChange = "2016-07-18 14:58:42 +0000";
layers = (
{
anchors = (
{
name = _top;
position = "{190, 519}";
}
);
layerId = "9C43DE69-513E-4B89-A1B3-70D9BFAB8C3B";
paths = (
{
closed = 1;
nodes = (
"330 686 LINE",
"330 706 LINE",
"50 706 LINE",
"50 686 LINE"
);
}
);
width = 380;
},
{
anchors = (
{
name = _top;
position = "{218, 526}";
}
);
layerId = "5FCC83B7-30FF-48D6-91DC-2705669CF772";
paths = (
{
closed = 1;
nodes = (
"374 607 LINE",
"374 720 LINE",
"64 720 LINE",
"64 607 LINE"
);
}
);
width = 438;
}
);
unicode = 00AF;
userData = {
org.robofab.fontlab.mark = 0;
};
},
{
glyphname = degree;
lastChange = "2016-07-18 16:20:58 +0000";
layers = (
{
layerId = "9C43DE69-513E-4B89-A1B3-70D9BFAB8C3B";
paths = (
{
closed = 1;
nodes = (
"164 586 OFFCURVE",
"195 617 OFFCURVE",
"195 655 CURVE SMOOTH",
"195 693 OFFCURVE",
"164 724 OFFCURVE",
"126 724 CURVE SMOOTH",
"88 724 OFFCURVE",
"57 693 OFFCURVE",
"57 655 CURVE",
"57 617 OFFCURVE",
"88 586 OFFCURVE",
"126 586 CURVE SMOOTH"
);
},
{
closed = 1;
nodes = (
"112 606 OFFCURVE",
"100 612 OFFCURVE",
"91 621 CURVE SMOOTH",
"82 629 OFFCURVE",
"77 642 OFFCURVE",
"77 655 CURVE SMOOTH",
"77 669 OFFCURVE",
"82 681 OFFCURVE",
"91 690 CURVE",
"100 699 OFFCURVE",
"112 704 OFFCURVE",
"126 704 CURVE SMOOTH",
"139 704 OFFCURVE",
"152 699 OFFCURVE",
"161 690 CURVE SMOOTH",
"169 681 OFFCURVE",
"175 669 OFFCURVE",
"175 655 CURVE SMOOTH",
"175 642 OFFCURVE",
"169 629 OFFCURVE",
"161 621 CURVE SMOOTH",
"152 612 OFFCURVE",
"139 606 OFFCURVE",
"126 606 CURVE SMOOTH"
);
}
);
width = 252;
},
{
layerId = "5FCC83B7-30FF-48D6-91DC-2705669CF772";
paths = (
{
closed = 1;
nodes = (
"220 486 OFFCURVE",
"269 534 OFFCURVE",
"269 610 CURVE SMOOTH",
"269 675 OFFCURVE",
"220 724 OFFCURVE",
"150 724 CURVE SMOOTH",
"80 724 OFFCURVE",
"31 675 OFFCURVE",
"31 610 CURVE SMOOTH",
"31 537 OFFCURVE",
"80 486 OFFCURVE",
"150 486 CURVE SMOOTH"
);
},
{
closed = 1;
nodes = (
"141 573 OFFCURVE",
"133 577 OFFCURVE",
"127 583 CURVE SMOOTH",
"122 588 OFFCURVE",
"118 597 OFFCURVE",
"118 605 CURVE SMOOTH",
"118 614 OFFCURVE",
"122 622 OFFCURVE",
"127 627 CURVE SMOOTH",
"133 633 OFFCURVE",
"141 636 OFFCURVE",
"150 636 CURVE SMOOTH",
"158 636 OFFCURVE",
"167 634 OFFCURVE",
"172 627 CURVE SMOOTH",
"178 622 OFFCURVE",
"181 614 OFFCURVE",
"181 605 CURVE SMOOTH",
"181 598 OFFCURVE",
"178 588 OFFCURVE",
"172 583 CURVE SMOOTH",
"167 577 OFFCURVE",
"158 573 OFFCURVE",
"150 573 CURVE SMOOTH"
);
}
);
width = 300;
}
);
unicode = 00B0;
userData = {
org.robofab.fontlab.mark = 0;
};
},
{
glyphname = plusminus;
lastChange = "2016-07-18 16:20:58 +0000";
layers = (
{
layerId = "9C43DE69-513E-4B89-A1B3-70D9BFAB8C3B";
paths = (
{
closed = 1;
nodes = (
"245 195 LINE",
"245 345 LINE",
"385 345 LINE",
"385 365 LINE",
"245 365 LINE",
"245 515 LINE",
"225 515 LINE",
"225 365 LINE",
"85 365 LINE",
"85 345 LINE",
"225 345 LINE",
"225 195 LINE"
);
},
{
closed = 1;
nodes = (
"385 85 LINE",
"385 105 LINE",
"85 105 LINE",
"85 85 LINE"
);
}
);
width = 470;
},
{
layerId = "5FCC83B7-30FF-48D6-91DC-2705669CF772";
paths = (
{
closed = 1;
nodes = (
"325 197 LINE",
"325 312 LINE",
"430 312 LINE",
"430 462 LINE",
"325 462 LINE",
"325 577 LINE",
"155 577 LINE",
"155 462 LINE",
"50 462 LINE",
"50 312 LINE",
"155 312 LINE",
"155 197 LINE"
);
},
{
closed = 1;
nodes = (
"429 1 LINE",
"429 151 LINE",
"49 151 LINE",
"49 1 LINE"
);
}
);
width = 480;
}
);
unicode = 00B1;
userData = {
org.robofab.fontlab.mark = 0;
};
},
{
glyphname = twosuperior;
lastChange = "2016-07-18 14:58:42 +0000";
layers = (
{
layerId = "9C43DE69-513E-4B89-A1B3-70D9BFAB8C3B";
paths = (
{
closed = 1;
nodes = (
"325 423 LINE",
"325 442 LINE",
"65 442 LINE",
"65 482 OFFCURVE",
"73 547 OFFCURVE",
"178 583 CURVE SMOOTH",
"234 602 OFFCURVE",
"324 622 OFFCURVE",
"324 702 CURVE SMOOTH",
"324 759 OFFCURVE",
"282 811 OFFCURVE",
"192 811 CURVE SMOOTH",
"95 811 OFFCURVE",
"48 749 OFFCURVE",
"45 744 CURVE",
"60 732 LINE",
"77 754 OFFCURVE",
"117 792 OFFCURVE",
"190 792 CURVE SMOOTH",
"267 792 OFFCURVE",
"303 749 OFFCURVE",
"303 703 CURVE SMOOTH",
"303 634 OFFCURVE",
"223 618 OFFCURVE",
"163 596 CURVE SMOOTH",
"87 568 OFFCURVE",
"40 522 OFFCURVE",
"40 423 CURVE"
);
}
);
width = 369;
},
{
layerId = "5FCC83B7-30FF-48D6-91DC-2705669CF772";
paths = (
{
closed = 1;
nodes = (
"394 376 LINE",
"394 483 LINE",
"207 483 LINE",
"207 509 OFFCURVE",
"239 522 OFFCURVE",
"287 535 CURVE SMOOTH",
"338 549 OFFCURVE",
"412 586 OFFCURVE",
"412 676 CURVE SMOOTH",
"412 772 OFFCURVE",
"347 821 OFFCURVE",
"232 821 CURVE SMOOTH",
"131 821 OFFCURVE",
"57 789 OFFCURVE",
"28 751 CURVE",
"96 671 LINE",
"122 694 OFFCURVE",
"165 715 OFFCURVE",
"216 715 CURVE SMOOTH",
"260 715 OFFCURVE",
"288 707 OFFCURVE",
"288 677 CURVE SMOOTH",
"288 633 OFFCURVE",
"224 613 OFFCURVE",
"160 586 CURVE SMOOTH",
"53 541 OFFCURVE",
"26 490 OFFCURVE",
"26 376 CURVE"
);
}
);
width = 441;
}
);
unicode = 00B2;
userData = {
org.robofab.fontlab.mark = 0;
};
},
{
glyphname = threesuperior;
lastChange = "2016-07-18 16:20:58 +0000";
layers = (
{
layerId = "9C43DE69-513E-4B89-A1B3-70D9BFAB8C3B";
paths = (
{
closed = 1;
nodes = (
"272 418 OFFCURVE",
"337 461 OFFCURVE",
"337 520 CURVE SMOOTH",
"337 569 OFFCURVE",
"297 608 OFFCURVE",
"236 618 CURVE",
"295 631 OFFCURVE",
"325 660 OFFCURVE",
"325 705 CURVE SMOOTH",
"325 765 OFFCURVE",
"264 811 OFFCURVE",
"182 811 CURVE SMOOTH",
"121 811 OFFCURVE",
"68 785 OFFCURVE",
"48 745 CURVE",
"63 733 LINE",
"80 768 OFFCURVE",
"126 793 OFFCURVE",
"182 793 CURVE SMOOTH",
"252 793 OFFCURVE",
"304 756 OFFCURVE",
"304 704 CURVE SMOOTH",
"304 654 OFFCURVE",
"255 627 OFFCURVE",
"168 627 CURVE SMOOTH",
"146 627 LINE",
"146 609 LINE",
"168 609 LINE SMOOTH",
"257 609 OFFCURVE",
"317 575 OFFCURVE",
"317 522 CURVE SMOOTH",
"317 473 OFFCURVE",
"262 437 OFFCURVE",
"190 437 CURVE SMOOTH",
"117 437 OFFCURVE",
"60 476 OFFCURVE",
"57 521 CURVE",
"41 514 LINE",
"45 458 OFFCURVE",
"107 418 OFFCURVE",
"190 418 CURVE SMOOTH"
);
}
);
width = 380;
},
{
layerId = "5FCC83B7-30FF-48D6-91DC-2705669CF772";
paths = (
{
closed = 1;
nodes = (
"292 369 OFFCURVE",
"393 404 OFFCURVE",
"393 497 CURVE SMOOTH",
"393 553 OFFCURVE",
"352 602 OFFCURVE",
"285 611 CURVE",
"345 620 OFFCURVE",
"383 653 OFFCURVE",
"383 701 CURVE SMOOTH",
"383 769 OFFCURVE",
"304 821 OFFCURVE",
"199 821 CURVE SMOOTH",
"130 821 OFFCURVE",
"56 802 OFFCURVE",
"21 765 CURVE",
"90 676 LINE",
"118 702 OFFCURVE",
"148 720 OFFCURVE",
"200 720 CURVE SMOOTH",
"224 720 OFFCURVE",
"267 716 OFFCURVE",
"267 694 CURVE SMOOTH",
"267 664 OFFCURVE",
"210 654 OFFCURVE",
"133 654 CURVE SMOOTH",
"109 654 LINE",
"109 555 LINE",
"134 555 LINE SMOOTH",
"227 555 OFFCURVE",
"282 545 OFFCURVE",
"282 514 CURVE SMOOTH",
"282 488 OFFCURVE",
"240 479 OFFCURVE",
"192 479 CURVE SMOOTH",
"129 479 OFFCURVE",
"97 508 OFFCURVE",
"80 524 CURVE",
"23 440 LINE",
"49 391 OFFCURVE",
"111 369 OFFCURVE",
"194 369 CURVE SMOOTH"
);
}
);
width = 422;
}
);
unicode = 00B3;
userData = {
org.robofab.fontlab.mark = 0;
};
},
{
glyphname = acute;
lastChange = "2016-07-18 14:58:42 +0000";
layers = (
{
anchors = (
{
name = _top;
position = "{80, 519}";
}
);
layerId = "9C43DE69-513E-4B89-A1B3-70D9BFAB8C3B";
paths = (
{
closed = 1;
nodes = (
"148 730 LINE",
"114 730 LINE",
"50 657 LINE",
"66 645 LINE"
);
}
);
width = 198;
},
{
anchors = (
{
name = _top;
position = "{107, 526}";
}
);
layerId = "5FCC83B7-30FF-48D6-91DC-2705669CF772";
paths = (
{
closed = 1;
nodes = (
"264 730 LINE",
"95 730 LINE",
"45 588 LINE",
"165 556 LINE"
);
}
);
width = 284;
}
);
unicode = 00B4;
userData = {
org.robofab.fontlab.mark = 0;
};
},
{
glyphname = mu;
lastChange = "2016-07-18 16:20:58 +0000";
layers = (
{
layerId = "9C43DE69-513E-4B89-A1B3-70D9BFAB8C3B";
paths = (
{
closed = 1;
nodes = (
"104 -212 LINE",
"104 94 LINE",
"129 25 OFFCURVE",
"178 -10 OFFCURVE",
"251 -10 CURVE SMOOTH",
"344 -10 OFFCURVE",
"432 45 OFFCURVE",
"477 132 CURVE",
"477 40 LINE SMOOTH",
"477 23 OFFCURVE",
"486 7 OFFCURVE",
"499 2 CURVE SMOOTH",
"502 0 OFFCURVE",
"505 0 OFFCURVE",
"513 0 CURVE",
"513 20 LINE",
"503 20 OFFCURVE",
"497 28 OFFCURVE",
"497 40 CURVE SMOOTH",
"497 519 LINE",
"477 519 LINE",
"477 189 LINE",
"446 85 OFFCURVE",
"351 10 OFFCURVE",
"251 10 CURVE SMOOTH",
"152 10 OFFCURVE",
"104 81 OFFCURVE",
"104 228 CURVE SMOOTH",
"104 519 LINE",
"84 519 LINE",
"84 -212 LINE"
);
}
);
width = 582;
},
{
layerId = "5FCC83B7-30FF-48D6-91DC-2705669CF772";
paths = (
{
closed = 1;
nodes = (
"238 -213 LINE",
"226 26 LINE",
"226 24 OFFCURVE",
"245 -10 OFFCURVE",
"288 -10 CURVE SMOOTH",
"346 -10 OFFCURVE",
"406 53 OFFCURVE",
"417 82 CURVE",
"421 63 LINE SMOOTH",
"431 14 OFFCURVE",
"469 -10 OFFCURVE",
"533 -10 CURVE SMOOTH",
"556 -10 OFFCURVE",
"585 -7 OFFCURVE",
"623 0 CURVE",
"623 160 LINE",
"588 162 OFFCURVE",
"577 174 OFFCURVE",
"577 210 CURVE SMOOTH",
"577 526 LINE",
"387 526 LINE",
"387 204 LINE",
"356 159 OFFCURVE",
"324 150 OFFCURVE",
"300 150 CURVE SMOOTH",
"258 150 OFFCURVE",
"238 177 OFFCURVE",
"238 223 CURVE SMOOTH",
"238 526 LINE",
"48 526 LINE",
"48 -213 LINE"
);
}
);
width = 653;
}
);
unicode = 03BC;
userData = {
org.robofab.fontlab.mark = 0;
};
},
{
glyphname = paragraph;
lastChange = "2016-07-18 16:20:58 +0000";
layers = (
{
layerId = "9C43DE69-513E-4B89-A1B3-70D9BFAB8C3B";
paths = (
{
closed = 1;
nodes = (
"334 -80 LINE",
"334 248 LINE",
"425 248 LINE",
"425 -80 LINE",
"445 -80 LINE",
"445 690 LINE",
"515 690 LINE",
"515 710 LINE",
"314 710 LINE SMOOTH",
"137 710 OFFCURVE",
"32 622 OFFCURVE",
"32 479 CURVE SMOOTH",
"32 335 OFFCURVE",
"139 251 OFFCURVE",
"314 248 CURVE",
"314 -80 LINE"
);
},
{
closed = 1;
nodes = (
"173 274 OFFCURVE",
"52 332 OFFCURVE",
"52 479 CURVE SMOOTH",
"52 612 OFFCURVE",
"144 690 OFFCURVE",
"314 690 CURVE",
"314 268 LINE"
);
},
{
closed = 1;
nodes = (
"334 690 LINE",
"425 690 LINE",
"425 268 LINE",
"334 268 LINE"
);
}
);
width = 565;
},
{
layerId = "5FCC83B7-30FF-48D6-91DC-2705669CF772";
paths = (
{
closed = 1;
nodes = (
"396 -80 LINE",
"396 188 LINE",
"427 188 LINE",
"427 -80 LINE",
"587 -80 LINE",
"587 570 LINE",
"657 570 LINE",
"657 710 LINE",
"316 710 LINE SMOOTH",
"137 710 OFFCURVE",
"34 614 OFFCURVE",
"34 445 CURVE SMOOTH",
"34 293 OFFCURVE",
"116 188 OFFCURVE",
"236 188 CURVE",
"236 -80 LINE"
);
},
{
closed = 1;
nodes = (
"210 333 OFFCURVE",
"191 384 OFFCURVE",
"191 450 CURVE SMOOTH",
"191 515 OFFCURVE",
"210 565 OFFCURVE",
"236 570 CURVE",
"236 328 LINE"
);
},
{
closed = 1;
nodes = (
"396 570 LINE",
"427 570 LINE",
"427 328 LINE",
"396 328 LINE"
);
}
);
width = 705;
}
);
unicode = 00B6;
userData = {
org.robofab.fontlab.mark = 0;
};
},
{
glyphname = periodcentered;
lastChange = "2016-07-18 14:58:42 +0000";
layers = (
{
layerId = "9C43DE69-513E-4B89-A1B3-70D9BFAB8C3B";
paths = (
{
closed = 1;
nodes = (
"89 250 LINE",
"89 333 LINE",
"69 333 LINE",
"69 250 LINE"
);
}
);
width = 158;
},
{
layerId = "5FCC83B7-30FF-48D6-91DC-2705669CF772";
paths = (
{
closed = 1;
nodes = (
"204 238 LINE",
"204 422 LINE",
"50 422 LINE",
"50 238 LINE"
);
}
);
width = 254;
}
);
unicode = 00B7;
userData = {
org.robofab.fontlab.mark = 0;
};
},
{
glyphname = cedilla;
lastChange = "2016-07-18 16:20:58 +0000";
layers = (
{
anchors = (
{
name = _bottom;
position = "{109, 0}";
}
);
layerId = "9C43DE69-513E-4B89-A1B3-70D9BFAB8C3B";
paths = (
{
closed = 1;
nodes = (
"167 -162 OFFCURVE",
"198 -145 OFFCURVE",
"198 -105 CURVE SMOOTH",
"198 -70 OFFCURVE",
"175 -51 OFFCURVE",
"130 -51 CURVE SMOOTH",
"120 -51 OFFCURVE",
"101 -52 OFFCURVE",
"88 -57 CURVE",
"121 0 LINE",
"103 11 LINE",
"49 -83 LINE",
"67 -77 OFFCURVE",
"102 -67 OFFCURVE",
"130 -67 CURVE SMOOTH",
"158 -67 OFFCURVE",
"178 -77 OFFCURVE",
"178 -105 CURVE SMOOTH",
"178 -132 OFFCURVE",
"159 -143 OFFCURVE",
"120 -143 CURVE SMOOTH",
"86 -143 OFFCURVE",
"53 -134 OFFCURVE",
"33 -125 CURVE",
"23 -143 LINE",
"48 -153 OFFCURVE",
"82 -162 OFFCURVE",
"117 -162 CURVE SMOOTH"
);
}
);
width = 252;
},
{
anchors = (
{
name = _bottom;
position = "{137, 0}";
}
);
layerId = "5FCC83B7-30FF-48D6-91DC-2705669CF772";
paths = (
{
closed = 1;
nodes = (
"238 -213 OFFCURVE",
"285 -166 OFFCURVE",
"285 -110 CURVE SMOOTH",
"285 -54 OFFCURVE",
"239 -32 OFFCURVE",
"191 -32 CURVE SMOOTH",
"181 -32 OFFCURVE",
"172 -33 OFFCURVE",
"164 -34 CURVE",
"200 17 LINE",
"131 36 LINE",
"67 -96 LINE",
"82 -93 OFFCURVE",
"118 -87 OFFCURVE",
"146 -87 CURVE SMOOTH",
"179 -87 OFFCURVE",
"201 -95 OFFCURVE",
"201 -117 CURVE SMOOTH",
"201 -140 OFFCURVE",
"176 -148 OFFCURVE",
"145 -148 CURVE SMOOTH",
"109 -148 OFFCURVE",
"69 -137 OFFCURVE",
"55 -128 CURVE",
"20 -192 LINE",
"47 -203 OFFCURVE",
"85 -213 OFFCURVE",
"133 -213 CURVE SMOOTH"
);
}
);
width = 362;
}
);
unicode = 00B8;
userData = {
org.robofab.fontlab.mark = 0;
};
},
{
glyphname = onesuperior;
lastChange = "2016-07-18 16:20:58 +0000";
layers = (
{
layerId = "9C43DE69-513E-4B89-A1B3-70D9BFAB8C3B";
paths = (
{
closed = 1;
nodes = (
"230 422 LINE",
"230 441 LINE",
"152 441 LINE",
"152 811 LINE",
"132 811 LINE",
"130 808 OFFCURVE",
"78 757 OFFCURVE",
"35 757 CURVE",
"35 738 LINE",
"68 738 OFFCURVE",
"118 768 OFFCURVE",
"132 785 CURVE",
"132 441 LINE",
"49 441 LINE",
"49 422 LINE"
);
}
);
width = 252;
},
{
layerId = "5FCC83B7-30FF-48D6-91DC-2705669CF772";
paths = (
{
closed = 1;
nodes = (
"300 378 LINE",
"300 485 LINE",
"233 485 LINE",
"233 821 LINE",
"123 821 LINE",
"122 819 OFFCURVE",
"71 762 OFFCURVE",
"30 762 CURVE",
"30 653 LINE",
"61 653 OFFCURVE",
"109 687 OFFCURVE",
"123 706 CURVE",
"123 485 LINE",
"47 485 LINE",
"47 378 LINE"
);
}
);
width = 321;
}
);
unicode = 00B9;
userData = {
org.robofab.fontlab.mark = 0;
};
},
{
glyphname = ordmasculine;
lastChange = "2016-07-18 16:20:58 +0000";
layers = (
{
anchors = (
{
name = bottom;
position = "{292, 0}";
},
{
name = top;
position = "{293, 519}";
}
);
layerId = "9C43DE69-513E-4B89-A1B3-70D9BFAB8C3B";
paths = (
{
closed = 1;
nodes = (
"324 351 OFFCURVE",
"401 434 OFFCURVE",
"401 529 CURVE SMOOTH",
"401 627 OFFCURVE",
"323 709 OFFCURVE",
"224 709 CURVE SMOOTH",
"126 709 OFFCURVE",
"49 627 OFFCURVE",
"49 529 CURVE SMOOTH",
"49 434 OFFCURVE",
"125 351 OFFCURVE",
"224 351 CURVE SMOOTH"
);
},
{
closed = 1;
nodes = (
"140 370 OFFCURVE",
"71 441 OFFCURVE",
"71 528 CURVE SMOOTH",
"71 617 OFFCURVE",
"141 689 OFFCURVE",
"224 689 CURVE SMOOTH",
"309 689 OFFCURVE",
"379 618 OFFCURVE",
"379 530 CURVE SMOOTH",
"379 443 OFFCURVE",
"309 370 OFFCURVE",
"224 370 CURVE SMOOTH"
);
}
);
width = 450;
},
{
anchors = (
{
name = bottom;
position = "{273, 0}";
},
{
name = top;
position = "{274, 519}";
}
);
layerId = "5FCC83B7-30FF-48D6-91DC-2705669CF772";
paths = (
{
closed = 1;
nodes = (
"345 333 OFFCURVE",
"410 423 OFFCURVE",
"410 524 CURVE SMOOTH",
"410 626 OFFCURVE",
"345 715 OFFCURVE",
"219 715 CURVE SMOOTH",
"94 715 OFFCURVE",
"28 626 OFFCURVE",
"28 524 CURVE SMOOTH",
"28 423 OFFCURVE",
"94 333 OFFCURVE",
"219 333 CURVE SMOOTH"
);
},
{
closed = 1;
nodes = (
"185 445 OFFCURVE",
"161 475 OFFCURVE",
"161 524 CURVE SMOOTH",
"161 573 OFFCURVE",
"185 603 OFFCURVE",
"219 603 CURVE SMOOTH",
"253 603 OFFCURVE",
"277 573 OFFCURVE",
"277 524 CURVE SMOOTH",
"277 475 OFFCURVE",
"253 445 OFFCURVE",
"219 445 CURVE SMOOTH"
);
}
);
width = 438;
}
);
unicode = 00BA;
userData = {
org.robofab.fontlab.mark = 0;
};
},
{
glyphname = AE;
lastChange = "2016-07-18 16:20:58 +0000";
layers = (
{
anchors = (
{
name = top;
position = "{464, 707}";
}
);
layerId = "9C43DE69-513E-4B89-A1B3-70D9BFAB8C3B";
paths = (
{
closed = 1;
nodes = (
"-4 0 LINE",
"163 254 LINE",
"444 254 LINE",
"444 0 LINE",
"910 0 LINE",
"910 20 LINE",
"464 20 LINE",
"464 353 LINE",
"847 353 LINE",
"847 373 LINE",
"464 373 LINE",
"464 690 LINE",
"901 690 LINE",
"901 710 LINE",
"439 710 LINE",
"-29 0 LINE"
);
},
{
closed = 1;
nodes = (
"444 678 LINE",
"444 274 LINE",
"175 274 LINE"
);
}
);
width = 962;
},
{
anchors = (
{
name = top;
position = "{625, 710}";
}
);
layerId = "5FCC83B7-30FF-48D6-91DC-2705669CF772";
paths = (
{
closed = 1;
nodes = (
"180 0 LINE",
"255 139 LINE",
"456 139 LINE",
"456 0 LINE",
"941 0 LINE",
"941 170 LINE",
"650 170 LINE",
"650 276 LINE",
"878 276 LINE",
"878 446 LINE",
"650 446 LINE",
"650 540 LINE",
"932 540 LINE",
"932 710 LINE",
"405 710 LINE",
"-26 0 LINE"
);
},
{
closed = 1;
nodes = (
"441 495 LINE",
"441 309 LINE",
"337 309 LINE"
);
}
);
width = 971;
}
);
unicode = 00C6;
userData = {
org.robofab.fontlab.mark = 0;
};
},
{
glyphname = Eth;
lastChange = "2016-07-18 14:58:42 +0000";
layers = (
{
components = (
{
name = D;
transform = "{1, 0, 0, 1, 7, 0}";
}
);
layerId = "9C43DE69-513E-4B89-A1B3-70D9BFAB8C3B";
paths = (
{
closed = 1;
nodes = (
"318 347 LINE",
"318 367 LINE",
"35 367 LINE",
"35 347 LINE"
);
}
);
width = 718;
},
{
components = (
{
name = D;
transform = "{1, 0, 0, 1, 4, 0}";
}
);
layerId = "5FCC83B7-30FF-48D6-91DC-2705669CF772";
paths = (
{
closed = 1;
nodes = (
"374 287 LINE",
"374 427 LINE",
"28 427 LINE",
"28 287 LINE"
);
}
);
width = 720;
}
);
unicode = 00D0;
userData = {
org.robofab.fontlab.mark = 0;
};
},
{
glyphname = multiply;
lastChange = "2016-07-18 16:20:58 +0000";
layers = (
{
layerId = "9C43DE69-513E-4B89-A1B3-70D9BFAB8C3B";
paths = (
{
closed = 1;
nodes = (
"220 256 LINE",
"355 121 LINE",
"370 135 LINE",
"234 270 LINE",
"370 406 LINE",
"356 421 LINE",
"220 285 LINE",
"85 420 LINE",
"70 406 LINE",
"205 270 LINE",
"71 136 LINE",
"85 121 LINE"
);
}
);
width = 440;
},
{
layerId = "5FCC83B7-30FF-48D6-91DC-2705669CF772";
paths = (
{
closed = 1;
nodes = (
"245 160 LINE",
"332 73 LINE",
"451 191 LINE",
"363 278 LINE",
"443 358 LINE",
"326 476 LINE",
"246 396 LINE",
"166 476 LINE",
"47 358 LINE",
"127 277 LINE",
"41 191 LINE",
"158 73 LINE"
);
}
);
width = 492;
}
);
unicode = 00D7;
userData = {
org.robofab.fontlab.mark = 0;
};
},
{
glyphname = Thorn;
lastChange = "2016-07-18 16:20:58 +0000";
layers = (
{
layerId = "9C43DE69-513E-4B89-A1B3-70D9BFAB8C3B";
paths = (
{
closed = 1;
nodes = (
"119 0 LINE",
"119 129 LINE",
"375 129 LINE SMOOTH",
"490 129 OFFCURVE",
"568 234 OFFCURVE",
"568 345 CURVE SMOOTH",
"568 451 OFFCURVE",
"484 560 OFFCURVE",
"368 560 CURVE",
"119 560 LINE",
"119 710 LINE",
"99 710 LINE",
"99 0 LINE"
);
},
{
closed = 1;
nodes = (
"119 540 LINE",
"368 540 LINE SMOOTH",
"468 540 OFFCURVE",
"548 446 OFFCURVE",
"548 345 CURVE SMOOTH",
"548 249 OFFCURVE",
"483 149 OFFCURVE",
"375 149 CURVE",
"119 149 LINE"
);
}
);
width = 599;
},
{
layerId = "5FCC83B7-30FF-48D6-91DC-2705669CF772";
paths = (
{
closed = 1;
nodes = (
"256 0 LINE",
"256 101 LINE",
"357 101 LINE SMOOTH",
"497 101 OFFCURVE",
"591 220 OFFCURVE",
"591 347 CURVE SMOOTH",
"591 468 OFFCURVE",
"491 592 OFFCURVE",
"352 592 CURVE SMOOTH",
"256 592 LINE",
"256 710 LINE",
"61 710 LINE",
"61 0 LINE"
);
},
{
closed = 1;
nodes = (
"256 422 LINE",
"342 422 LINE SMOOTH",
"367 422 OFFCURVE",
"396 396 OFFCURVE",
"396 347 CURVE SMOOTH",
"396 300 OFFCURVE",
"372 271 OFFCURVE",
"347 271 CURVE SMOOTH",
"256 271 LINE"
);
}
);
width = 605;
}
);
unicode = 00DE;
userData = {
org.robofab.fontlab.mark = 0;
};
},
{
glyphname = germandbls;
lastChange = "2016-07-18 16:20:58 +0000";
layers = (
{
layerId = "9C43DE69-513E-4B89-A1B3-70D9BFAB8C3B";
paths = (
{
closed = 1;
nodes = (
"405 0 OFFCURVE",
"500 74 OFFCURVE",
"500 203 CURVE SMOOTH",
"500 308 OFFCURVE",
"438 381 OFFCURVE",
"328 404 CURVE",
"395 417 OFFCURVE",
"448 484 OFFCURVE",
"448 557 CURVE SMOOTH",
"448 646 OFFCURVE",
"370 714 OFFCURVE",
"268 714 CURVE SMOOTH",
"159 714 OFFCURVE",
"84 632 OFFCURVE",
"84 509 CURVE SMOOTH",
"84 0 LINE",
"104 0 LINE",
"104 509 LINE SMOOTH",
"104 621 OFFCURVE",
"168 694 OFFCURVE",
"267 694 CURVE SMOOTH",
"358 694 OFFCURVE",
"428 633 OFFCURVE",
"428 552 CURVE SMOOTH",
"428 473 OFFCURVE",
"362 413 OFFCURVE",
"274 413 CURVE SMOOTH",
"258 413 LINE",
"258 393 LINE",
"275 393 LINE SMOOTH",
"397 393 OFFCURVE",
"480 316 OFFCURVE",
"480 202 CURVE SMOOTH",
"480 84 OFFCURVE",
"390 16 OFFCURVE",
"230 13 CURVE",
"230 -6 LINE"
);
}
);
width = 546;
},
{
layerId = "5FCC83B7-30FF-48D6-91DC-2705669CF772";
paths = (
{
closed = 1;
nodes = (
"389 -6 OFFCURVE",
"544 40 OFFCURVE",
"544 213 CURVE SMOOTH",
"544 309 OFFCURVE",
"496 374 OFFCURVE",
"421 403 CURVE",
"458 422 OFFCURVE",
"492 479 OFFCURVE",
"492 546 CURVE SMOOTH",
"492 653 OFFCURVE",
"406 714 OFFCURVE",
"288 714 CURVE SMOOTH",
"153 714 OFFCURVE",
"48 635 OFFCURVE",
"48 529 CURVE SMOOTH",
"48 0 LINE",
"228 0 LINE",
"228 494 LINE SMOOTH",
"228 507 OFFCURVE",
"228 554 OFFCURVE",
"269 554 CURVE SMOOTH",
"271 554 OFFCURVE",
"312 554 OFFCURVE",
"312 512 CURVE SMOOTH",
"312 490 OFFCURVE",
"301 473 OFFCURVE",
"273 473 CURVE SMOOTH",
"252 473 LINE",
"252 303 LINE",
"275 303 LINE SMOOTH",
"298 303 OFFCURVE",
"344 285 OFFCURVE",
"344 237 CURVE SMOOTH",
"344 192 OFFCURVE",
"303 168 OFFCURVE",
"254 168 CURVE",
"254 -6 LINE"
);
}
);
width = 563;
}
);
unicode = 00DF;
userData = {
org.robofab.fontlab.mark = 0;
};
},
{
glyphname = ae;
lastChange = "2016-07-18 16:20:58 +0000";
layers = (
{
anchors = (
{
name = top;
position = "{436, 519}";
}
);
layerId = "9C43DE69-513E-4B89-A1B3-70D9BFAB8C3B";
paths = (
{
closed = 1;
nodes = (
"292 -10 OFFCURVE",
"399 25 OFFCURVE",
"441 111 CURVE",
"486 38 OFFCURVE",
"562 -10 OFFCURVE",
"648 -10 CURVE SMOOTH",
"738 -10 OFFCURVE",
"826 43 OFFCURVE",
"854 114 CURVE",
"835 119 LINE",
"806 55 OFFCURVE",
"729 10 OFFCURVE",
"649 10 CURVE SMOOTH",
"528 10 OFFCURVE",
"428 114 OFFCURVE",
"418 248 CURVE",
"893 248 LINE",
"893 259 LINE SMOOTH",
"892 408 OFFCURVE",
"781 527 OFFCURVE",
"643 527 CURVE SMOOTH",
"555 527 OFFCURVE",
"478 477 OFFCURVE",
"435 403 CURVE",
"410 481 OFFCURVE",
"346 527 OFFCURVE",
"257 527 CURVE SMOOTH",
"203 527 OFFCURVE",
"143 504 OFFCURVE",
"77 459 CURVE",
"89 443 LINE",
"147 484 OFFCURVE",
"207 507 OFFCURVE",
"257 507 CURVE SMOOTH",
"342 507 OFFCURVE",
"404 456 OFFCURVE",
"421 376 CURVE",
"408 345 OFFCURVE",
"400 312 OFFCURVE",
"398 277 CURVE",
"354 289 OFFCURVE",
"301 297 OFFCURVE",
"253 297 CURVE SMOOTH",
"127 297 OFFCURVE",
"39 236 OFFCURVE",
"39 149 CURVE SMOOTH",
"39 60 OFFCURVE",
"113 -10 OFFCURVE",
"207 -10 CURVE SMOOTH"
);
},
{
closed = 1;
nodes = (
"124 10 OFFCURVE",
"59 71 OFFCURVE",
"59 149 CURVE SMOOTH",
"59 226 OFFCURVE",
"137 277 OFFCURVE",
"253 277 CURVE SMOOTH",
"304 277 OFFCURVE",
"352 270 OFFCURVE",
"398 256 CURVE",
"399 213 OFFCURVE",
"409 173 OFFCURVE",
"427 137 CURVE",
"425 126 OFFCURVE",
"420 114 OFFCURVE",
"412 102 CURVE SMOOTH",
"376 46 OFFCURVE",
"296 10 OFFCURVE",
"207 10 CURVE SMOOTH"
);
},
{
closed = 1;
nodes = (
"425 405 OFFCURVE",
"521 507 OFFCURVE",
"644 507 CURVE SMOOTH",
"767 507 OFFCURVE",
"863 407 OFFCURVE",
"872 268 CURVE",
"418 268 LINE"
);
}
);
width = 928;
},
{
anchors = (
{
name = top;
position = "{465, 526}";
}
);
layerId = "5FCC83B7-30FF-48D6-91DC-2705669CF772";
paths = (
{
closed = 1;
nodes = (
"270 -10 OFFCURVE",
"356 20 OFFCURVE",
"407 92 CURVE",
"455 31 OFFCURVE",
"534 -10 OFFCURVE",
"640 -10 CURVE SMOOTH",
"768 -10 OFFCURVE",
"859 49 OFFCURVE",
"902 133 CURVE",
"741 179 LINE",
"729 146 OFFCURVE",
"687 126 OFFCURVE",
"646 126 CURVE SMOOTH",
"602 126 OFFCURVE",
"558 149 OFFCURVE",
"554 205 CURVE",
"923 205 LINE",
"926 221 OFFCURVE",
"928 243 OFFCURVE",
"928 263 CURVE SMOOTH",
"928 408 OFFCURVE",
"828 536 OFFCURVE",
"640 536 CURVE SMOOTH",
"568 536 OFFCURVE",
"510 517 OFFCURVE",
"465 486 CURVE",
"420 519 OFFCURVE",
"358 536 OFFCURVE",
"280 536 CURVE SMOOTH",
"190 536 OFFCURVE",
"113 514 OFFCURVE",
"43 469 CURVE",
"98 351 LINE",
"154 388 OFFCURVE",
"202 408 OFFCURVE",
"261 408 CURVE SMOOTH",
"325 408 OFFCURVE",
"351 384 OFFCURVE",
"352 335 CURVE",
"352 319 LINE",
"325 332 OFFCURVE",
"287 339 OFFCURVE",
"246 339 CURVE SMOOTH",
"113 339 OFFCURVE",
"19 265 OFFCURVE",
"19 159 CURVE SMOOTH",
"19 62 OFFCURVE",
"98 -10 OFFCURVE",
"203 -10 CURVE SMOOTH"
);
},
{
closed = 1;
nodes = (
"224 126 OFFCURVE",
"198 147 OFFCURVE",
"198 176 CURVE SMOOTH",
"198 210 OFFCURVE",
"233 236 OFFCURVE",
"279 236 CURVE SMOOTH",
"300 236 OFFCURVE",
"330 230 OFFCURVE",
"352 222 CURVE",
"352 183 LINE SMOOTH",
"352 170 OFFCURVE",
"342 156 OFFCURVE",
"327 146 CURVE SMOOTH",
"309 134 OFFCURVE",
"283 126 OFFCURVE",
"260 126 CURVE SMOOTH"
);
},
{
closed = 1;
nodes = (
"556 370 OFFCURVE",
"589 401 OFFCURVE",
"637 401 CURVE SMOOTH",
"685 401 OFFCURVE",
"718 370 OFFCURVE",
"724 319 CURVE",
"550 319 LINE"
);
}
);
width = 942;
}
);
unicode = 00E6;
userData = {
org.robofab.fontlab.mark = 0;
};
},
{
glyphname = eth;
lastChange = "2016-07-18 16:20:58 +0000";
layers = (
{
layerId = "9C43DE69-513E-4B89-A1B3-70D9BFAB8C3B";
paths = (
{
closed = 1;
nodes = (
"431 -10 OFFCURVE",
"542 108 OFFCURVE",
"542 246 CURVE SMOOTH",
"542 420 OFFCURVE",
"509 575 OFFCURVE",
"249 730 CURVE",
"220 730 LINE",
"457 593 OFFCURVE",
"509 457 OFFCURVE",
"522 330 CURVE",
"487 415 OFFCURVE",
"399 475 OFFCURVE",
"295 475 CURVE SMOOTH",
"161 475 OFFCURVE",
"48 364 OFFCURVE",
"48 232 CURVE SMOOTH",
"48 101 OFFCURVE",
"158 -10 OFFCURVE",
"295 -10 CURVE SMOOTH"
);
},
{
closed = 1;
nodes = (
"170 10 OFFCURVE",
"68 110 OFFCURVE",
"68 230 CURVE SMOOTH",
"68 352 OFFCURVE",
"172 455 OFFCURVE",
"295 455 CURVE SMOOTH",
"418 455 OFFCURVE",
"522 360 OFFCURVE",
"522 247 CURVE SMOOTH",
"522 119 OFFCURVE",
"418 10 OFFCURVE",
"294 10 CURVE SMOOTH"
);
},
{
closed = 1;
nodes = (
"375 636 LINE",
"471 699 LINE",
"461 713 LINE",
"355 643 LINE",
"230 561 LINE",
"240 547 LINE"
);
}
);
width = 593;
},
{
layerId = "5FCC83B7-30FF-48D6-91DC-2705669CF772";
paths = (
{
closed = 1;
nodes = (
"489 -10 OFFCURVE",
"598 103 OFFCURVE",
"598 291 CURVE SMOOTH",
"598 480 OFFCURVE",
"487 667 OFFCURVE",
"338 730 CURVE",
"108 730 LINE",
"277 646 OFFCURVE",
"369 551 OFFCURVE",
"403 425 CURVE",
"365 454 OFFCURVE",
"313 471 OFFCURVE",
"260 471 CURVE SMOOTH",
"126 471 OFFCURVE",
"22 367 OFFCURVE",
"22 234 CURVE SMOOTH",
"22 91 OFFCURVE",
"141 -10 OFFCURVE",
"310 -10 CURVE SMOOTH"
);
},
{
closed = 1;
nodes = (
"254 150 OFFCURVE",
"217 184 OFFCURVE",
"217 235 CURVE SMOOTH",
"217 286 OFFCURVE",
"254 320 OFFCURVE",
"310 320 CURVE SMOOTH",
"366 320 OFFCURVE",
"403 286 OFFCURVE",
"403 235 CURVE SMOOTH",
"403 184 OFFCURVE",
"366 150 OFFCURVE",
"310 150 CURVE SMOOTH"
);
},
{
closed = 1;
nodes = (
"375 563 LINE",
"433 580 LINE",
"551 641 LINE",
"499 712 LINE",
"376 648 LINE",
"322 634 LINE",
"216 581 LINE",
"268 510 LINE"
);
}
);
width = 621;
}
);
unicode = 00F0;
userData = {
org.robofab.fontlab.mark = 0;
};
},
{
glyphname = divide;
lastChange = "2016-07-18 14:58:42 +0000";
layers = (
{
layerId = "9C43DE69-513E-4B89-A1B3-70D9BFAB8C3B";
paths = (
{
closed = 1;
nodes = (
"475 261 LINE",
"475 281 LINE",
"72 281 LINE",
"72 261 LINE"
);
},
{
closed = 1;
nodes = (
"283 92 LINE",
"283 156 LINE",
"263 156 LINE",
"263 92 LINE"
);
},
{
closed = 1;
nodes = (
"283 385 LINE",
"283 449 LINE",
"263 449 LINE",
"263 385 LINE"
);
}
);
width = 546;
},
{
layerId = "5FCC83B7-30FF-48D6-91DC-2705669CF772";
paths = (
{
closed = 1;
nodes = (
"445 235 LINE",
"445 385 LINE",
"41 385 LINE",
"41 235 LINE"
);
},
{
closed = 1;
nodes = (
"323 27 LINE",
"323 187 LINE",
"164 187 LINE",
"164 27 LINE"
);
},
{
closed = 1;
nodes = (
"323 435 LINE",
"323 595 LINE",
"164 595 LINE",
"164 435 LINE"
);
}
);
width = 485;
}
);
unicode = 00F7;
userData = {
org.robofab.fontlab.mark = 0;
};
},
{
glyphname = oslash;
lastChange = "2016-07-18 16:20:58 +0000";
layers = (
{
layerId = "9C43DE69-513E-4B89-A1B3-70D9BFAB8C3B";
paths = (
{
closed = 1;
nodes = (
"429 -10 OFFCURVE",
"540 113 OFFCURVE",
"540 258 CURVE SMOOTH",
"540 404 OFFCURVE",
"427 527 OFFCURVE",
"293 527 CURVE SMOOTH",
"159 527 OFFCURVE",
"46 404 OFFCURVE",
"46 258 CURVE SMOOTH",
"46 113 OFFCURVE",
"156 -10 OFFCURVE",
"293 -10 CURVE SMOOTH"
);
},
{
closed = 1;
nodes = (
"148 0 LINE",
"171 38 LINE",
"154 51 LINE",
"123 0 LINE"
);
},
{
closed = 1;
nodes = (
"168 10 OFFCURVE",
"66 122 OFFCURVE",
"66 256 CURVE SMOOTH",
"66 392 OFFCURVE",
"170 507 OFFCURVE",
"293 507 CURVE SMOOTH",
"416 507 OFFCURVE",
"520 393 OFFCURVE",
"520 259 CURVE SMOOTH",
"520 124 OFFCURVE",
"416 10 OFFCURVE",
"292 10 CURVE SMOOTH"
);
},
{
closed = 1;
nodes = (
"154 51 LINE",
"416 479 LINE",
"434 466 LINE",
"171 38 LINE"
);
},
{
closed = 1;
nodes = (
"466 519 LINE",
"440 519 LINE",
"416 479 LINE",
"434 466 LINE"
);
}
);
width = 586;
},
{
layerId = "5FCC83B7-30FF-48D6-91DC-2705669CF772";
paths = (
{
closed = 1;
nodes = (
"495 -10 OFFCURVE",
"595 119 OFFCURVE",
"595 263 CURVE SMOOTH",
"595 408 OFFCURVE",
"495 536 OFFCURVE",
"307 536 CURVE SMOOTH",
"119 536 OFFCURVE",
"19 408 OFFCURVE",
"19 263 CURVE SMOOTH",
"19 119 OFFCURVE",
"119 -10 OFFCURVE",
"307 -10 CURVE SMOOTH"
);
},
{
closed = 1;
nodes = (
"114 -6 LINE",
"211 104 LINE",
"159 158 LINE",
"14 -6 LINE"
);
},
{
closed = 1;
nodes = (
"253 150 OFFCURVE",
"214 193 OFFCURVE",
"214 263 CURVE SMOOTH",
"214 333 OFFCURVE",
"253 376 OFFCURVE",
"307 376 CURVE SMOOTH",
"361 376 OFFCURVE",
"400 333 OFFCURVE",
"400 263 CURVE SMOOTH",
"400 193 OFFCURVE",
"361 150 OFFCURVE",
"307 150 CURVE SMOOTH"
);
},
{
closed = 1;
nodes = (
"174 169 LINE",
"395 418 LINE",
"452 381 LINE",
"221 121 LINE"
);
},
{
closed = 1;
nodes = (
"591 532 LINE",
"490 532 LINE",
"404 435 LINE",
"467 393 LINE"
);
}
);
width = 614;
}
);
unicode = 00F8;
userData = {
org.robofab.fontlab.mark = 0;
};
},
{
glyphname = thorn;
lastChange = "2016-07-18 16:20:58 +0000";
layers = (
{
layerId = "9C43DE69-513E-4B89-A1B3-70D9BFAB8C3B";
paths = (
{
closed = 1;
nodes = (
"104 -213 LINE",
"104 108 LINE",
"145 42 OFFCURVE",
"225 -10 OFFCURVE",
"307 -10 CURVE SMOOTH",
"448 -10 OFFCURVE",
"553 117 OFFCURVE",
"557 258 CURVE",
"557 386 OFFCURVE",
"468 527 OFFCURVE",
"316 527 CURVE SMOOTH",
"225 527 OFFCURVE",
"157 473 OFFCURVE",
"104 398 CURVE",
"104 710 LINE",
"84 710 LINE",
"84 -213 LINE"
);
},
{
closed = 1;
nodes = (
"226 10 OFFCURVE",
"104 84 OFFCURVE",
"104 169 CURVE SMOOTH",
"104 356 LINE",
"143 435 OFFCURVE",
"217 507 OFFCURVE",
"316 507 CURVE SMOOTH",
"447 507 OFFCURVE",
"537 386 OFFCURVE",
"537 258 CURVE SMOOTH",
"537 135 OFFCURVE",
"441 10 OFFCURVE",
"307 10 CURVE SMOOTH"
);
}
);
width = 603;
},
{
layerId = "5FCC83B7-30FF-48D6-91DC-2705669CF772";
paths = (
{
closed = 1;
nodes = (
"243 -213 LINE",
"243 -13 LINE",
"243 -15 OFFCURVE",
"262 -31 OFFCURVE",
"312 -31 CURVE SMOOTH",
"457 -31 OFFCURVE",
"581 104 OFFCURVE",
"581 255 CURVE SMOOTH",
"581 393 OFFCURVE",
"478 544 OFFCURVE",
"319 544 CURVE SMOOTH",
"262 544 OFFCURVE",
"243 525 OFFCURVE",
"243 525 CURVE",
"243 710 LINE",
"48 710 LINE",
"48 -213 LINE"
);
},
{
closed = 1;
nodes = (
"270 139 OFFCURVE",
"243 166 OFFCURVE",
"243 179 CURVE",
"243 327 LINE",
"259 356 OFFCURVE",
"276 374 OFFCURVE",
"307 374 CURVE SMOOTH",
"359 374 OFFCURVE",
"386 323 OFFCURVE",
"386 259 CURVE SMOOTH",
"386 187 OFFCURVE",
"352 139 OFFCURVE",
"305 139 CURVE SMOOTH"
);
}
);
width = 599;
}
);
unicode = 00FE;
userData = {
org.robofab.fontlab.mark = 0;
};
},
{
glyphname = Dcroat;
lastChange = "2016-07-18 14:58:42 +0000";
layers = (
{
components = (
{
name = D;
transform = "{1, 0, 0, 1, 7, 0}";
}
);
layerId = "9C43DE69-513E-4B89-A1B3-70D9BFAB8C3B";
paths = (
{
closed = 1;
nodes = (
"318 347 LINE",
"318 367 LINE",
"35 367 LINE",
"35 347 LINE"
);
}
);
width = 718;
},
{
components = (
{
name = D;
transform = "{1, 0, 0, 1, 4, 0}";
}
);
layerId = "5FCC83B7-30FF-48D6-91DC-2705669CF772";
paths = (
{
closed = 1;
nodes = (
"374 287 LINE",
"374 427 LINE",
"28 427 LINE",
"28 287 LINE"
);
}
);
width = 720;
}
);
unicode = 0110;
userData = {
org.robofab.fontlab.mark = 0;
};
},
{
glyphname = dcroat;
lastChange = "2016-07-18 14:58:42 +0000";
layers = (
{
components = (
{
name = d;
}
);
layerId = "9C43DE69-513E-4B89-A1B3-70D9BFAB8C3B";
paths = (
{
closed = 1;
nodes = (
"595 633 LINE",
"595 653 LINE",
"375 653 LINE",
"375 633 LINE"
);
}
);
width = 604;
},
{
components = (
{
name = d;
}
);
layerId = "5FCC83B7-30FF-48D6-91DC-2705669CF772";
paths = (
{
closed = 1;
nodes = (
"657 579 LINE",
"657 688 LINE",
"322 688 LINE",
"322 579 LINE"
);
}
);
width = 665;
}
);
unicode = 0111;
userData = {
org.robofab.fontlab.mark = 0;
};
},
{
glyphname = Hbar;
lastChange = "2016-07-18 14:58:42 +0000";
layers = (
{
components = (
{
name = H;
transform = "{1, 0, 0, 1, 5, 0}";
}
);
layerId = "9C43DE69-513E-4B89-A1B3-70D9BFAB8C3B";
paths = (
{
closed = 1;
nodes = (
"687 554 LINE",
"687 574 LINE",
"54 574 LINE",
"54 554 LINE"
);
}
);
width = 741;
},
{
components = (
{
name = H;
transform = "{1, 0, 0, 1, 3, 0}";
}
);
layerId = "5FCC83B7-30FF-48D6-91DC-2705669CF772";
paths = (
{
closed = 1;
nodes = (
"742 538 LINE",
"742 626 LINE",
"14 626 LINE",
"14 538 LINE"
);
}
);
width = 756;
}
);
unicode = 0126;
userData = {
org.robofab.fontlab.mark = 0;
};
},
{
glyphname = hbar;
lastChange = "2016-07-18 14:58:42 +0000";
layers = (
{
components = (
{
name = h;
}
);
layerId = "9C43DE69-513E-4B89-A1B3-70D9BFAB8C3B";
paths = (
{
closed = 1;
nodes = (
"230 633 LINE",
"230 653 LINE",
"10 653 LINE",
"10 633 LINE"
);
}
);
width = 565;
},
{
components = (
{
name = h;
}
);
layerId = "5FCC83B7-30FF-48D6-91DC-2705669CF772";
paths = (
{
closed = 1;
nodes = (
"353 579 LINE",
"353 688 LINE",
"18 688 LINE",
"18 579 LINE"
);
}
);
width = 621;
}
);
unicode = 0127;
userData = {
org.robofab.fontlab.mark = 0;
};
},
{
glyphname = kgreenlandic;
lastChange = "2016-07-18 16:20:58 +0000";
layers = (
{
layerId = "9C43DE69-513E-4B89-A1B3-70D9BFAB8C3B";
paths = (
{
closed = 1;
nodes = (
"104 0 LINE",
"104 169 LINE",
"245 297 LINE",
"466 0 LINE",
"490 0 LINE",
"260 311 LINE",
"485 517 LINE",
"458 517 LINE",
"104 196 LINE",
"104 519 LINE",
"84 519 LINE",
"84 0 LINE"
);
}
);
width = 508;
},
{
layerId = "5FCC83B7-30FF-48D6-91DC-2705669CF772";
paths = (
{
closed = 1;
nodes = (
"238 0 LINE",
"238 150 LINE",
"276 192 LINE",
"395 0 LINE",
"596 0 LINE",
"397 296 LINE",
"578 526 LINE",
"378 526 LINE",
"238 331 LINE",
"238 526 LINE",
"48 526 LINE",
"48 0 LINE"
);
}
);
width = 582;
}
);
unicode = 0138;
userData = {
org.robofab.fontlab.mark = 0;
};
},
{
glyphname = Lslash;
lastChange = "2016-07-18 14:58:42 +0000";
layers = (
{
components = (
{
name = L;
transform = "{1, 0, 0, 1, 7, 0}";
}
);
layerId = "9C43DE69-513E-4B89-A1B3-70D9BFAB8C3B";
paths = (
{
closed = 1;
nodes = (
"328 506 LINE",
"314 521 LINE",
"29 236 LINE",
"43 221 LINE"
);
}
);
width = 586;
},
{
components = (
{
name = L;
transform = "{1, 0, 0, 1, 12, 0}";
}
);
layerId = "5FCC83B7-30FF-48D6-91DC-2705669CF772";
paths = (
{
closed = 1;
nodes = (
"382 426 LINE",
"339 527 LINE",
"-17 353 LINE",
"26 252 LINE"
);
}
);
width = 597;
}
);
unicode = 0141;
userData = {
org.robofab.fontlab.mark = 0;
};
},
{
glyphname = lslash;
lastChange = "2016-07-18 14:58:42 +0000";
layers = (
{
components = (
{
name = l;
transform = "{1, 0, 0, 1, 14, 0}";
}
);
layerId = "9C43DE69-513E-4B89-A1B3-70D9BFAB8C3B";
paths = (
{
closed = 1;
nodes = (
"231 504 LINE",
"216 518 LINE",
"16 318 LINE",
"31 304 LINE"
);
}
);
width = 253;
},
{
components = (
{
name = l;
transform = "{1, 0, 0, 1, 28, 0}";
}
);
layerId = "5FCC83B7-30FF-48D6-91DC-2705669CF772";
paths = (
{
closed = 1;
nodes = (
"388 426 LINE",
"345 527 LINE",
"-11 353 LINE",
"32 252 LINE"
);
}
);
width = 387;
}
);
unicode = 0142;
userData = {
org.robofab.fontlab.mark = 0;
};
},
{
glyphname = Eng;
lastChange = "2016-07-18 16:20:58 +0000";
layers = (
{
layerId = "9C43DE69-513E-4B89-A1B3-70D9BFAB8C3B";
paths = (
{
closed = 1;
nodes = (
"606 -170 OFFCURVE",
"677 -114 OFFCURVE",
"677 -36 CURVE SMOOTH",
"677 709 LINE",
"657 709 LINE",
"657 29 LINE",
"114 710 LINE",
"99 710 LINE",
"99 0 LINE",
"119 0 LINE",
"119 671 LINE",
"657 -4 LINE",
"657 -36 LINE SMOOTH",
"657 -100 OFFCURVE",
"598 -150 OFFCURVE",
"543 -150 CURVE SMOOTH",
"515 -150 OFFCURVE",
"484 -145 OFFCURVE",
"460 -124 CURVE",
"444 -136 LINE",
"470 -162 OFFCURVE",
"505 -170 OFFCURVE",
"544 -170 CURVE SMOOTH"
);
}
);
width = 776;
},
{
layerId = "5FCC83B7-30FF-48D6-91DC-2705669CF772";
paths = (
{
closed = 1;
nodes = (
"584 -209 OFFCURVE",
"673 -125 OFFCURVE",
"673 5 CURVE SMOOTH",
"673 709 LINE",
"478 709 LINE",
"478 359 LINE",
"211 710 LINE",
"61 710 LINE",
"61 0 LINE",
"256 0 LINE",
"256 343 LINE",
"483 44 LINE",
"483 -3 LINE SMOOTH",
"483 -30 OFFCURVE",
"468 -46 OFFCURVE",
"443 -46 CURVE SMOOTH",
"425 -46 OFFCURVE",
"407 -38 OFFCURVE",
"396 -26 CURVE",
"318 -155 LINE",
"359 -190 OFFCURVE",
"412 -209 OFFCURVE",
"467 -209 CURVE SMOOTH"
);
}
);
width = 735;
}
);
unicode = 014A;
userData = {
org.robofab.fontlab.mark = 0;
};
},
{
glyphname = eng;
lastChange = "2016-07-18 16:20:58 +0000";
layers = (
{
layerId = "9C43DE69-513E-4B89-A1B3-70D9BFAB8C3B";
paths = (
{
closed = 1;
nodes = (
"416 -170 OFFCURVE",
"487 -114 OFFCURVE",
"487 -36 CURVE SMOOTH",
"487 289 LINE SMOOTH",
"487 452 OFFCURVE",
"439 527 OFFCURVE",
"333 527 CURVE SMOOTH",
"240 527 OFFCURVE",
"147 469 OFFCURVE",
"104 385 CURVE",
"104 519 LINE",
"84 519 LINE",
"84 0 LINE",
"104 0 LINE",
"104 328 LINE",
"133 430 OFFCURVE",
"234 507 OFFCURVE",
"334 507 CURVE SMOOTH",
"427 507 OFFCURVE",
"467 440 OFFCURVE",
"467 289 CURVE SMOOTH",
"467 -36 LINE SMOOTH",
"467 -100 OFFCURVE",
"408 -150 OFFCURVE",
"353 -150 CURVE SMOOTH",
"325 -150 OFFCURVE",
"294 -145 OFFCURVE",
"270 -124 CURVE",
"254 -136 LINE",
"280 -162 OFFCURVE",
"315 -170 OFFCURVE",
"354 -170 CURVE SMOOTH"
);
}
);
width = 565;
},
{
layerId = "5FCC83B7-30FF-48D6-91DC-2705669CF772";
paths = (
{
closed = 1;
nodes = (
"489 -209 OFFCURVE",
"576 -119 OFFCURVE",
"576 12 CURVE SMOOTH",
"576 346 LINE SMOOTH",
"576 418 OFFCURVE",
"561 536 OFFCURVE",
"417 536 CURVE SMOOTH",
"326 536 OFFCURVE",
"256 505 OFFCURVE",
"219 448 CURVE",
"219 526 LINE",
"48 526 LINE",
"48 0 LINE",
"238 0 LINE",
"238 295 LINE",
"255 339 OFFCURVE",
"297 370 OFFCURVE",
"329 370 CURVE SMOOTH",
"360 370 OFFCURVE",
"387 348 OFFCURVE",
"387 296 CURVE SMOOTH",
"387 -3 LINE SMOOTH",
"387 -30 OFFCURVE",
"371 -46 OFFCURVE",
"346 -46 CURVE SMOOTH",
"328 -46 OFFCURVE",
"310 -38 OFFCURVE",
"299 -26 CURVE",
"221 -155 LINE",
"262 -190 OFFCURVE",
"315 -209 OFFCURVE",
"370 -209 CURVE SMOOTH"
);
}
);
width = 620;
}
);
unicode = 014B;
userData = {
org.robofab.fontlab.mark = 0;
};
},
{
glyphname = OE;
lastChange = "2016-07-18 16:20:58 +0000";
layers = (
{
layerId = "9C43DE69-513E-4B89-A1B3-70D9BFAB8C3B";
paths = (
{
closed = 1;
nodes = (
"525 -5 OFFCURVE",
"643 100 OFFCURVE",
"689 234 CURVE",
"689 0 LINE",
"1155 0 LINE",
"1155 20 LINE",
"709 20 LINE",
"709 353 LINE",
"1092 353 LINE",
"1092 373 LINE",
"709 373 LINE",
"709 690 LINE",
"1146 690 LINE",
"1146 710 LINE",
"689 710 LINE",
"689 475 LINE",
"645 606 OFFCURVE",
"530 715 OFFCURVE",
"379 715 CURVE SMOOTH",
"192 715 OFFCURVE",
"48 544 OFFCURVE",
"48 355 CURVE SMOOTH",
"48 173 OFFCURVE",
"184 -5 OFFCURVE",
"381 -5 CURVE SMOOTH"
);
},
{
closed = 1;
nodes = (
"199 15 OFFCURVE",
"68 178 OFFCURVE",
"68 355 CURVE SMOOTH",
"68 523 OFFCURVE",
"194 695 OFFCURVE",
"379 695 CURVE SMOOTH",
"555 695 OFFCURVE",
"689 532 OFFCURVE",
"689 356 CURVE SMOOTH",
"689 187 OFFCURVE",
"564 15 OFFCURVE",
"379 15 CURVE SMOOTH"
);
}
);
width = 1207;
},
{
layerId = "5FCC83B7-30FF-48D6-91DC-2705669CF772";
paths = (
{
closed = 1;
nodes = (
"417 -5 OFFCURVE",
"469 13 OFFCURVE",
"514 41 CURVE",
"514 0 LINE",
"1000 0 LINE",
"1000 170 LINE",
"709 170 LINE",
"709 276 LINE",
"937 276 LINE",
"937 446 LINE",
"709 446 LINE",
"709 540 LINE",
"991 540 LINE",
"991 710 LINE",
"514 710 LINE",
"514 670 LINE",
"470 698 OFFCURVE",
"420 715 OFFCURVE",
"365 715 CURVE SMOOTH",
"166 715 OFFCURVE",
"22 544 OFFCURVE",
"22 356 CURVE SMOOTH",
"22 173 OFFCURVE",
"158 -5 OFFCURVE",
"361 -5 CURVE SMOOTH"
);
},
{
closed = 1;
nodes = (
"266 168 OFFCURVE",
"220 259 OFFCURVE",
"220 354 CURVE SMOOTH",
"220 447 OFFCURVE",
"264 542 OFFCURVE",
"362 542 CURVE SMOOTH",
"458 542 OFFCURVE",
"505 452 OFFCURVE",
"505 356 CURVE SMOOTH",
"505 263 OFFCURVE",
"462 168 OFFCURVE",
"363 168 CURVE SMOOTH"
);
}
);
width = 1030;
}
);
unicode = 0152;
userData = {
org.robofab.fontlab.mark = 0;
};
},
{
glyphname = oe;
lastChange = "2016-07-18 16:20:58 +0000";
layers = (
{
layerId = "9C43DE69-513E-4B89-A1B3-70D9BFAB8C3B";
paths = (
{
closed = 1;
nodes = (
"402 -10 OFFCURVE",
"498 68 OFFCURVE",
"530 185 CURVE",
"562 72 OFFCURVE",
"667 -10 OFFCURVE",
"779 -10 CURVE SMOOTH",
"868 -10 OFFCURVE",
"956 42 OFFCURVE",
"986 114 CURVE",
"967 119 LINE",
"941 55 OFFCURVE",
"864 10 OFFCURVE",
"781 10 CURVE SMOOTH",
"655 10 OFFCURVE",
"550 115 OFFCURVE",
"540 248 CURVE",
"1015 248 LINE",
"1014 259 LINE SMOOTH",
"999 424 OFFCURVE",
"904 527 OFFCURVE",
"766 527 CURVE SMOOTH",
"648 527 OFFCURVE",
"556 452 OFFCURVE",
"528 332 CURVE",
"499 449 OFFCURVE",
"405 527 OFFCURVE",
"295 527 CURVE SMOOTH",
"157 527 OFFCURVE",
"46 406 OFFCURVE",
"46 257 CURVE SMOOTH",
"46 109 OFFCURVE",
"155 -10 OFFCURVE",
"291 -10 CURVE SMOOTH"
);
},
{
closed = 1;
nodes = (
"167 10 OFFCURVE",
"66 119 OFFCURVE",
"66 255 CURVE SMOOTH",
"66 393 OFFCURVE",
"169 507 OFFCURVE",
"294 507 CURVE SMOOTH",
"418 507 OFFCURVE",
"520 395 OFFCURVE",
"520 258 CURVE SMOOTH",
"520 121 OFFCURVE",
"418 10 OFFCURVE",
"292 10 CURVE SMOOTH"
);
},
{
closed = 1;
nodes = (
"547 405 OFFCURVE",
"643 507 OFFCURVE",
"766 507 CURVE SMOOTH",
"889 507 OFFCURVE",
"985 407 OFFCURVE",
"994 268 CURVE",
"540 268 LINE"
);
}
);
width = 1050;
},
{
layerId = "5FCC83B7-30FF-48D6-91DC-2705669CF772";
paths = (
{
closed = 1;
nodes = (
"375 -10 OFFCURVE",
"423 10 OFFCURVE",
"497 70 CURVE",
"571 11 OFFCURVE",
"621 -10 OFFCURVE",
"692 -10 CURVE SMOOTH",
"807 -10 OFFCURVE",
"905 44 OFFCURVE",
"951 133 CURVE",
"795 179 LINE",
"782 146 OFFCURVE",
"741 122 OFFCURVE",
"698 122 CURVE SMOOTH",
"646 122 OFFCURVE",
"606 157 OFFCURVE",
"603 205 CURVE",
"972 205 LINE",
"975 221 OFFCURVE",
"977 243 OFFCURVE",
"977 263 CURVE SMOOTH",
"977 422 OFFCURVE",
"859 536 OFFCURVE",
"693 536 CURVE SMOOTH",
"616 536 OFFCURVE",
"559 511 OFFCURVE",
"497 450 CURVE",
"443 509 OFFCURVE",
"383 536 OFFCURVE",
"303 536 CURVE SMOOTH",
"137 536 OFFCURVE",
"19 423 OFFCURVE",
"19 263 CURVE SMOOTH",
"19 103 OFFCURVE",
"137 -10 OFFCURVE",
"305 -10 CURVE SMOOTH"
);
},
{
closed = 1;
nodes = (
"251 150 OFFCURVE",
"214 195 OFFCURVE",
"214 263 CURVE SMOOTH",
"214 331 OFFCURVE",
"251 376 OFFCURVE",
"307 376 CURVE SMOOTH",
"363 376 OFFCURVE",
"400 331 OFFCURVE",
"400 263 CURVE SMOOTH",
"400 195 OFFCURVE",
"363 150 OFFCURVE",
"307 150 CURVE SMOOTH"
);
},
{
closed = 1;
nodes = (
"602 369 OFFCURVE",
"637 401 OFFCURVE",
"687 401 CURVE SMOOTH",
"736 401 OFFCURVE",
"771 369 OFFCURVE",
"777 319 CURVE",
"597 319 LINE"
);
}
);
width = 991;
}
);
unicode = 0153;
userData = {
org.robofab.fontlab.mark = 0;
};
},
{
glyphname = Tbar;
lastChange = "2016-07-18 14:58:42 +0000";
layers = (
{
components = (
{
name = T;
transform = "{1, 0, 0, 1, 20, 0}";
}
);
layerId = "9C43DE69-513E-4B89-A1B3-70D9BFAB8C3B";
paths = (
{
closed = 1;
nodes = (
"572 404 LINE",
"572 424 LINE",
"68 424 LINE",
"68 404 LINE"
);
}
);
width = 640;
},
{
components = (
{
name = T;
transform = "{1, 0, 0, 1, 11, 0}";
}
);
layerId = "5FCC83B7-30FF-48D6-91DC-2705669CF772";
paths = (
{
closed = 1;
nodes = (
"585 268 LINE",
"585 356 LINE",
"61 356 LINE",
"61 268 LINE"
);
}
);
width = 646;
}
);
unicode = 0166;
userData = {
org.robofab.fontlab.mark = 0;
};
},
{
glyphname = tbar;
lastChange = "2016-07-18 14:58:42 +0000";
layers = (
{
components = (
{
name = t;
transform = "{1, 0, 0, 1, 1, 0}";
}
);
layerId = "9C43DE69-513E-4B89-A1B3-70D9BFAB8C3B";
paths = (
{
closed = 1;
nodes = (
"247 339 LINE",
"247 359 LINE",
"27 359 LINE",
"27 339 LINE"
);
}
);
width = 297;
},
{
components = (
{
name = t;
transform = "{1, 0, 0, 1, 1, 0}";
}
);
layerId = "5FCC83B7-30FF-48D6-91DC-2705669CF772";
paths = (
{
closed = 1;
nodes = (
"378 227 LINE",
"378 336 LINE",
"20 336 LINE",
"20 227 LINE"
);
}
);
width = 424;
}
);
unicode = 0167;
userData = {
org.robofab.fontlab.mark = 0;
};
},
{
glyphname = Schwa;
lastChange = "2016-07-18 16:20:58 +0000";
layers = (
{
layerId = "9C43DE69-513E-4B89-A1B3-70D9BFAB8C3B";
paths = (
{
closed = 1;
nodes = (
"546 -10 OFFCURVE",
"691 149 OFFCURVE",
"691 346 CURVE SMOOTH",
"691 548 OFFCURVE",
"541 715 OFFCURVE",
"359 715 CURVE SMOOTH",
"239 715 OFFCURVE",
"123 643 OFFCURVE",
"86 548 CURVE",
"106 539 LINE",
"144 633 OFFCURVE",
"251 694 OFFCURVE",
"357 694 CURVE SMOOTH",
"521 694 OFFCURVE",
"656 552 OFFCURVE",
"669 362 CURVE",
"33 362 LINE",
"33 352 LINE SMOOTH",
"34 151 OFFCURVE",
"177 -10 OFFCURVE",
"366 -10 CURVE SMOOTH"
);
},
{
closed = 1;
nodes = (
"197 12 OFFCURVE",
"69 149 OFFCURVE",
"56 340 CURVE",
"669 340 LINE",
"660 152 OFFCURVE",
"530 12 OFFCURVE",
"364 12 CURVE SMOOTH"
);
}
);
width = 739;
},
{
layerId = "5FCC83B7-30FF-48D6-91DC-2705669CF772";
paths = (
{
closed = 1;
nodes = (
"611 -5 OFFCURVE",
"736 187 OFFCURVE",
"736 366 CURVE SMOOTH",
"736 523 OFFCURVE",
"607 714 OFFCURVE",
"375 714 CURVE SMOOTH",
"214 714 OFFCURVE",
"99 637 OFFCURVE",
"45 521 CURVE",
"248 464 LINE",
"263 514 OFFCURVE",
"321 543 OFFCURVE",
"377 543 CURVE SMOOTH",
"447 543 OFFCURVE",
"514 505 OFFCURVE",
"523 411 CURVE",
"18 411 LINE",
"15 391 OFFCURVE",
"12 363 OFFCURVE",
"12 338 CURVE SMOOTH",
"12 189 OFFCURVE",
"138 -5 OFFCURVE",
"375 -5 CURVE SMOOTH"
);
},
{
closed = 1;
nodes = (
"298 165 OFFCURVE",
"240 203 OFFCURVE",
"228 268 CURVE",
"518 268 LINE",
"507 203 OFFCURVE",
"453 165 OFFCURVE",
"378 165 CURVE SMOOTH"
);
}
);
width = 758;
}
);
unicode = 018F;
},
{
glyphname = florin;
lastChange = "2016-07-18 16:20:58 +0000";
layers = (
{
layerId = "9C43DE69-513E-4B89-A1B3-70D9BFAB8C3B";
paths = (
{
closed = 1;
nodes = (
"192 -170 OFFCURVE",
"263 -114 OFFCURVE",
"263 -36 CURVE SMOOTH",
"263 438 LINE",
"418 438 LINE",
"418 458 LINE",
"263 458 LINE",
"263 540 LINE SMOOTH",
"263 657 OFFCURVE",
"305 721 OFFCURVE",
"381 721 CURVE SMOOTH",
"412 721 OFFCURVE",
"443 710 OFFCURVE",
"459 694 CURVE",
"475 706 LINE",
"457 726 OFFCURVE",
"418 740 OFFCURVE",
"380 740 CURVE SMOOTH",
"294 740 OFFCURVE",
"243 666 OFFCURVE",
"243 540 CURVE SMOOTH",
"243 458 LINE",
"168 458 LINE",
"168 438 LINE",
"243 438 LINE",
"243 -36 LINE SMOOTH",
"243 -100 OFFCURVE",
"184 -150 OFFCURVE",
"129 -150 CURVE SMOOTH",
"101 -150 OFFCURVE",
"70 -145 OFFCURVE",
"46 -124 CURVE",
"30 -136 LINE",
"56 -162 OFFCURVE",
"91 -170 OFFCURVE",
"130 -170 CURVE SMOOTH"
);
}
);
width = 508;
},
{
layerId = "5FCC83B7-30FF-48D6-91DC-2705669CF772";
paths = (
{
closed = 1;
nodes = (
"295 -209 OFFCURVE",
"383 -123 OFFCURVE",
"383 2 CURVE SMOOTH",
"383 322 LINE",
"498 322 LINE",
"498 465 LINE",
"383 465 LINE",
"383 529 LINE SMOOTH",
"383 563 OFFCURVE",
"398 580 OFFCURVE",
"429 580 CURVE SMOOTH",
"449 580 OFFCURVE",
"478 574 OFFCURVE",
"500 566 CURVE",
"532 710 LINE",
"479 730 OFFCURVE",
"431 740 OFFCURVE",
"386 740 CURVE SMOOTH",
"270 740 OFFCURVE",
"193 654 OFFCURVE",
"193 522 CURVE SMOOTH",
"193 465 LINE",
"128 465 LINE",
"128 322 LINE",
"193 322 LINE",
"193 -3 LINE SMOOTH",
"193 -30 OFFCURVE",
"178 -46 OFFCURVE",
"153 -46 CURVE SMOOTH",
"135 -46 OFFCURVE",
"117 -38 OFFCURVE",
"106 -26 CURVE",
"28 -155 LINE",
"69 -190 OFFCURVE",
"122 -209 OFFCURVE",
"177 -209 CURVE SMOOTH"
);
}
);
width = 565;
}
);
unicode = 0192;
userData = {
org.robofab.fontlab.mark = 0;
};
},
{
glyphname = schwa;
lastChange = "2016-07-18 16:20:58 +0000";
layers = (
{
anchors = (
{
name = bottom;
position = "{285, 0}";
},
{
name = top;
position = "{281, 519}";
}
);
layerId = "9C43DE69-513E-4B89-A1B3-70D9BFAB8C3B";
paths = (
{
closed = 1;
nodes = (
"421 -10 OFFCURVE",
"530 108 OFFCURVE",
"530 254 CURVE SMOOTH",
"530 403 OFFCURVE",
"417 527 OFFCURVE",
"280 527 CURVE SMOOTH",
"190 527 OFFCURVE",
"102 474 OFFCURVE",
"74 403 CURVE",
"93 398 LINE",
"122 462 OFFCURVE",
"199 507 OFFCURVE",
"279 507 CURVE SMOOTH",
"400 507 OFFCURVE",
"500 403 OFFCURVE",
"510 269 CURVE",
"35 269 LINE",
"35 258 LINE",
"36 109 OFFCURVE",
"147 -10 OFFCURVE",
"285 -10 CURVE SMOOTH"
);
},
{
closed = 1;
nodes = (
"161 10 OFFCURVE",
"65 110 OFFCURVE",
"56 249 CURVE",
"510 249 LINE",
"503 112 OFFCURVE",
"407 10 OFFCURVE",
"284 10 CURVE SMOOTH"
);
}
);
width = 576;
},
{
layerId = "5FCC83B7-30FF-48D6-91DC-2705669CF772";
paths = (
{
closed = 1;
nodes = (
"490 -10 OFFCURVE",
"590 118 OFFCURVE",
"590 270 CURVE SMOOTH",
"590 411 OFFCURVE",
"487 536 OFFCURVE",
"302 536 CURVE SMOOTH",
"174 536 OFFCURVE",
"83 477 OFFCURVE",
"40 393 CURVE",
"201 347 LINE",
"213 380 OFFCURVE",
"255 400 OFFCURVE",
"296 400 CURVE SMOOTH",
"340 400 OFFCURVE",
"384 377 OFFCURVE",
"388 321 CURVE",
"19 321 LINE",
"16 305 OFFCURVE",
"14 283 OFFCURVE",
"14 263 CURVE SMOOTH",
"14 118 OFFCURVE",
"114 -10 OFFCURVE",
"302 -10 CURVE SMOOTH"
);
},
{
closed = 1;
nodes = (
"257 125 OFFCURVE",
"224 156 OFFCURVE",
"218 207 CURVE",
"392 207 LINE",
"386 156 OFFCURVE",
"353 125 OFFCURVE",
"305 125 CURVE SMOOTH"
);
}
);
width = 609;
}
);
unicode = 0259;
userData = {
org.robofab.fontlab.mark = 0;
};
},
{
glyphname = circumflex;
lastChange = "2016-07-18 16:20:58 +0000";
layers = (
{
anchors = (
{
name = _top;
position = "{151, 519}";
}
);
layerId = "9C43DE69-513E-4B89-A1B3-70D9BFAB8C3B";
paths = (
{
closed = 1;
nodes = (
"151 707 LINE",
"236 644 LINE",
"252 656 LINE",
"159 730 LINE",
"143 730 LINE",
"50 656 LINE",
"66 644 LINE"
);
}
);
width = 302;
},
{
anchors = (
{
name = _top;
position = "{201, 526}";
}
);
layerId = "5FCC83B7-30FF-48D6-91DC-2705669CF772";
paths = (
{
closed = 1;
nodes = (
"201 636 LINE",
"286 573 LINE",
"382 615 LINE",
"269 730 LINE",
"133 730 LINE",
"20 615 LINE",
"116 573 LINE"
);
}
);
width = 402;
}
);
unicode = 02C6;
userData = {
org.robofab.fontlab.mark = 0;
};
},
{
glyphname = caron;
lastChange = "2016-07-18 16:20:58 +0000";
layers = (
{
anchors = (
{
name = _top;
position = "{151, 519}";
}
);
layerId = "9C43DE69-513E-4B89-A1B3-70D9BFAB8C3B";
paths = (
{
closed = 1;
nodes = (
"159 644 LINE",
"252 718 LINE",
"236 730 LINE",
"151 667 LINE",
"66 730 LINE",
"50 718 LINE",
"143 644 LINE"
);
}
);
width = 302;
},
{
anchors = (
{
name = _top;
position = "{201, 526}";
}
);
layerId = "5FCC83B7-30FF-48D6-91DC-2705669CF772";
paths = (
{
closed = 1;
nodes = (
"269 573 LINE",
"382 688 LINE",
"286 730 LINE",
"201 667 LINE",
"116 730 LINE",
"20 688 LINE",
"133 573 LINE"
);
}
);
width = 402;
}
);
unicode = 02C7;
userData = {
org.robofab.fontlab.mark = 0;
};
},
{
glyphname = breve;
lastChange = "2016-07-18 16:20:58 +0000";
layers = (
{
anchors = (
{
name = _top;
position = "{124, 519}";
}
);
layerId = "9C43DE69-513E-4B89-A1B3-70D9BFAB8C3B";
paths = (
{
closed = 1;
nodes = (
"163 653 OFFCURVE",
"198 689 OFFCURVE",
"198 730 CURVE",
"180 730 LINE",
"176 697 OFFCURVE",
"151 670 OFFCURVE",
"124 670 CURVE SMOOTH",
"96 670 OFFCURVE",
"69 700 OFFCURVE",
"69 730 CURVE",
"50 730 LINE",
"50 689 OFFCURVE",
"85 653 OFFCURVE",
"124 653 CURVE SMOOTH"
);
}
);
width = 248;
},
{
anchors = (
{
name = _top;
position = "{184, 526}";
}
);
layerId = "5FCC83B7-30FF-48D6-91DC-2705669CF772";
paths = (
{
closed = 1;
nodes = (
"278 568 OFFCURVE",
"343 635 OFFCURVE",
"343 730 CURVE",
"245 730 LINE",
"241 683 OFFCURVE",
"215 649 OFFCURVE",
"184 649 CURVE SMOOTH",
"151 649 OFFCURVE",
"123 686 OFFCURVE",
"123 730 CURVE",
"25 730 LINE",
"25 635 OFFCURVE",
"90 568 OFFCURVE",
"184 568 CURVE SMOOTH"
);
}
);
width = 368;
}
);
unicode = 02D8;
userData = {
org.robofab.fontlab.mark = 0;
};
},
{
glyphname = dotaccent;
lastChange = "2016-07-18 14:58:42 +0000";
layers = (
{
anchors = (
{
name = _top;
position = "{60, 519}";
}
);
layerId = "9C43DE69-513E-4B89-A1B3-70D9BFAB8C3B";
paths = (
{
closed = 1;
nodes = (
"70 653 LINE",
"70 730 LINE",
"50 730 LINE",
"50 653 LINE"
);
}
);
width = 120;
},
{
anchors = (
{
name = _top;
position = "{135, 526}";
}
);
layerId = "5FCC83B7-30FF-48D6-91DC-2705669CF772";
paths = (
{
closed = 1;
nodes = (
"220 580 LINE",
"220 730 LINE",
"50 730 LINE",
"50 580 LINE"
);
}
);
width = 270;
}
);
unicode = 02D9;
userData = {
org.robofab.fontlab.mark = 0;
};
},
{
glyphname = ring;
lastChange = "2016-07-18 16:20:58 +0000";
layers = (
{
anchors = (
{
name = _top;
position = "{119, 519}";
}
);
layerId = "9C43DE69-513E-4B89-A1B3-70D9BFAB8C3B";
paths = (
{
closed = 1;
nodes = (
"151 616 OFFCURVE",
"176 641 OFFCURVE",
"176 673 CURVE SMOOTH",
"176 705 OFFCURVE",
"151 730 OFFCURVE",
"119 730 CURVE SMOOTH",
"87 730 OFFCURVE",
"62 705 OFFCURVE",
"62 673 CURVE SMOOTH",
"62 641 OFFCURVE",
"87 616 OFFCURVE",
"119 616 CURVE SMOOTH"
);
},
{
closed = 1;
nodes = (
"96 632 OFFCURVE",
"78 650 OFFCURVE",
"78 673 CURVE SMOOTH",
"78 698 OFFCURVE",
"97 714 OFFCURVE",
"119 714 CURVE SMOOTH",
"141 714 OFFCURVE",
"160 698 OFFCURVE",
"160 673 CURVE SMOOTH",
"160 649 OFFCURVE",
"139 632 OFFCURVE",
"119 632 CURVE SMOOTH"
);
}
);
width = 238;
},
{
anchors = (
{
name = _top;
position = "{137, 526}";
}
);
layerId = "5FCC83B7-30FF-48D6-91DC-2705669CF772";
paths = (
{
closed = 1;
nodes = (
"208 556 OFFCURVE",
"254 585 OFFCURVE",
"254 643 CURVE SMOOTH",
"254 701 OFFCURVE",
"208 730 OFFCURVE",
"137 730 CURVE SMOOTH",
"66 730 OFFCURVE",
"20 701 OFFCURVE",
"20 643 CURVE SMOOTH",
"20 585 OFFCURVE",
"66 556 OFFCURVE",
"137 556 CURVE SMOOTH"
);
},
{
closed = 1;
nodes = (
"114 610 OFFCURVE",
"97 624 OFFCURVE",
"97 644 CURVE SMOOTH",
"97 663 OFFCURVE",
"114 676 OFFCURVE",
"137 676 CURVE SMOOTH",
"160 676 OFFCURVE",
"177 663 OFFCURVE",
"177 644 CURVE SMOOTH",
"177 624 OFFCURVE",
"159 610 OFFCURVE",
"137 610 CURVE SMOOTH"
);
}
);
width = 274;
}
);
unicode = 02DA;
userData = {
org.robofab.fontlab.mark = 0;
};
},
{
glyphname = ogonek;
lastChange = "2016-07-18 16:20:58 +0000";
layers = (
{
anchors = (
{
name = _bottom;
position = "{137, 0}";
}
);
layerId = "9C43DE69-513E-4B89-A1B3-70D9BFAB8C3B";
paths = (
{
closed = 1;
nodes = (
"112 -142 LINE",
"83 -136 OFFCURVE",
"68 -120 OFFCURVE",
"68 -95 CURVE SMOOTH",
"68 -65 OFFCURVE",
"89 -41 OFFCURVE",
"149 0 CURVE",
"137 14 LINE",
"73 -32 OFFCURVE",
"48 -63 OFFCURVE",
"48 -98 CURVE SMOOTH",
"48 -128 OFFCURVE",
"67 -151 OFFCURVE",
"100 -159 CURVE"
);
}
);
width = 203;
},
{
anchors = (
{
name = _bottom;
position = "{212, 0}";
}
);
layerId = "5FCC83B7-30FF-48D6-91DC-2705669CF772";
paths = (
{
closed = 1;
nodes = (
"261 -114 LINE",
"213 -114 OFFCURVE",
"191 -99 OFFCURVE",
"191 -77 CURVE SMOOTH",
"191 -54 OFFCURVE",
"217 -26 OFFCURVE",
"263 1 CURVE",
"207 25 LINE",
"119 -13 OFFCURVE",
"74 -66 OFFCURVE",
"74 -114 CURVE SMOOTH",
"74 -161 OFFCURVE",
"123 -202 OFFCURVE",
"226 -214 CURVE"
);
}
);
width = 332;
}
);
unicode = 02DB;
userData = {
org.robofab.fontlab.mark = 0;
};
},
{
glyphname = tilde;
lastChange = "2016-07-18 16:20:58 +0000";
layers = (
{
anchors = (
{
name = _top;
position = "{188, 519}";
}
);
layerId = "9C43DE69-513E-4B89-A1B3-70D9BFAB8C3B";
paths = (
{
closed = 1;
nodes = (
"73 653 LINE",
"73 659 OFFCURVE",
"81 701 OFFCURVE",
"124 701 CURVE SMOOTH",
"165 701 OFFCURVE",
"190 663 OFFCURVE",
"249 663 CURVE SMOOTH",
"322 663 OFFCURVE",
"330 721 OFFCURVE",
"330 730 CURVE",
"310 730 LINE",
"310 726 OFFCURVE",
"306 682 OFFCURVE",
"251 682 CURVE SMOOTH",
"200 682 OFFCURVE",
"178 720 OFFCURVE",
"126 720 CURVE SMOOTH",
"60 720 OFFCURVE",
"53 659 OFFCURVE",
"53 653 CURVE"
);
}
);
width = 383;
},
{
anchors = (
{
name = _top;
position = "{237, 526}";
}
);
layerId = "5FCC83B7-30FF-48D6-91DC-2705669CF772";
paths = (
{
closed = 1;
nodes = (
"121 572 LINE",
"121 574 OFFCURVE",
"122 620 OFFCURVE",
"167 620 CURVE SMOOTH",
"212 620 OFFCURVE",
"240 572 OFFCURVE",
"301 572 CURVE SMOOTH",
"404 572 OFFCURVE",
"444 707 OFFCURVE",
"444 730 CURVE",
"344 730 LINE",
"344 727 OFFCURVE",
"338 679 OFFCURVE",
"294 679 CURVE SMOOTH",
"248 679 OFFCURVE",
"224 730 OFFCURVE",
"159 730 CURVE SMOOTH",
"59 730 OFFCURVE",
"20 607 OFFCURVE",
"20 572 CURVE"
);
}
);
width = 464;
}
);
unicode = 02DC;
userData = {
org.robofab.fontlab.mark = 0;
};
},
{
glyphname = hungarumlaut;
lastChange = "2016-07-18 14:58:42 +0000";
layers = (
{
anchors = (
{
name = _top;
position = "{130, 519}";
}
);
layerId = "9C43DE69-513E-4B89-A1B3-70D9BFAB8C3B";
paths = (
{
closed = 1;
nodes = (
"248 730 LINE",
"214 730 LINE",
"150 657 LINE",
"166 645 LINE"
);
},
{
closed = 1;
nodes = (
"148 730 LINE",
"114 730 LINE",
"50 657 LINE",
"66 645 LINE"
);
}
);
width = 298;
},
{
anchors = (
{
name = _top;
position = "{178, 525}";
}
);
layerId = "5FCC83B7-30FF-48D6-91DC-2705669CF772";
paths = (
{
closed = 1;
nodes = (
"394 730 LINE",
"255 730 LINE",
"215 588 LINE",
"305 556 LINE"
);
},
{
closed = 1;
nodes = (
"204 730 LINE",
"65 730 LINE",
"25 588 LINE",
"115 556 LINE"
);
}
);
width = 399;
}
);
unicode = 02DD;
userData = {
org.robofab.fontlab.mark = 0;
};
},
{
glyphname = pi;
lastChange = "2016-07-18 16:20:58 +0000";
layers = (
{
layerId = "9C43DE69-513E-4B89-A1B3-70D9BFAB8C3B";
paths = (
{
closed = 1;
nodes = (
"468 -5 OFFCURVE",
"501 1 OFFCURVE",
"519 7 CURVE",
"512 23 LINE",
"495 18 OFFCURVE",
"472 14 OFFCURVE",
"457 14 CURVE SMOOTH",
"417 14 OFFCURVE",
"391 38 OFFCURVE",
"391 77 CURVE SMOOTH",
"391 499 LINE",
"501 499 LINE",
"501 519 LINE",
"25 519 LINE",
"25 499 LINE",
"105 499 LINE",
"105 0 LINE",
"125 0 LINE",
"125 499 LINE",
"371 499 LINE",
"371 77 LINE SMOOTH",
"371 28 OFFCURVE",
"403 -5 OFFCURVE",
"450 -5 CURVE SMOOTH"
);
}
);
width = 541;
},
{
layerId = "5FCC83B7-30FF-48D6-91DC-2705669CF772";
paths = (
{
closed = 1;
nodes = (
"564 -10 OFFCURVE",
"626 3 OFFCURVE",
"671 24 CURVE",
"647 164 LINE",
"631 155 OFFCURVE",
"611 149 OFFCURVE",
"595 149 CURVE SMOOTH",
"563 149 OFFCURVE",
"546 170 OFFCURVE",
"546 209 CURVE SMOOTH",
"546 362 LINE",
"626 362 LINE",
"626 522 LINE",
"27 522 LINE",
"27 362 LINE",
"97 362 LINE",
"97 0 LINE",
"286 0 LINE",
"286 362 LINE",
"356 362 LINE",
"356 142 LINE SMOOTH",
"356 44 OFFCURVE",
"413 -10 OFFCURVE",
"514 -10 CURVE SMOOTH"
);
}
);
width = 682;
}
);
unicode = 03C0;
},
{
glyphname = endash;
lastChange = "2016-07-18 14:58:42 +0000";
layers = (
{
layerId = "9C43DE69-513E-4B89-A1B3-70D9BFAB8C3B";
paths = (
{
closed = 1;
nodes = (
"472 261 LINE",
"472 281 LINE",
"69 281 LINE",
"69 261 LINE"
);
}
);
width = 541;
},
{
layerId = "5FCC83B7-30FF-48D6-91DC-2705669CF772";
paths = (
{
closed = 1;
nodes = (
"579 191 LINE",
"579 361 LINE",
"50 361 LINE",
"50 191 LINE"
);
}
);
width = 629;
}
);
unicode = 2013;
userData = {
org.robofab.fontlab.mark = 0;
};
},
{
glyphname = emdash;
lastChange = "2016-07-18 14:58:42 +0000";
layers = (
{
layerId = "9C43DE69-513E-4B89-A1B3-70D9BFAB8C3B";
paths = (
{
closed = 1;
nodes = (
"808 261 LINE",
"808 281 LINE",
"69 281 LINE",
"69 261 LINE"
);
}
);
width = 877;
},
{
layerId = "5FCC83B7-30FF-48D6-91DC-2705669CF772";
paths = (
{
closed = 1;
nodes = (
"898 191 LINE",
"898 361 LINE",
"50 361 LINE",
"50 191 LINE"
);
}
);
width = 948;
}
);
unicode = 2014;
userData = {
org.robofab.fontlab.mark = 0;
};
},
{
glyphname = quoteleft;
lastChange = "2016-07-18 16:20:58 +0000";
layers = (
{
layerId = "9C43DE69-513E-4B89-A1B3-70D9BFAB8C3B";
paths = (
{
closed = 1;
nodes = (
"96 570 LINE",
"96 644 LINE",
"87 644 LINE",
"97 730 LINE",
"83 730 LINE",
"70 644 LINE",
"70 570 LINE"
);
}
);
width = 168;
},
{
layerId = "5FCC83B7-30FF-48D6-91DC-2705669CF772";
paths = (
{
closed = 1;
nodes = (
"246 439 LINE",
"246 599 LINE",
"194 599 LINE",
"220 730 LINE",
"91 730 LINE",
"49 604 LINE",
"49 439 LINE"
);
}
);
width = 293;
}
);
unicode = 2018;
userData = {
org.robofab.fontlab.mark = 0;
};
},
{
glyphname = quotesinglbase;
lastChange = "2016-07-18 14:58:42 +0000";
layers = (
{
layerId = "9C43DE69-513E-4B89-A1B3-70D9BFAB8C3B";
paths = (
{
closed = 1;
nodes = (
"130 -76 LINE",
"143 0 LINE",
"143 74 LINE",
"117 74 LINE",
"117 0 LINE",
"126 0 LINE",
"116 -76 LINE"
);
}
);
width = 260;
},
{
layerId = "5FCC83B7-30FF-48D6-91DC-2705669CF772";
paths = (
{
closed = 1;
nodes = (
"205 -151 LINE",
"247 -5 LINE",
"247 184 LINE",
"50 184 LINE",
"50 0 LINE",
"102 0 LINE",
"76 -151 LINE"
);
}
);
width = 297;
}
);
unicode = 201A;
userData = {
org.robofab.fontlab.mark = 0;
};
},
{
glyphname = quotedblbase;
lastChange = "2016-07-18 14:58:42 +0000";
layers = (
{
layerId = "9C43DE69-513E-4B89-A1B3-70D9BFAB8C3B";
paths = (
{
closed = 1;
nodes = (
"200 -76 LINE",
"213 0 LINE",
"213 74 LINE",
"187 74 LINE",
"187 0 LINE",
"196 0 LINE",
"186 -76 LINE"
);
},
{
closed = 1;
nodes = (
"130 -76 LINE",
"143 0 LINE",
"143 74 LINE",
"117 74 LINE",
"117 0 LINE",
"126 0 LINE",
"116 -76 LINE"
);
}
);
width = 330;
},
{
layerId = "5FCC83B7-30FF-48D6-91DC-2705669CF772";
paths = (
{
closed = 1;
nodes = (
"442 -151 LINE",
"484 -5 LINE",
"484 184 LINE",
"287 184 LINE",
"287 0 LINE",
"339 0 LINE",
"313 -151 LINE"
);
},
{
closed = 1;
nodes = (
"205 -151 LINE",
"247 -5 LINE",
"247 184 LINE",
"50 184 LINE",
"50 0 LINE",
"102 0 LINE",
"76 -151 LINE"
);
}
);
width = 534;
}
);
unicode = 201E;
userData = {
org.robofab.fontlab.mark = 0;
};
},
{
glyphname = dagger;
lastChange = "2016-07-18 14:58:42 +0000";
layers = (
{
layerId = "9C43DE69-513E-4B89-A1B3-70D9BFAB8C3B";
paths = (
{
closed = 1;
nodes = (
"196 -130 LINE",
"196 261 LINE",
"327 261 LINE",
"327 281 LINE",
"196 281 LINE",
"196 775 LINE",
"176 775 LINE",
"176 281 LINE",
"44 281 LINE",
"44 261 LINE",
"176 261 LINE",
"176 -130 LINE"
);
}
);
width = 371;
},
{
layerId = "5FCC83B7-30FF-48D6-91DC-2705669CF772";
paths = (
{
closed = 1;
nodes = (
"345 -130 LINE",
"345 186 LINE",
"476 186 LINE",
"476 356 LINE",
"345 356 LINE",
"345 775 LINE",
"165 775 LINE",
"165 356 LINE",
"33 356 LINE",
"33 186 LINE",
"165 186 LINE",
"165 -130 LINE"
);
}
);
width = 509;
}
);
unicode = 2020;
userData = {
org.robofab.fontlab.mark = 0;
};
},
{
glyphname = daggerdbl;
lastChange = "2016-07-18 14:58:42 +0000";
layers = (
{
layerId = "9C43DE69-513E-4B89-A1B3-70D9BFAB8C3B";
paths = (
{
closed = 1;
nodes = (
"200 -130 LINE",
"200 201 LINE",
"331 201 LINE",
"331 221 LINE",
"200 221 LINE",
"200 331 LINE",
"331 331 LINE",
"331 351 LINE",
"200 351 LINE",
"200 775 LINE",
"180 775 LINE",
"180 351 LINE",
"48 351 LINE",
"48 331 LINE",
"180 331 LINE",
"180 221 LINE",
"48 221 LINE",
"48 201 LINE",
"180 201 LINE",
"180 -130 LINE"
);
}
);
width = 379;
},
{
layerId = "5FCC83B7-30FF-48D6-91DC-2705669CF772";
paths = (
{
closed = 1;
nodes = (
"359 -130 LINE",
"359 53 LINE",
"490 53 LINE",
"490 223 LINE",
"359 223 LINE",
"359 336 LINE",
"490 336 LINE",
"490 506 LINE",
"359 506 LINE",
"359 775 LINE",
"179 775 LINE",
"179 506 LINE",
"47 506 LINE",
"47 336 LINE",
"179 336 LINE",
"179 223 LINE",
"47 223 LINE",
"47 53 LINE",
"179 53 LINE",
"179 -130 LINE"
);
}
);
width = 537;
}
);
unicode = 2021;
userData = {
org.robofab.fontlab.mark = 0;
};
},
{
glyphname = bullet;
lastChange = "2016-07-18 16:20:58 +0000";
layers = (
{
layerId = "9C43DE69-513E-4B89-A1B3-70D9BFAB8C3B";
paths = (
{
closed = 1;
nodes = (
"214 264 OFFCURVE",
"248 299 OFFCURVE",
"248 343 CURVE SMOOTH",
"248 385 OFFCURVE",
"214 421 OFFCURVE",
"170 421 CURVE SMOOTH",
"127 421 OFFCURVE",
"91 385 OFFCURVE",
"91 343 CURVE SMOOTH",
"91 299 OFFCURVE",
"127 264 OFFCURVE",
"170 264 CURVE SMOOTH"
);
}
);
width = 340;
},
{
layerId = "5FCC83B7-30FF-48D6-91DC-2705669CF772";
paths = (
{
closed = 1;
nodes = (
"250 236 OFFCURVE",
"302 288 OFFCURVE",
"302 353 CURVE SMOOTH",
"302 417 OFFCURVE",
"250 470 OFFCURVE",
"185 470 CURVE SMOOTH",
"121 470 OFFCURVE",
"68 417 OFFCURVE",
"68 353 CURVE SMOOTH",
"68 288 OFFCURVE",
"121 236 OFFCURVE",
"185 236 CURVE SMOOTH"
);
}
);
width = 371;
}
);
unicode = 2022;
userData = {
org.robofab.fontlab.mark = 0;
};
},
{
glyphname = ellipsis;
lastChange = "2016-07-18 14:58:42 +0000";
layers = (
{
layerId = "9C43DE69-513E-4B89-A1B3-70D9BFAB8C3B";
paths = (
{
closed = 1;
nodes = (
"279 0 LINE",
"279 64 LINE",
"259 64 LINE",
"259 0 LINE"
);
},
{
closed = 1;
nodes = (
"89 0 LINE",
"89 64 LINE",
"69 64 LINE",
"69 0 LINE"
);
},
{
closed = 1;
nodes = (
"184 0 LINE",
"184 64 LINE",
"164 64 LINE",
"164 0 LINE"
);
}
);
width = 348;
},
{
layerId = "5FCC83B7-30FF-48D6-91DC-2705669CF772";
paths = (
{
closed = 1;
nodes = (
"672 0 LINE",
"672 184 LINE",
"518 184 LINE",
"518 0 LINE"
);
},
{
closed = 1;
nodes = (
"204 0 LINE",
"204 184 LINE",
"50 184 LINE",
"50 0 LINE"
);
},
{
closed = 1;
nodes = (
"438 0 LINE",
"438 184 LINE",
"284 184 LINE",
"284 0 LINE"
);
}
);
width = 722;
}
);
unicode = 2026;
userData = {
org.robofab.fontlab.mark = 0;
};
},
